SplineFontDB: 3.0
FontName: Abel-Regular
FullName: Abel
FamilyName: Abel
Weight: Book
Copyright: Copyright (c) 2011, Matthew Desmond (http://www.madtype.com | mattdesmond@gmail.com), with Reserved Font Name Abel.
Version: 1.002
ItalicAngle: 0
UnderlinePosition: -328
UnderlineWidth: 82
Ascent: 1638
Descent: 410
sfntRevision: 0x00010083
LayerCount: 2
Layer: 0 1 "Back"  1
Layer: 1 1 "Fore"  0
XUID: [1021 288 713564382 1541176]
FSType: 0
OS2Version: 3
OS2_WeightWidthSlopeOnly: 0
OS2_UseTypoMetrics: 1
CreationTime: 1311873540
ModificationTime: 1311986768
PfmFamily: 17
TTFWeight: 400
TTFWidth: 5
LineGap: 0
VLineGap: 0
Panose: 2 0 5 6 3 0 0 2 0 4
OS2TypoAscent: 368
OS2TypoAOffset: 1
OS2TypoDescent: -194
OS2TypoDOffset: 1
OS2TypoLinegap: 0
OS2WinAscent: 1
OS2WinAOffset: 1
OS2WinDescent: 0
OS2WinDOffset: 1
HheadAscent: 1
HheadAOffset: 1
HheadDescent: 0
HheadDOffset: 1
OS2SubXSize: 1434
OS2SubYSize: 1331
OS2SubXOff: 0
OS2SubYOff: 287
OS2SupXSize: 1434
OS2SupYSize: 1331
OS2SupXOff: 0
OS2SupYOff: 977
OS2StrikeYSize: 102
OS2StrikeYPos: 512
OS2Vendor: 'MADT'
OS2CodePages: 00000001.00000000
OS2UnicodeRanges: 00000001.00000000.00000000.00000000
Lookup: 258 0 0 "'kern' Horizontal Kerning in Latin lookup 0"  {"'kern' Horizontal Kerning in Latin lookup 0 subtable"  } ['kern' ('DFLT' <'dflt' > 'latn' <'dflt' > ) ]
DEI: 91125
TtTable: prep
PUSHW_1
 511
SCANCTRL
PUSHB_1
 4
SCANTYPE
EndTTInstrs
ShortTable: maxp 16
  1
  0
  259
  135
  5
  0
  0
  2
  0
  1
  1
  0
  64
  0
  0
  0
EndShort

StartChar: exclam
Encoding: 33 33 4
Width: 428
Flags: W
LayerCount: 2
Fore
SplineSet
250 434 m 1,0,-1
 178 434 l 1,1,-1
 123 1434 l 1,2,-1
 305 1434 l 1,3,-1
 250 434 l 1,0,-1
137 0 m 1,4,-1
 137 154 l 1,5,-1
 291 154 l 1,6,-1
 291 0 l 1,7,-1
 137 0 l 1,4,-1
EndSplineSet
EndChar

StartChar: quotedbl
Encoding: 34 34 5
Width: 645
Flags: W
LayerCount: 2
Fore
SplineSet
225 993 m 1,0,-1
 174 993 l 1,1,-1
 123 1434 l 1,2,-1
 276 1434 l 1,3,-1
 225 993 l 1,0,-1
471 993 m 1,4,-1
 420 993 l 1,5,-1
 369 1434 l 1,6,-1
 522 1434 l 1,7,-1
 471 993 l 1,4,-1
EndSplineSet
EndChar

StartChar: numbersign
Encoding: 35 35 6
Width: 1311
Flags: W
LayerCount: 2
Fore
SplineSet
164 1069 m 1,0,-1
 399 1069 l 1,1,-1
 430 1434 l 1,2,-1
 551 1434 l 1,3,-1
 520 1069 l 1,4,-1
 852 1069 l 1,5,-1
 883 1434 l 1,6,-1
 1004 1434 l 1,7,-1
 973 1069 l 1,8,-1
 1188 1069 l 1,9,-1
 1188 967 l 1,10,-1
 963 967 l 1,11,-1
 922 467 l 1,12,-1
 1147 467 l 1,13,-1
 1147 365 l 1,14,-1
 911 365 l 1,15,-1
 881 0 l 1,16,-1
 760 0 l 1,17,-1
 791 365 l 1,18,-1
 459 365 l 1,19,-1
 428 0 l 1,20,-1
 307 0 l 1,21,-1
 338 365 l 1,22,-1
 123 365 l 1,23,-1
 123 467 l 1,24,-1
 348 467 l 1,25,-1
 389 967 l 1,26,-1
 164 967 l 1,27,-1
 164 1069 l 1,0,-1
469 467 m 1,28,-1
 801 467 l 1,29,-1
 842 967 l 1,30,-1
 510 967 l 1,31,-1
 469 467 l 1,28,-1
EndSplineSet
EndChar

StartChar: dollar
Encoding: 36 36 7
Width: 1063
Flags: W
LayerCount: 2
Fore
SplineSet
492 -246 m 1,0,-1
 492 -20 l 1,1,2
 420 -19 420 -19 356 8.5 c 128,-1,3
 292 36 292 36 245 83.5 c 128,-1,4
 198 131 198 131 170.5 195 c 128,-1,5
 143 259 143 259 143 332 c 2,6,-1
 143 389 l 1,7,-1
 272 410 l 1,8,-1
 272 332 l 2,9,10
 272 285 272 285 289 244 c 128,-1,11
 306 203 306 203 336 172 c 128,-1,12
 366 141 366 141 406 122.5 c 128,-1,13
 446 104 446 104 492 102 c 1,14,-1
 492 684 l 1,15,16
 426 708 426 708 363.5 736.5 c 128,-1,17
 301 765 301 765 252 809 c 128,-1,18
 203 853 203 853 173 917 c 128,-1,19
 143 981 143 981 143 1075 c 2,20,-1
 143 1102 l 2,21,22
 143 1174 143 1174 170.5 1237.5 c 128,-1,23
 198 1301 198 1301 245 1349 c 128,-1,24
 292 1397 292 1397 356 1425 c 128,-1,25
 420 1453 420 1453 492 1454 c 1,26,-1
 492 1638 l 1,27,-1
 594 1638 l 1,28,-1
 594 1454 l 1,29,30
 665 1453 665 1453 728 1424.5 c 128,-1,31
 791 1396 791 1396 838 1348.5 c 128,-1,32
 885 1301 885 1301 912.5 1237.5 c 128,-1,33
 940 1174 940 1174 940 1102 c 2,34,-1
 940 1065 l 1,35,-1
 811 1044 l 1,36,-1
 811 1102 l 2,37,38
 811 1148 811 1148 794 1189 c 128,-1,39
 777 1230 777 1230 748 1260.5 c 128,-1,40
 719 1291 719 1291 679 1310 c 128,-1,41
 639 1329 639 1329 594 1331 c 1,42,-1
 594 776 l 1,43,44
 659 751 659 751 723 721 c 128,-1,45
 787 691 787 691 837.5 646 c 128,-1,46
 888 601 888 601 919 535.5 c 128,-1,47
 950 470 950 470 950 375 c 2,48,-1
 950 332 l 2,49,50
 950 259 950 259 922.5 195 c 128,-1,51
 895 131 895 131 847 83 c 128,-1,52
 799 35 799 35 735 7.5 c 128,-1,53
 671 -20 671 -20 598 -20 c 2,54,-1
 594 -20 l 1,55,-1
 594 -246 l 1,56,-1
 492 -246 l 1,0,-1
821 375 m 1,57,58
 821 432 821 432 803 474.5 c 128,-1,59
 785 517 785 517 754.5 548.5 c 128,-1,60
 724 580 724 580 682.5 603 c 128,-1,61
 641 626 641 626 594 645 c 1,62,-1
 594 102 l 1,63,64
 641 102 641 102 682.5 120 c 128,-1,65
 724 138 724 138 754.5 169.5 c 128,-1,66
 785 201 785 201 803 242.5 c 128,-1,67
 821 284 821 284 821 332 c 2,68,-1
 821 375 l 1,69,-1
 821 375 l 1,57,58
272 1075 m 1,70,71
 272 1022 272 1022 289 982.5 c 128,-1,72
 306 943 306 943 336 913 c 128,-1,73
 366 883 366 883 406 860 c 128,-1,74
 446 837 446 837 492 817 c 1,75,-1
 492 1331 l 1,76,77
 446 1329 446 1329 406 1310 c 128,-1,78
 366 1291 366 1291 336 1260.5 c 128,-1,79
 306 1230 306 1230 289 1189 c 128,-1,80
 272 1148 272 1148 272 1102 c 2,81,-1
 272 1075 l 1,82,-1
 272 1075 l 1,70,71
EndSplineSet
EndChar

StartChar: percent
Encoding: 37 37 8
Width: 1382
Flags: W
LayerCount: 2
Fore
SplineSet
528 915 m 1,0,1
 528 879 528 879 514.5 846.5 c 128,-1,2
 501 814 501 814 477 790 c 128,-1,3
 453 766 453 766 420.5 751.5 c 128,-1,4
 388 737 388 737 350 737 c 2,5,-1
 322 737 l 2,6,7
 284 737 284 737 251.5 751.5 c 128,-1,8
 219 766 219 766 195 790 c 128,-1,9
 171 814 171 814 157 846.5 c 128,-1,10
 143 879 143 879 143 915 c 2,11,-1
 143 1264 l 2,12,13
 143 1300 143 1300 157 1332.5 c 128,-1,14
 171 1365 171 1365 195 1389 c 128,-1,15
 219 1413 219 1413 251.5 1427.5 c 128,-1,16
 284 1442 284 1442 322 1442 c 2,17,-1
 350 1442 l 2,18,19
 388 1442 388 1442 420.5 1427.5 c 128,-1,20
 453 1413 453 1413 477 1389 c 128,-1,21
 501 1365 501 1365 514.5 1332.5 c 128,-1,22
 528 1300 528 1300 528 1264 c 2,23,-1
 528 915 l 1,24,-1
 528 915 l 1,0,1
430 1264 m 2,25,26
 430 1281 430 1281 423.5 1296 c 128,-1,27
 417 1311 417 1311 405.5 1322 c 128,-1,28
 394 1333 394 1333 379 1339.5 c 128,-1,29
 364 1346 364 1346 346 1346 c 2,30,-1
 326 1346 l 2,31,32
 308 1346 308 1346 293 1339.5 c 128,-1,33
 278 1333 278 1333 266.5 1322 c 128,-1,34
 255 1311 255 1311 248.5 1296 c 128,-1,35
 242 1281 242 1281 242 1264 c 2,36,-1
 242 915 l 2,37,38
 242 881 242 881 266.5 857.5 c 128,-1,39
 291 834 291 834 326 834 c 2,40,-1
 346 834 l 2,41,42
 381 834 381 834 405.5 857.5 c 128,-1,43
 430 881 430 881 430 915 c 2,44,-1
 430 1264 l 2,25,26
1239 170 m 1,45,46
 1239 134 1239 134 1225.5 101.5 c 128,-1,47
 1212 69 1212 69 1188 45 c 128,-1,48
 1164 21 1164 21 1131.5 6.5 c 128,-1,49
 1099 -8 1099 -8 1061 -8 c 2,50,-1
 1032 -8 l 2,51,52
 995 -8 995 -8 962.5 6.5 c 128,-1,53
 930 21 930 21 906 45 c 128,-1,54
 882 69 882 69 868 101.5 c 128,-1,55
 854 134 854 134 854 170 c 2,56,-1
 854 518 l 2,57,58
 854 554 854 554 868 586.5 c 128,-1,59
 882 619 882 619 906 643 c 128,-1,60
 930 667 930 667 962.5 681.5 c 128,-1,61
 995 696 995 696 1032 696 c 2,62,-1
 1061 696 l 2,63,64
 1099 696 1099 696 1131.5 681.5 c 128,-1,65
 1164 667 1164 667 1188 643 c 128,-1,66
 1212 619 1212 619 1225.5 586.5 c 128,-1,67
 1239 554 1239 554 1239 518 c 2,68,-1
 1239 170 l 1,69,-1
 1239 170 l 1,45,46
1141 518 m 2,70,71
 1141 535 1141 535 1134.5 550 c 128,-1,72
 1128 565 1128 565 1116.5 576 c 128,-1,73
 1105 587 1105 587 1090 593.5 c 128,-1,74
 1075 600 1075 600 1057 600 c 2,75,-1
 1036 600 l 2,76,77
 1018 600 1018 600 1003 593.5 c 128,-1,78
 988 587 988 587 976.5 576 c 128,-1,79
 965 565 965 565 958.5 550 c 128,-1,80
 952 535 952 535 952 518 c 2,81,-1
 952 170 l 2,82,83
 952 153 952 153 958.5 138 c 128,-1,84
 965 123 965 123 976.5 112 c 128,-1,85
 988 101 988 101 1003 94.5 c 128,-1,86
 1018 88 1018 88 1036 88 c 2,87,-1
 1057 88 l 2,88,89
 1075 88 1075 88 1090 94.5 c 128,-1,90
 1105 101 1105 101 1116.5 112 c 128,-1,91
 1128 123 1128 123 1134.5 138 c 128,-1,92
 1141 153 1141 153 1141 170 c 2,93,-1
 1141 518 l 2,70,71
225 0 m 1,94,-1
 1042 1434 l 1,95,-1
 1157 1434 l 1,96,-1
 340 0 l 1,97,-1
 225 0 l 1,94,-1
EndSplineSet
EndChar

StartChar: ampersand
Encoding: 38 38 9
Width: 1272
Flags: W
LayerCount: 2
Fore
SplineSet
1092 -20 m 2,0,1
 1005 -20 1005 -20 940.5 17 c 128,-1,2
 876 54 876 54 838 117 c 1,3,4
 788 54 788 54 715 17 c 128,-1,5
 642 -20 642 -20 557 -20 c 2,6,-1
 496 -20 l 2,7,8
 423 -20 423 -20 358.5 7.5 c 128,-1,9
 294 35 294 35 246 83 c 128,-1,10
 198 131 198 131 170.5 195 c 128,-1,11
 143 259 143 259 143 332 c 2,12,-1
 143 410 l 2,13,14
 143 461 143 461 156.5 507.5 c 128,-1,15
 170 554 170 554 195 594 c 128,-1,16
 220 634 220 634 254 666.5 c 128,-1,17
 288 699 288 699 330 721 c 1,18,19
 288 743 288 743 254 775.5 c 128,-1,20
 220 808 220 808 195 848 c 128,-1,21
 170 888 170 888 156.5 934.5 c 128,-1,22
 143 981 143 981 143 1032 c 2,23,-1
 143 1102 l 2,24,25
 143 1175 143 1175 170.5 1239 c 128,-1,26
 198 1303 198 1303 246 1351 c 128,-1,27
 294 1399 294 1399 358.5 1426.5 c 128,-1,28
 423 1454 423 1454 496 1454 c 2,29,-1
 557 1454 l 2,30,31
 630 1454 630 1454 694 1426.5 c 128,-1,32
 758 1399 758 1399 806 1351 c 128,-1,33
 854 1303 854 1303 881.5 1239 c 128,-1,34
 909 1175 909 1175 909 1102 c 2,35,-1
 909 1092 l 1,36,-1
 780 1071 l 1,37,-1
 780 1102 l 2,38,39
 780 1150 780 1150 762 1191.5 c 128,-1,40
 744 1233 744 1233 713 1264 c 128,-1,41
 682 1295 682 1295 640.5 1313 c 128,-1,42
 599 1331 599 1331 551 1331 c 2,43,-1
 502 1331 l 2,44,45
 454 1331 454 1331 412.5 1313 c 128,-1,46
 371 1295 371 1295 339.5 1264 c 128,-1,47
 308 1233 308 1233 290 1191.5 c 128,-1,48
 272 1150 272 1150 272 1102 c 2,49,-1
 272 1012 l 2,50,51
 272 964 272 964 290 922.5 c 128,-1,52
 308 881 308 881 339.5 849.5 c 128,-1,53
 371 818 371 818 412.5 800 c 128,-1,54
 454 782 454 782 502 782 c 2,55,-1
 780 782 l 1,56,-1
 780 913 l 1,57,-1
 909 934 l 1,58,-1
 909 784 l 1,59,-1
 1108 784 l 1,60,-1
 1108 662 l 1,61,-1
 909 662 l 1,62,-1
 909 317 l 1,63,64
 911 272 911 272 923 233 c 128,-1,65
 935 194 935 194 958.5 164.5 c 128,-1,66
 982 135 982 135 1017 118.5 c 128,-1,67
 1052 102 1052 102 1098 102 c 2,68,-1
 1128 102 l 1,69,-1
 1110 -20 l 1,70,-1
 1092 -20 l 2,0,1
551 102 m 1,71,72
 597 102 597 102 638 119 c 128,-1,73
 679 136 679 136 709.5 166 c 128,-1,74
 740 196 740 196 759 236 c 128,-1,75
 778 276 778 276 780 322 c 1,76,-1
 780 659 l 1,77,-1
 502 659 l 2,78,79
 454 659 454 659 412.5 641 c 128,-1,80
 371 623 371 623 339.5 592 c 128,-1,81
 308 561 308 561 290 519.5 c 128,-1,82
 272 478 272 478 272 430 c 2,83,-1
 272 332 l 2,84,85
 272 284 272 284 290 242.5 c 128,-1,86
 308 201 308 201 339.5 169.5 c 128,-1,87
 371 138 371 138 412.5 120 c 128,-1,88
 454 102 454 102 502 102 c 2,89,-1
 551 102 l 1,90,-1
 551 102 l 1,71,72
EndSplineSet
EndChar

StartChar: quotesingle
Encoding: 39 39 10
Width: 399
Flags: W
LayerCount: 2
Fore
SplineSet
195 993 m 1,0,-1
 143 993 l 1,1,-1
 143 1434 l 1,2,-1
 297 1434 l 1,3,-1
 195 993 l 1,0,-1
EndSplineSet
EndChar

StartChar: parenleft
Encoding: 40 40 11
Width: 684
Flags: W
LayerCount: 2
Fore
SplineSet
123 598 m 0,0,1
 123 765 123 765 155 909 c 128,-1,2
 187 1053 187 1053 244 1177.5 c 128,-1,3
 301 1302 301 1302 379.5 1408.5 c 128,-1,4
 458 1515 458 1515 551 1606 c 1,5,-1
 623 1534 l 1,6,7
 541 1449 541 1449 471.5 1346 c 128,-1,8
 402 1243 402 1243 352 1124.5 c 128,-1,9
 302 1006 302 1006 274 874 c 128,-1,10
 246 742 246 742 246 598 c 256,11,12
 246 454 246 454 274 322 c 128,-1,13
 302 190 302 190 352 71.5 c 128,-1,14
 402 -47 402 -47 471.5 -150 c 128,-1,15
 541 -253 541 -253 623 -338 c 1,16,-1
 551 -410 l 1,17,18
 458 -319 458 -319 379.5 -212.5 c 128,-1,19
 301 -106 301 -106 244 19 c 128,-1,20
 187 144 187 144 155 288 c 128,-1,21
 123 432 123 432 123 598 c 0,0,1
EndSplineSet
EndChar

StartChar: parenright
Encoding: 41 41 12
Width: 684
Flags: W
LayerCount: 2
Fore
SplineSet
561 598 m 0,0,1
 561 432 561 432 529 288 c 128,-1,2
 497 144 497 144 440 19 c 128,-1,3
 383 -106 383 -106 304.5 -212.5 c 128,-1,4
 226 -319 226 -319 133 -410 c 1,5,-1
 61 -338 l 1,6,7
 144 -253 144 -253 213 -150 c 128,-1,8
 282 -47 282 -47 332 71.5 c 128,-1,9
 382 190 382 190 410 322 c 128,-1,10
 438 454 438 454 438 598 c 256,11,12
 438 742 438 742 410 874 c 128,-1,13
 382 1006 382 1006 332 1124.5 c 128,-1,14
 282 1243 282 1243 213 1346 c 128,-1,15
 144 1449 144 1449 61 1534 c 1,16,-1
 133 1606 l 1,17,18
 226 1515 226 1515 304.5 1408.5 c 128,-1,19
 383 1302 383 1302 440 1177.5 c 128,-1,20
 497 1053 497 1053 529 909 c 128,-1,21
 561 765 561 765 561 598 c 0,0,1
EndSplineSet
EndChar

StartChar: asterisk
Encoding: 42 42 13
Width: 993
Flags: W
LayerCount: 2
Fore
SplineSet
498 973 m 1,0,-1
 326 686 l 1,1,-1
 207 772 l 1,2,-1
 428 1022 l 1,3,-1
 102 1096 l 1,4,-1
 147 1233 l 1,5,-1
 455 1102 l 1,6,-1
 424 1434 l 1,7,-1
 569 1434 l 1,8,-1
 539 1102 l 1,9,-1
 846 1233 l 1,10,-1
 891 1096 l 1,11,-1
 565 1022 l 1,12,-1
 786 772 l 1,13,-1
 668 686 l 1,14,-1
 498 973 l 1,0,-1
EndSplineSet
EndChar

StartChar: plus
Encoding: 43 43 14
Width: 1188
Flags: W
LayerCount: 2
Fore
SplineSet
82 782 m 1,0,-1
 528 782 l 1,1,-1
 528 1229 l 1,2,-1
 657 1229 l 1,3,-1
 657 782 l 1,4,-1
 1106 782 l 1,5,-1
 1106 653 l 1,6,-1
 657 653 l 1,7,-1
 657 205 l 1,8,-1
 528 205 l 1,9,-1
 528 653 l 1,10,-1
 82 653 l 1,11,-1
 82 782 l 1,0,-1
EndSplineSet
EndChar

StartChar: comma
Encoding: 44 44 15
Width: 440
Flags: W
LayerCount: 2
Fore
SplineSet
195 -287 m 1,0,-1
 143 -287 l 1,1,-1
 143 154 l 1,2,-1
 297 154 l 1,3,-1
 195 -287 l 1,0,-1
EndSplineSet
EndChar

StartChar: hyphen
Encoding: 45 45 16
Width: 588
Flags: W
LayerCount: 2
Fore
SplineSet
102 627 m 1,0,-1
 102 743 l 1,1,-1
 485 743 l 1,2,-1
 485 627 l 1,3,-1
 102 627 l 1,0,-1
EndSplineSet
EndChar

StartChar: period
Encoding: 46 46 17
Width: 440
Flags: W
LayerCount: 2
Fore
SplineSet
143 0 m 1,0,-1
 143 154 l 1,1,-1
 297 154 l 1,2,-1
 297 0 l 1,3,-1
 143 0 l 1,0,-1
EndSplineSet
EndChar

StartChar: slash
Encoding: 47 47 18
Width: 782
Flags: W
LayerCount: 2
Fore
SplineSet
41 -123 m 1,0,-1
 612 1556 l 1,1,-1
 741 1556 l 1,2,-1
 170 -123 l 1,3,-1
 41 -123 l 1,0,-1
EndSplineSet
EndChar

StartChar: zero
Encoding: 48 48 19
Width: 1053
Flags: W
LayerCount: 2
Fore
SplineSet
909 332 m 1,0,1
 909 259 909 259 881.5 195 c 128,-1,2
 854 131 854 131 806 83 c 128,-1,3
 758 35 758 35 694 7.5 c 128,-1,4
 630 -20 630 -20 557 -20 c 2,5,-1
 496 -20 l 2,6,7
 423 -20 423 -20 358.5 7.5 c 128,-1,8
 294 35 294 35 246 83 c 128,-1,9
 198 131 198 131 170.5 195 c 128,-1,10
 143 259 143 259 143 332 c 2,11,-1
 143 1102 l 2,12,13
 143 1175 143 1175 170.5 1239 c 128,-1,14
 198 1303 198 1303 246 1351 c 128,-1,15
 294 1399 294 1399 358.5 1426.5 c 128,-1,16
 423 1454 423 1454 496 1454 c 2,17,-1
 557 1454 l 2,18,19
 630 1454 630 1454 694 1426.5 c 128,-1,20
 758 1399 758 1399 806 1351 c 128,-1,21
 854 1303 854 1303 881.5 1239 c 128,-1,22
 909 1175 909 1175 909 1102 c 2,23,-1
 909 332 l 1,24,-1
 909 332 l 1,0,1
780 1102 m 2,25,26
 780 1150 780 1150 762 1191.5 c 128,-1,27
 744 1233 744 1233 713 1264 c 128,-1,28
 682 1295 682 1295 640.5 1313 c 128,-1,29
 599 1331 599 1331 551 1331 c 2,30,-1
 502 1331 l 2,31,32
 454 1331 454 1331 412.5 1313 c 128,-1,33
 371 1295 371 1295 339.5 1264 c 128,-1,34
 308 1233 308 1233 290 1191.5 c 128,-1,35
 272 1150 272 1150 272 1102 c 2,36,-1
 272 332 l 2,37,38
 272 284 272 284 290 242.5 c 128,-1,39
 308 201 308 201 339.5 169.5 c 128,-1,40
 371 138 371 138 412.5 120 c 128,-1,41
 454 102 454 102 502 102 c 2,42,-1
 551 102 l 2,43,44
 599 102 599 102 640.5 120 c 128,-1,45
 682 138 682 138 713 169.5 c 128,-1,46
 744 201 744 201 762 242.5 c 128,-1,47
 780 284 780 284 780 332 c 2,48,-1
 780 1102 l 2,25,26
EndSplineSet
EndChar

StartChar: one
Encoding: 49 49 20
Width: 1059
Flags: W
LayerCount: 2
Fore
SplineSet
164 0 m 1,0,-1
 164 123 l 1,1,-1
 506 123 l 1,2,-1
 506 1311 l 1,3,-1
 164 1167 l 1,4,-1
 164 1290 l 1,5,-1
 506 1434 l 1,6,-1
 635 1434 l 1,7,-1
 635 123 l 1,8,-1
 977 123 l 1,9,-1
 977 0 l 1,10,-1
 164 0 l 1,0,-1
EndSplineSet
EndChar

StartChar: two
Encoding: 50 50 21
Width: 1012
Flags: W
LayerCount: 2
Fore
SplineSet
471 1331 m 2,0,1
 423 1331 423 1331 381.5 1313 c 128,-1,2
 340 1295 340 1295 309 1264 c 128,-1,3
 278 1233 278 1233 260 1191.5 c 128,-1,4
 242 1150 242 1150 242 1102 c 2,5,-1
 242 1044 l 1,6,-1
 113 1065 l 1,7,-1
 113 1102 l 2,8,9
 113 1175 113 1175 140.5 1239 c 128,-1,10
 168 1303 168 1303 216 1351 c 128,-1,11
 264 1399 264 1399 328 1426.5 c 128,-1,12
 392 1454 392 1454 465 1454 c 2,13,-1
 526 1454 l 2,14,15
 599 1454 599 1454 663.5 1428 c 128,-1,16
 728 1402 728 1402 776 1353 c 128,-1,17
 824 1304 824 1304 851.5 1235.5 c 128,-1,18
 879 1167 879 1167 879 1081 c 0,19,20
 879 996 879 996 853.5 910 c 128,-1,21
 828 824 828 824 786.5 741 c 128,-1,22
 745 658 745 658 691.5 580 c 128,-1,23
 638 502 638 502 582 433 c 0,24,25
 451 272 451 272 285 123 c 1,26,-1
 889 123 l 1,27,-1
 889 0 l 1,28,-1
 82 0 l 1,29,-1
 82 102 l 1,30,31
 269 256 269 256 416 421 c 0,32,33
 479 492 479 492 539 572 c 128,-1,34
 599 652 599 652 646 736.5 c 128,-1,35
 693 821 693 821 721.5 908.5 c 128,-1,36
 750 996 750 996 750 1081 c 0,37,38
 750 1144 750 1144 731 1191 c 128,-1,39
 712 1238 712 1238 680 1269 c 128,-1,40
 648 1300 648 1300 606.5 1315.5 c 128,-1,41
 565 1331 565 1331 520 1331 c 2,42,-1
 471 1331 l 2,0,1
EndSplineSet
EndChar

StartChar: three
Encoding: 51 51 22
Width: 1053
Flags: W
LayerCount: 2
Fore
SplineSet
909 332 m 1,0,1
 909 259 909 259 881.5 195 c 128,-1,2
 854 131 854 131 806 83 c 128,-1,3
 758 35 758 35 694 7.5 c 128,-1,4
 630 -20 630 -20 557 -20 c 2,5,-1
 496 -20 l 2,6,7
 423 -20 423 -20 358.5 7.5 c 128,-1,8
 294 35 294 35 246 83 c 128,-1,9
 198 131 198 131 170.5 195 c 128,-1,10
 143 259 143 259 143 332 c 2,11,-1
 143 369 l 1,12,-1
 272 389 l 1,13,-1
 272 332 l 2,14,15
 272 284 272 284 290 242.5 c 128,-1,16
 308 201 308 201 339.5 169.5 c 128,-1,17
 371 138 371 138 412.5 120 c 128,-1,18
 454 102 454 102 502 102 c 2,19,-1
 551 102 l 2,20,21
 599 102 599 102 640.5 120 c 128,-1,22
 682 138 682 138 713 169.5 c 128,-1,23
 744 201 744 201 762 242.5 c 128,-1,24
 780 284 780 284 780 332 c 2,25,-1
 780 451 l 2,26,27
 780 499 780 499 762 540.5 c 128,-1,28
 744 582 744 582 713 613 c 128,-1,29
 682 644 682 644 640.5 662 c 128,-1,30
 599 680 599 680 551 680 c 2,31,-1
 455 680 l 1,32,-1
 455 803 l 1,33,-1
 551 803 l 2,34,35
 599 803 599 803 640.5 821 c 128,-1,36
 682 839 682 839 713 870 c 128,-1,37
 744 901 744 901 762 942.5 c 128,-1,38
 780 984 780 984 780 1032 c 2,39,-1
 780 1102 l 2,40,41
 780 1150 780 1150 762 1191.5 c 128,-1,42
 744 1233 744 1233 713 1264 c 128,-1,43
 682 1295 682 1295 640.5 1313 c 128,-1,44
 599 1331 599 1331 551 1331 c 2,45,-1
 502 1331 l 2,46,47
 454 1331 454 1331 412.5 1313 c 128,-1,48
 371 1295 371 1295 339.5 1264 c 128,-1,49
 308 1233 308 1233 290 1191.5 c 128,-1,50
 272 1150 272 1150 272 1102 c 2,51,-1
 272 1044 l 1,52,-1
 143 1065 l 1,53,-1
 143 1102 l 2,54,55
 143 1175 143 1175 170.5 1239 c 128,-1,56
 198 1303 198 1303 246 1351 c 128,-1,57
 294 1399 294 1399 358.5 1426.5 c 128,-1,58
 423 1454 423 1454 496 1454 c 2,59,-1
 557 1454 l 2,60,61
 630 1454 630 1454 694 1426.5 c 128,-1,62
 758 1399 758 1399 806 1351 c 128,-1,63
 854 1303 854 1303 881.5 1239 c 128,-1,64
 909 1175 909 1175 909 1102 c 2,65,-1
 909 1053 l 2,66,67
 909 1002 909 1002 895.5 955.5 c 128,-1,68
 882 909 882 909 857.5 869 c 128,-1,69
 833 829 833 829 799 796.5 c 128,-1,70
 765 764 765 764 723 741 c 1,71,72
 765 719 765 719 799 686.5 c 128,-1,73
 833 654 833 654 857.5 614 c 128,-1,74
 882 574 882 574 895.5 527.5 c 128,-1,75
 909 481 909 481 909 430 c 2,76,-1
 909 332 l 1,77,-1
 909 332 l 1,0,1
EndSplineSet
EndChar

StartChar: four
Encoding: 52 52 23
Width: 1032
Flags: W
LayerCount: 2
Fore
SplineSet
766 248 m 1,0,-1
 766 0 l 1,1,-1
 637 0 l 1,2,-1
 637 248 l 1,3,-1
 61 248 l 1,4,-1
 61 309 l 1,5,-1
 698 1434 l 1,6,-1
 766 1434 l 1,7,-1
 766 371 l 1,8,-1
 889 371 l 1,9,-1
 889 248 l 1,10,-1
 766 248 l 1,0,-1
637 1081 m 1,11,-1
 242 371 l 1,12,-1
 637 371 l 1,13,-1
 637 1081 l 1,11,-1
EndSplineSet
EndChar

StartChar: five
Encoding: 53 53 24
Width: 1053
Flags: W
LayerCount: 2
Fore
SplineSet
909 332 m 1,0,1
 909 259 909 259 881.5 195 c 128,-1,2
 854 131 854 131 806 83 c 128,-1,3
 758 35 758 35 694 7.5 c 128,-1,4
 630 -20 630 -20 557 -20 c 2,5,-1
 496 -20 l 2,6,7
 423 -20 423 -20 358.5 7.5 c 128,-1,8
 294 35 294 35 246 83 c 128,-1,9
 198 131 198 131 170.5 195 c 128,-1,10
 143 259 143 259 143 332 c 2,11,-1
 143 354 l 1,12,-1
 272 354 l 1,13,-1
 272 332 l 2,14,15
 272 284 272 284 290 242.5 c 128,-1,16
 308 201 308 201 339.5 169.5 c 128,-1,17
 371 138 371 138 412.5 120 c 128,-1,18
 454 102 454 102 502 102 c 2,19,-1
 551 102 l 2,20,21
 599 102 599 102 640.5 120 c 128,-1,22
 682 138 682 138 713 169.5 c 128,-1,23
 744 201 744 201 762 242.5 c 128,-1,24
 780 284 780 284 780 332 c 2,25,-1
 780 610 l 2,26,27
 780 658 780 658 762 699.5 c 128,-1,28
 744 741 744 741 713 772.5 c 128,-1,29
 682 804 682 804 640.5 822 c 128,-1,30
 599 840 599 840 551 840 c 2,31,-1
 502 840 l 2,32,33
 454 840 454 840 412.5 822 c 128,-1,34
 371 804 371 804 339.5 772.5 c 128,-1,35
 308 741 308 741 290 699.5 c 128,-1,36
 272 658 272 658 272 610 c 1,37,-1
 143 610 l 1,38,-1
 225 1434 l 1,39,-1
 838 1434 l 1,40,-1
 838 1311 l 1,41,-1
 346 1311 l 1,42,-1
 299 870 l 1,43,44
 345 914 345 914 406 938.5 c 128,-1,45
 467 963 467 963 537 963 c 2,46,-1
 557 963 l 2,47,48
 630 963 630 963 694 935.5 c 128,-1,49
 758 908 758 908 806 860 c 128,-1,50
 854 812 854 812 881.5 747.5 c 128,-1,51
 909 683 909 683 909 610 c 2,52,-1
 909 332 l 1,53,-1
 909 332 l 1,0,1
EndSplineSet
EndChar

StartChar: six
Encoding: 54 54 25
Width: 1053
Flags: W
LayerCount: 2
Fore
SplineSet
930 332 m 1,0,1
 930 259 930 259 902.5 195 c 128,-1,2
 875 131 875 131 827 83 c 128,-1,3
 779 35 779 35 715 7.5 c 128,-1,4
 651 -20 651 -20 578 -20 c 2,5,-1
 516 -20 l 2,6,7
 443 -20 443 -20 379 7.5 c 128,-1,8
 315 35 315 35 267 83 c 128,-1,9
 219 131 219 131 191.5 195 c 128,-1,10
 164 259 164 259 164 332 c 2,11,-1
 164 1102 l 2,12,13
 164 1175 164 1175 191.5 1239 c 128,-1,14
 219 1303 219 1303 267 1351 c 128,-1,15
 315 1399 315 1399 379 1426.5 c 128,-1,16
 443 1454 443 1454 516 1454 c 2,17,-1
 578 1454 l 2,18,19
 651 1454 651 1454 715 1426.5 c 128,-1,20
 779 1399 779 1399 827 1351 c 128,-1,21
 875 1303 875 1303 902.5 1239 c 128,-1,22
 930 1175 930 1175 930 1102 c 2,23,-1
 930 1065 l 1,24,-1
 801 1044 l 1,25,-1
 801 1102 l 2,26,27
 801 1150 801 1150 783 1191.5 c 128,-1,28
 765 1233 765 1233 733.5 1264 c 128,-1,29
 702 1295 702 1295 660.5 1313 c 128,-1,30
 619 1331 619 1331 571 1331 c 2,31,-1
 522 1331 l 2,32,33
 474 1331 474 1331 432.5 1313 c 128,-1,34
 391 1295 391 1295 360 1264 c 128,-1,35
 329 1233 329 1233 311 1191.5 c 128,-1,36
 293 1150 293 1150 293 1102 c 2,37,-1
 293 745 l 1,38,39
 342 799 342 799 410.5 831.5 c 128,-1,40
 479 864 479 864 557 864 c 2,41,-1
 578 864 l 2,42,43
 651 864 651 864 715 836.5 c 128,-1,44
 779 809 779 809 827 761 c 128,-1,45
 875 713 875 713 902.5 649 c 128,-1,46
 930 585 930 585 930 512 c 2,47,-1
 930 332 l 1,48,-1
 930 332 l 1,0,1
801 512 m 2,49,50
 801 560 801 560 783 601.5 c 128,-1,51
 765 643 765 643 733.5 674 c 128,-1,52
 702 705 702 705 660.5 723 c 128,-1,53
 619 741 619 741 571 741 c 2,54,-1
 522 741 l 2,55,56
 474 741 474 741 432.5 723 c 128,-1,57
 391 705 391 705 360 674 c 128,-1,58
 329 643 329 643 311 601.5 c 128,-1,59
 293 560 293 560 293 512 c 2,60,-1
 293 332 l 2,61,62
 293 284 293 284 311 242.5 c 128,-1,63
 329 201 329 201 360 169.5 c 128,-1,64
 391 138 391 138 432.5 120 c 128,-1,65
 474 102 474 102 522 102 c 2,66,-1
 571 102 l 2,67,68
 619 102 619 102 660.5 120 c 128,-1,69
 702 138 702 138 733.5 169.5 c 128,-1,70
 765 201 765 201 783 242.5 c 128,-1,71
 801 284 801 284 801 332 c 2,72,-1
 801 512 l 2,49,50
EndSplineSet
EndChar

StartChar: seven
Encoding: 55 55 26
Width: 1053
Flags: W
LayerCount: 2
Fore
SplineSet
389 0 m 1,0,-1
 254 0 l 1,1,-1
 791 1311 l 1,2,-1
 293 1311 l 1,3,-1
 293 1120 l 1,4,-1
 164 1120 l 1,5,-1
 164 1434 l 1,6,-1
 950 1434 l 1,7,-1
 950 1372 l 1,8,-1
 389 0 l 1,0,-1
EndSplineSet
EndChar

StartChar: eight
Encoding: 56 56 27
Width: 1053
Flags: W
LayerCount: 2
Fore
SplineSet
909 332 m 1,0,1
 909 259 909 259 881.5 195 c 128,-1,2
 854 131 854 131 806 83 c 128,-1,3
 758 35 758 35 694 7.5 c 128,-1,4
 630 -20 630 -20 557 -20 c 2,5,-1
 496 -20 l 2,6,7
 423 -20 423 -20 358.5 7.5 c 128,-1,8
 294 35 294 35 246 83 c 128,-1,9
 198 131 198 131 170.5 195 c 128,-1,10
 143 259 143 259 143 332 c 2,11,-1
 143 451 l 2,12,13
 143 542 143 542 185.5 617.5 c 128,-1,14
 228 693 228 693 297 741 c 1,15,16
 228 789 228 789 185.5 865 c 128,-1,17
 143 941 143 941 143 1032 c 2,18,-1
 143 1102 l 2,19,20
 143 1175 143 1175 170.5 1239 c 128,-1,21
 198 1303 198 1303 246 1351 c 128,-1,22
 294 1399 294 1399 358.5 1426.5 c 128,-1,23
 423 1454 423 1454 496 1454 c 2,24,-1
 557 1454 l 2,25,26
 630 1454 630 1454 694 1426.5 c 128,-1,27
 758 1399 758 1399 806 1351 c 128,-1,28
 854 1303 854 1303 881.5 1239 c 128,-1,29
 909 1175 909 1175 909 1102 c 2,30,-1
 909 1032 l 2,31,32
 909 941 909 941 867 865 c 128,-1,33
 825 789 825 789 756 741 c 1,34,35
 825 693 825 693 867 617.5 c 128,-1,36
 909 542 909 542 909 451 c 2,37,-1
 909 332 l 1,38,-1
 909 332 l 1,0,1
780 1102 m 2,39,40
 780 1150 780 1150 762 1191.5 c 128,-1,41
 744 1233 744 1233 713 1264 c 128,-1,42
 682 1295 682 1295 640.5 1313 c 128,-1,43
 599 1331 599 1331 551 1331 c 2,44,-1
 502 1331 l 2,45,46
 454 1331 454 1331 412.5 1313 c 128,-1,47
 371 1295 371 1295 339.5 1264 c 128,-1,48
 308 1233 308 1233 290 1191.5 c 128,-1,49
 272 1150 272 1150 272 1102 c 2,50,-1
 272 1032 l 2,51,52
 272 984 272 984 290 942.5 c 128,-1,53
 308 901 308 901 339.5 870 c 128,-1,54
 371 839 371 839 412.5 821 c 128,-1,55
 454 803 454 803 502 803 c 2,56,-1
 551 803 l 2,57,58
 599 803 599 803 640.5 821 c 128,-1,59
 682 839 682 839 713 870 c 128,-1,60
 744 901 744 901 762 942.5 c 128,-1,61
 780 984 780 984 780 1032 c 2,62,-1
 780 1102 l 2,39,40
780 451 m 2,63,64
 780 499 780 499 762 540.5 c 128,-1,65
 744 582 744 582 713 613 c 128,-1,66
 682 644 682 644 640.5 662 c 128,-1,67
 599 680 599 680 551 680 c 2,68,-1
 502 680 l 2,69,70
 454 680 454 680 412.5 662 c 128,-1,71
 371 644 371 644 339.5 613 c 128,-1,72
 308 582 308 582 290 540.5 c 128,-1,73
 272 499 272 499 272 451 c 2,74,-1
 272 332 l 2,75,76
 272 284 272 284 290 242.5 c 128,-1,77
 308 201 308 201 339.5 169.5 c 128,-1,78
 371 138 371 138 412.5 120 c 128,-1,79
 454 102 454 102 502 102 c 2,80,-1
 551 102 l 2,81,82
 599 102 599 102 640.5 120 c 128,-1,83
 682 138 682 138 713 169.5 c 128,-1,84
 744 201 744 201 762 242.5 c 128,-1,85
 780 284 780 284 780 332 c 2,86,-1
 780 451 l 2,63,64
EndSplineSet
EndChar

StartChar: nine
Encoding: 57 57 28
Width: 1053
Flags: W
LayerCount: 2
Fore
SplineSet
930 332 m 1,0,1
 930 259 930 259 902.5 195 c 128,-1,2
 875 131 875 131 827 83 c 128,-1,3
 779 35 779 35 715 7.5 c 128,-1,4
 651 -20 651 -20 578 -20 c 2,5,-1
 516 -20 l 2,6,7
 443 -20 443 -20 379 7.5 c 128,-1,8
 315 35 315 35 267 83 c 128,-1,9
 219 131 219 131 191.5 195 c 128,-1,10
 164 259 164 259 164 332 c 2,11,-1
 164 369 l 1,12,-1
 293 389 l 1,13,-1
 293 332 l 2,14,15
 293 284 293 284 311 242.5 c 128,-1,16
 329 201 329 201 360 169.5 c 128,-1,17
 391 138 391 138 432.5 120 c 128,-1,18
 474 102 474 102 522 102 c 2,19,-1
 571 102 l 2,20,21
 619 102 619 102 660.5 120 c 128,-1,22
 702 138 702 138 733.5 169.5 c 128,-1,23
 765 201 765 201 783 242.5 c 128,-1,24
 801 284 801 284 801 332 c 2,25,-1
 801 688 l 1,26,27
 751 634 751 634 683 601.5 c 128,-1,28
 615 569 615 569 537 569 c 2,29,-1
 516 569 l 2,30,31
 443 569 443 569 379 596.5 c 128,-1,32
 315 624 315 624 267 672 c 128,-1,33
 219 720 219 720 191.5 784.5 c 128,-1,34
 164 849 164 849 164 922 c 2,35,-1
 164 1102 l 2,36,37
 164 1175 164 1175 191.5 1239 c 128,-1,38
 219 1303 219 1303 267 1351 c 128,-1,39
 315 1399 315 1399 379 1426.5 c 128,-1,40
 443 1454 443 1454 516 1454 c 2,41,-1
 578 1454 l 2,42,43
 651 1454 651 1454 715 1426.5 c 128,-1,44
 779 1399 779 1399 827 1351 c 128,-1,45
 875 1303 875 1303 902.5 1239 c 128,-1,46
 930 1175 930 1175 930 1102 c 2,47,-1
 930 332 l 1,48,-1
 930 332 l 1,0,1
801 1102 m 2,49,50
 801 1150 801 1150 783 1191.5 c 128,-1,51
 765 1233 765 1233 733.5 1264 c 128,-1,52
 702 1295 702 1295 660.5 1313 c 128,-1,53
 619 1331 619 1331 571 1331 c 2,54,-1
 522 1331 l 2,55,56
 474 1331 474 1331 432.5 1313 c 128,-1,57
 391 1295 391 1295 360 1264 c 128,-1,58
 329 1233 329 1233 311 1191.5 c 128,-1,59
 293 1150 293 1150 293 1102 c 2,60,-1
 293 922 l 2,61,62
 293 874 293 874 311 832.5 c 128,-1,63
 329 791 329 791 360 759.5 c 128,-1,64
 391 728 391 728 432.5 710 c 128,-1,65
 474 692 474 692 522 692 c 2,66,-1
 571 692 l 2,67,68
 619 692 619 692 660.5 710 c 128,-1,69
 702 728 702 728 733.5 759.5 c 128,-1,70
 765 791 765 791 783 832.5 c 128,-1,71
 801 874 801 874 801 922 c 2,72,-1
 801 1102 l 2,49,50
EndSplineSet
EndChar

StartChar: colon
Encoding: 58 58 29
Width: 440
Flags: W
LayerCount: 2
Fore
SplineSet
143 870 m 1,0,-1
 143 1024 l 1,1,-1
 297 1024 l 1,2,-1
 297 870 l 1,3,-1
 143 870 l 1,0,-1
143 0 m 1,4,-1
 143 154 l 1,5,-1
 297 154 l 1,6,-1
 297 0 l 1,7,-1
 143 0 l 1,4,-1
EndSplineSet
EndChar

StartChar: semicolon
Encoding: 59 59 30
Width: 440
Flags: W
LayerCount: 2
Fore
SplineSet
143 870 m 1,0,-1
 143 1024 l 1,1,-1
 297 1024 l 1,2,-1
 297 870 l 1,3,-1
 143 870 l 1,0,-1
195 -287 m 1,4,-1
 143 -287 l 1,5,-1
 143 154 l 1,6,-1
 297 154 l 1,7,-1
 195 -287 l 1,4,-1
EndSplineSet
EndChar

StartChar: less
Encoding: 60 60 31
Width: 1249
Flags: W
LayerCount: 2
Fore
SplineSet
1126 1247 m 1,0,-1
 1126 1106 l 1,1,-1
 248 717 l 1,2,-1
 1126 330 l 1,3,-1
 1126 188 l 1,4,-1
 102 645 l 1,5,-1
 102 791 l 1,6,-1
 1126 1247 l 1,0,-1
EndSplineSet
EndChar

StartChar: equal
Encoding: 61 61 32
Width: 1352
Flags: W
LayerCount: 2
Fore
SplineSet
1188 973 m 1,0,-1
 1188 844 l 1,1,-1
 164 844 l 1,2,-1
 164 973 l 1,3,-1
 1188 973 l 1,0,-1
1188 592 m 1,4,-1
 1188 463 l 1,5,-1
 164 463 l 1,6,-1
 164 592 l 1,7,-1
 1188 592 l 1,4,-1
EndSplineSet
EndChar

StartChar: greater
Encoding: 62 62 33
Width: 1249
Flags: W
LayerCount: 2
Fore
SplineSet
999 717 m 1,0,-1
 123 1106 l 1,1,-1
 123 1247 l 1,2,-1
 1147 791 l 1,3,-1
 1147 645 l 1,4,-1
 123 188 l 1,5,-1
 123 330 l 1,6,-1
 999 717 l 1,0,-1
EndSplineSet
EndChar

StartChar: question
Encoding: 63 63 34
Width: 950
Flags: W
LayerCount: 2
Fore
SplineSet
332 0 m 1,0,-1
 332 154 l 1,1,-1
 485 154 l 1,2,-1
 485 0 l 1,3,-1
 332 0 l 1,0,-1
473 434 m 1,4,-1
 344 434 l 1,5,-1
 344 473 l 2,6,7
 344 539 344 539 360 588 c 128,-1,8
 376 637 376 637 402.5 674 c 128,-1,9
 429 711 429 711 462.5 740 c 128,-1,10
 496 769 496 769 531.5 795.5 c 128,-1,11
 567 822 567 822 600.5 849 c 128,-1,12
 634 876 634 876 660.5 909 c 128,-1,13
 687 942 687 942 703 984 c 128,-1,14
 719 1026 719 1026 719 1083 c 2,15,-1
 719 1102 l 2,16,17
 719 1150 719 1150 701 1191.5 c 128,-1,18
 683 1233 683 1233 651.5 1264 c 128,-1,19
 620 1295 620 1295 578.5 1313 c 128,-1,20
 537 1331 537 1331 489 1331 c 2,21,-1
 461 1331 l 2,22,23
 413 1331 413 1331 371.5 1313 c 128,-1,24
 330 1295 330 1295 298.5 1264 c 128,-1,25
 267 1233 267 1233 249 1191.5 c 128,-1,26
 231 1150 231 1150 231 1102 c 2,27,-1
 231 1044 l 1,28,-1
 102 1065 l 1,29,-1
 102 1102 l 2,30,31
 102 1175 102 1175 129.5 1239 c 128,-1,32
 157 1303 157 1303 205 1351 c 128,-1,33
 253 1399 253 1399 317.5 1426.5 c 128,-1,34
 382 1454 382 1454 455 1454 c 2,35,-1
 496 1454 l 2,36,37
 569 1454 569 1454 633 1426.5 c 128,-1,38
 697 1399 697 1399 745 1351 c 128,-1,39
 793 1303 793 1303 820.5 1239 c 128,-1,40
 848 1175 848 1175 848 1102 c 2,41,-1
 848 1083 l 2,42,43
 848 1014 848 1014 832 962 c 128,-1,44
 816 910 816 910 789.5 870 c 128,-1,45
 763 830 763 830 729.5 799 c 128,-1,46
 696 768 696 768 660.5 741 c 128,-1,47
 625 714 625 714 591.5 688 c 128,-1,48
 558 662 558 662 531.5 631 c 128,-1,49
 505 600 505 600 489 562 c 128,-1,50
 473 524 473 524 473 473 c 2,51,-1
 473 434 l 1,4,-1
EndSplineSet
EndChar

StartChar: at
Encoding: 64 64 35
Width: 2046
Flags: W
LayerCount: 2
Fore
SplineSet
1305 254 m 2,0,1
 1291 154 1291 154 1330.5 106.5 c 128,-1,2
 1370 59 1370 59 1454 59 c 0,3,4
 1515 59 1515 59 1573 103 c 128,-1,5
 1631 147 1631 147 1676 225.5 c 128,-1,6
 1721 304 1721 304 1748.5 412.5 c 128,-1,7
 1776 521 1776 521 1776 649 c 0,8,9
 1776 796 1776 796 1732.5 922 c 128,-1,10
 1689 1048 1689 1048 1606.5 1139.5 c 128,-1,11
 1524 1231 1524 1231 1403.5 1283 c 128,-1,12
 1283 1335 1283 1335 1128 1335 c 0,13,14
 1005 1335 1005 1335 894 1300 c 128,-1,15
 783 1265 783 1265 687.5 1202 c 128,-1,16
 592 1139 592 1139 515 1051.5 c 128,-1,17
 438 964 438 964 383.5 858 c 128,-1,18
 329 752 329 752 299.5 632 c 128,-1,19
 270 512 270 512 270 383 c 0,20,21
 270 236 270 236 310 109 c 128,-1,22
 350 -18 350 -18 429 -111.5 c 128,-1,23
 508 -205 508 -205 624.5 -258 c 128,-1,24
 741 -311 741 -311 895 -311 c 0,25,26
 951 -311 951 -311 1004.5 -303.5 c 128,-1,27
 1058 -296 1058 -296 1106 -284 c 128,-1,28
 1154 -272 1154 -272 1194.5 -256 c 128,-1,29
 1235 -240 1235 -240 1264 -223 c 1,30,-1
 1305 -317 l 1,31,32
 1257 -346 1257 -346 1203 -367.5 c 128,-1,33
 1149 -389 1149 -389 1093.5 -403 c 128,-1,34
 1038 -417 1038 -417 983.5 -423.5 c 128,-1,35
 929 -430 929 -430 879 -430 c 0,36,37
 702 -430 702 -430 565 -369 c 128,-1,38
 428 -308 428 -308 334.5 -201 c 128,-1,39
 241 -94 241 -94 192 51.5 c 128,-1,40
 143 197 143 197 143 367 c 0,41,42
 143 513 143 513 178 650.5 c 128,-1,43
 213 788 213 788 277.5 909 c 128,-1,44
 342 1030 342 1030 433 1130 c 128,-1,45
 524 1230 524 1230 635 1302 c 128,-1,46
 746 1374 746 1374 875 1414 c 128,-1,47
 1004 1454 1004 1454 1145 1454 c 0,48,49
 1322 1454 1322 1454 1462.5 1394 c 128,-1,50
 1603 1334 1603 1334 1701 1228.5 c 128,-1,51
 1799 1123 1799 1123 1851 979 c 128,-1,52
 1903 835 1903 835 1903 666 c 0,53,54
 1903 585 1903 585 1890 500.5 c 128,-1,55
 1877 416 1877 416 1851 336 c 128,-1,56
 1825 256 1825 256 1786 186 c 128,-1,57
 1747 116 1747 116 1694.5 63 c 128,-1,58
 1642 10 1642 10 1576 -20.5 c 128,-1,59
 1510 -51 1510 -51 1430 -51 c 0,60,61
 1375 -51 1375 -51 1334 -39 c 128,-1,62
 1293 -27 1293 -27 1262.5 -6.5 c 128,-1,63
 1232 14 1232 14 1210.5 42.5 c 128,-1,64
 1189 71 1189 71 1174 104 c 1,65,66
 1123 47 1123 47 1055 13.5 c 128,-1,67
 987 -20 987 -20 911 -20 c 2,68,-1
 881 -20 l 2,69,70
 824 -20 824 -20 776.5 0 c 128,-1,71
 729 20 729 20 694.5 54.5 c 128,-1,72
 660 89 660 89 640.5 136 c 128,-1,73
 621 183 621 183 621 238 c 0,74,75
 621 249 621 249 621 259.5 c 128,-1,76
 621 270 621 270 623 281 c 2,77,-1
 686 743 l 2,78,79
 695 805 695 805 726.5 860 c 128,-1,80
 758 915 758 915 805 956 c 128,-1,81
 852 997 852 997 910.5 1020.5 c 128,-1,82
 969 1044 969 1044 1030 1044 c 2,83,-1
 1061 1044 l 2,84,85
 1136 1044 1136 1044 1195 1010.5 c 128,-1,86
 1254 977 1254 977 1286 920 c 1,87,-1
 1370 1024 l 1,88,-1
 1411 1024 l 1,89,-1
 1305 254 l 2,0,1
743 274 m 2,90,91
 743 268 743 268 742 262 c 128,-1,92
 741 256 741 256 741 250 c 0,93,94
 741 217 741 217 752.5 189 c 128,-1,95
 764 161 764 161 785 140 c 128,-1,96
 806 119 806 119 834.5 107.5 c 128,-1,97
 863 96 863 96 897 96 c 2,98,-1
 979 96 l 2,99,100
 1016 96 1016 96 1050 110 c 128,-1,101
 1084 124 1084 124 1111.5 148 c 128,-1,102
 1139 172 1139 172 1157.5 204.5 c 128,-1,103
 1176 237 1176 237 1182 274 c 2,104,-1
 1249 750 l 1,105,106
 1251 756 1251 756 1251 763 c 128,-1,107
 1251 770 1251 770 1251 776 c 0,108,109
 1251 808 1251 808 1239.5 836 c 128,-1,110
 1228 864 1228 864 1207.5 884.5 c 128,-1,111
 1187 905 1187 905 1158.5 916.5 c 128,-1,112
 1130 928 1130 928 1096 928 c 2,113,-1
 1014 928 l 2,114,115
 977 928 977 928 942.5 914 c 128,-1,116
 908 900 908 900 880.5 876 c 128,-1,117
 853 852 853 852 834.5 819.5 c 128,-1,118
 816 787 816 787 811 750 c 2,119,-1
 743 274 l 2,90,91
EndSplineSet
EndChar

StartChar: A
Encoding: 65 65 36
Width: 950
Flags: W
LayerCount: 2
Fore
SplineSet
702 334 m 1,0,-1
 248 334 l 1,1,-1
 154 0 l 1,2,-1
 20 0 l 1,3,-1
 440 1434 l 1,4,-1
 508 1434 l 1,5,-1
 930 0 l 1,6,-1
 797 0 l 1,7,-1
 702 334 l 1,0,-1
283 457 m 1,8,-1
 668 457 l 1,9,-1
 479 1118 l 1,10,-1
 475 1171 l 1,11,-1
 471 1118 l 1,12,-1
 283 457 l 1,8,-1
EndSplineSet
EndChar

StartChar: B
Encoding: 66 66 37
Width: 1053
Flags: W
LayerCount: 2
Fore
SplineSet
971 352 m 1,0,1
 971 279 971 279 943.5 215 c 128,-1,2
 916 151 916 151 868 103 c 128,-1,3
 820 55 820 55 755.5 27.5 c 128,-1,4
 691 0 691 0 618 0 c 2,5,-1
 164 0 l 1,6,-1
 164 1434 l 1,7,-1
 618 1434 l 2,8,9
 691 1434 691 1434 755.5 1406.5 c 128,-1,10
 820 1379 820 1379 868 1331 c 128,-1,11
 916 1283 916 1283 943.5 1218.5 c 128,-1,12
 971 1154 971 1154 971 1081 c 2,13,-1
 971 1067 l 2,14,15
 971 1016 971 1016 957.5 969.5 c 128,-1,16
 944 923 944 923 919 883 c 128,-1,17
 894 843 894 843 860 810.5 c 128,-1,18
 826 778 826 778 784 756 c 1,19,20
 826 734 826 734 860 701.5 c 128,-1,21
 894 669 894 669 919 628.5 c 128,-1,22
 944 588 944 588 957.5 541.5 c 128,-1,23
 971 495 971 495 971 444 c 2,24,-1
 971 352 l 1,25,-1
 971 352 l 1,0,1
842 465 m 2,26,27
 842 513 842 513 824 554.5 c 128,-1,28
 806 596 806 596 774.5 627 c 128,-1,29
 743 658 743 658 701.5 676 c 128,-1,30
 660 694 660 694 612 694 c 2,31,-1
 293 694 l 1,32,-1
 293 123 l 1,33,-1
 612 123 l 2,34,35
 660 123 660 123 701.5 141 c 128,-1,36
 743 159 743 159 774.5 190 c 128,-1,37
 806 221 806 221 824 262.5 c 128,-1,38
 842 304 842 304 842 352 c 2,39,-1
 842 465 l 2,26,27
842 1081 m 2,40,41
 842 1129 842 1129 824 1170.5 c 128,-1,42
 806 1212 806 1212 774.5 1243.5 c 128,-1,43
 743 1275 743 1275 701.5 1293 c 128,-1,44
 660 1311 660 1311 612 1311 c 2,45,-1
 293 1311 l 1,46,-1
 293 817 l 1,47,-1
 612 817 l 2,48,49
 660 817 660 817 701.5 835 c 128,-1,50
 743 853 743 853 774.5 884.5 c 128,-1,51
 806 916 806 916 824 957.5 c 128,-1,52
 842 999 842 999 842 1047 c 2,53,-1
 842 1081 l 2,40,41
EndSplineSet
EndChar

StartChar: C
Encoding: 67 67 38
Width: 1073
Flags: W
LayerCount: 2
Fore
SplineSet
950 332 m 1,0,1
 950 259 950 259 922.5 195 c 128,-1,2
 895 131 895 131 847 83 c 128,-1,3
 799 35 799 35 735 7.5 c 128,-1,4
 671 -20 671 -20 598 -20 c 2,5,-1
 496 -20 l 2,6,7
 423 -20 423 -20 358.5 7.5 c 128,-1,8
 294 35 294 35 246 83 c 128,-1,9
 198 131 198 131 170.5 195 c 128,-1,10
 143 259 143 259 143 332 c 2,11,-1
 143 1102 l 2,12,13
 143 1175 143 1175 170.5 1239 c 128,-1,14
 198 1303 198 1303 246 1351 c 128,-1,15
 294 1399 294 1399 358.5 1426.5 c 128,-1,16
 423 1454 423 1454 496 1454 c 2,17,-1
 598 1454 l 2,18,19
 671 1454 671 1454 735 1426.5 c 128,-1,20
 799 1399 799 1399 847 1351 c 128,-1,21
 895 1303 895 1303 922.5 1239 c 128,-1,22
 950 1175 950 1175 950 1102 c 2,23,-1
 950 1044 l 1,24,-1
 821 1024 l 1,25,-1
 821 1102 l 2,26,27
 821 1150 821 1150 803 1191.5 c 128,-1,28
 785 1233 785 1233 754 1264 c 128,-1,29
 723 1295 723 1295 681.5 1313 c 128,-1,30
 640 1331 640 1331 592 1331 c 2,31,-1
 502 1331 l 2,32,33
 454 1331 454 1331 412.5 1313 c 128,-1,34
 371 1295 371 1295 339.5 1264 c 128,-1,35
 308 1233 308 1233 290 1191.5 c 128,-1,36
 272 1150 272 1150 272 1102 c 2,37,-1
 272 332 l 2,38,39
 272 284 272 284 290 242.5 c 128,-1,40
 308 201 308 201 339.5 169.5 c 128,-1,41
 371 138 371 138 412.5 120 c 128,-1,42
 454 102 454 102 502 102 c 2,43,-1
 592 102 l 2,44,45
 640 102 640 102 681.5 120 c 128,-1,46
 723 138 723 138 754 169.5 c 128,-1,47
 785 201 785 201 803 242.5 c 128,-1,48
 821 284 821 284 821 332 c 2,49,-1
 821 410 l 1,50,-1
 950 389 l 1,51,-1
 950 332 l 1,52,-1
 950 332 l 1,0,1
EndSplineSet
EndChar

StartChar: D
Encoding: 68 68 39
Width: 1114
Flags: W
LayerCount: 2
Fore
SplineSet
971 352 m 1,0,1
 971 279 971 279 943.5 215 c 128,-1,2
 916 151 916 151 868 103 c 128,-1,3
 820 55 820 55 755.5 27.5 c 128,-1,4
 691 0 691 0 618 0 c 2,5,-1
 164 0 l 1,6,-1
 164 1434 l 1,7,-1
 618 1434 l 2,8,9
 691 1434 691 1434 755.5 1406.5 c 128,-1,10
 820 1379 820 1379 868 1331 c 128,-1,11
 916 1283 916 1283 943.5 1218.5 c 128,-1,12
 971 1154 971 1154 971 1081 c 2,13,-1
 971 352 l 1,14,-1
 971 352 l 1,0,1
842 1081 m 2,15,16
 842 1129 842 1129 824 1170.5 c 128,-1,17
 806 1212 806 1212 774.5 1243.5 c 128,-1,18
 743 1275 743 1275 701.5 1293 c 128,-1,19
 660 1311 660 1311 612 1311 c 2,20,-1
 293 1311 l 1,21,-1
 293 123 l 1,22,-1
 612 123 l 2,23,24
 660 123 660 123 701.5 141 c 128,-1,25
 743 159 743 159 774.5 190 c 128,-1,26
 806 221 806 221 824 262.5 c 128,-1,27
 842 304 842 304 842 352 c 2,28,-1
 842 1081 l 2,15,16
EndSplineSet
EndChar

StartChar: E
Encoding: 69 69 40
Width: 1053
Flags: W
LayerCount: 2
Fore
SplineSet
164 0 m 1,0,-1
 164 1434 l 1,1,-1
 971 1434 l 1,2,-1
 971 1311 l 1,3,-1
 293 1311 l 1,4,-1
 293 778 l 1,5,-1
 842 778 l 1,6,-1
 842 655 l 1,7,-1
 293 655 l 1,8,-1
 293 123 l 1,9,-1
 971 123 l 1,10,-1
 971 0 l 1,11,-1
 164 0 l 1,0,-1
EndSplineSet
EndChar

StartChar: F
Encoding: 70 70 41
Width: 1012
Flags: W
LayerCount: 2
Fore
SplineSet
293 1311 m 1,0,-1
 293 778 l 1,1,-1
 842 778 l 1,2,-1
 842 655 l 1,3,-1
 293 655 l 1,4,-1
 293 0 l 1,5,-1
 164 0 l 1,6,-1
 164 1434 l 1,7,-1
 971 1434 l 1,8,-1
 971 1311 l 1,9,-1
 293 1311 l 1,0,-1
EndSplineSet
EndChar

StartChar: G
Encoding: 71 71 42
Width: 1094
Flags: W
LayerCount: 2
Fore
SplineSet
950 0 m 1,0,-1
 909 0 l 1,1,-1
 834 115 l 1,2,3
 787 53 787 53 720 16.5 c 128,-1,4
 653 -20 653 -20 571 -20 c 2,5,-1
 496 -20 l 2,6,7
 423 -20 423 -20 358.5 7.5 c 128,-1,8
 294 35 294 35 246 83 c 128,-1,9
 198 131 198 131 170.5 195 c 128,-1,10
 143 259 143 259 143 332 c 2,11,-1
 143 1102 l 2,12,13
 143 1175 143 1175 170.5 1239 c 128,-1,14
 198 1303 198 1303 246 1351 c 128,-1,15
 294 1399 294 1399 358.5 1426.5 c 128,-1,16
 423 1454 423 1454 496 1454 c 2,17,-1
 598 1454 l 2,18,19
 671 1454 671 1454 735 1426.5 c 128,-1,20
 799 1399 799 1399 847 1351 c 128,-1,21
 895 1303 895 1303 922.5 1239 c 128,-1,22
 950 1175 950 1175 950 1102 c 2,23,-1
 950 1044 l 1,24,-1
 821 1024 l 1,25,-1
 821 1102 l 2,26,27
 821 1150 821 1150 803 1191.5 c 128,-1,28
 785 1233 785 1233 754 1264 c 128,-1,29
 723 1295 723 1295 681.5 1313 c 128,-1,30
 640 1331 640 1331 592 1331 c 2,31,-1
 502 1331 l 2,32,33
 454 1331 454 1331 412.5 1313 c 128,-1,34
 371 1295 371 1295 339.5 1264 c 128,-1,35
 308 1233 308 1233 290 1191.5 c 128,-1,36
 272 1150 272 1150 272 1102 c 2,37,-1
 272 332 l 2,38,39
 272 284 272 284 290 242.5 c 128,-1,40
 308 201 308 201 339.5 169.5 c 128,-1,41
 371 138 371 138 412.5 120 c 128,-1,42
 454 102 454 102 502 102 c 2,43,-1
 592 102 l 2,44,45
 640 102 640 102 681.5 120 c 128,-1,46
 723 138 723 138 754 169.5 c 128,-1,47
 785 201 785 201 803 242.5 c 128,-1,48
 821 284 821 284 821 332 c 2,49,-1
 821 631 l 1,50,-1
 592 631 l 1,51,-1
 592 754 l 1,52,-1
 950 754 l 1,53,-1
 950 0 l 1,0,-1
EndSplineSet
EndChar

StartChar: H
Encoding: 72 72 43
Width: 1135
Flags: W
LayerCount: 2
Fore
SplineSet
842 0 m 1,0,-1
 842 655 l 1,1,-1
 293 655 l 1,2,-1
 293 0 l 1,3,-1
 164 0 l 1,4,-1
 164 1434 l 1,5,-1
 293 1434 l 1,6,-1
 293 778 l 1,7,-1
 842 778 l 1,8,-1
 842 1434 l 1,9,-1
 971 1434 l 1,10,-1
 971 0 l 1,11,-1
 842 0 l 1,0,-1
EndSplineSet
EndChar

StartChar: I
Encoding: 73 73 44
Width: 457
Flags: W
LayerCount: 2
Fore
SplineSet
164 0 m 1,0,-1
 164 1434 l 1,1,-1
 293 1434 l 1,2,-1
 293 0 l 1,3,-1
 164 0 l 1,0,-1
EndSplineSet
EndChar

StartChar: J
Encoding: 74 74 45
Width: 930
Flags: W
LayerCount: 2
Fore
SplineSet
807 332 m 1,0,1
 807 259 807 259 779.5 195 c 128,-1,2
 752 131 752 131 704 83 c 128,-1,3
 656 35 656 35 592 7.5 c 128,-1,4
 528 -20 528 -20 455 -20 c 2,5,-1
 414 -20 l 2,6,7
 341 -20 341 -20 276.5 7.5 c 128,-1,8
 212 35 212 35 164 83 c 128,-1,9
 116 131 116 131 88.5 195 c 128,-1,10
 61 259 61 259 61 332 c 2,11,-1
 61 389 l 1,12,-1
 190 410 l 1,13,-1
 190 332 l 2,14,15
 190 284 190 284 208 242.5 c 128,-1,16
 226 201 226 201 257.5 169.5 c 128,-1,17
 289 138 289 138 330.5 120 c 128,-1,18
 372 102 372 102 420 102 c 2,19,-1
 449 102 l 2,20,21
 496 102 496 102 538 120 c 128,-1,22
 580 138 580 138 611 169.5 c 128,-1,23
 642 201 642 201 660 242.5 c 128,-1,24
 678 284 678 284 678 332 c 2,25,-1
 678 1434 l 1,26,-1
 807 1434 l 1,27,-1
 807 332 l 1,28,-1
 807 332 l 1,0,1
EndSplineSet
EndChar

StartChar: K
Encoding: 75 75 46
Width: 1065
Flags: W
LayerCount: 2
Fore
SplineSet
864 0 m 1,0,-1
 324 717 l 1,1,-1
 864 1434 l 1,2,-1
 1024 1434 l 1,3,-1
 473 717 l 1,4,-1
 1024 0 l 1,5,-1
 864 0 l 1,0,-1
164 0 m 1,6,-1
 164 1434 l 1,7,-1
 293 1434 l 1,8,-1
 293 0 l 1,9,-1
 164 0 l 1,6,-1
EndSplineSet
EndChar

StartChar: L
Encoding: 76 76 47
Width: 862
Flags: W
LayerCount: 2
Fore
SplineSet
143 0 m 1,0,-1
 143 1434 l 1,1,-1
 272 1434 l 1,2,-1
 272 123 l 1,3,-1
 821 123 l 1,4,-1
 821 0 l 1,5,-1
 143 0 l 1,0,-1
EndSplineSet
EndChar

StartChar: M
Encoding: 77 77 48
Width: 1339
Flags: W
LayerCount: 2
Fore
SplineSet
1047 0 m 1,0,-1
 1047 983 l 1,1,-1
 1038 922 l 1,2,-1
 705 0 l 1,3,-1
 637 0 l 1,4,-1
 301 922 l 1,5,-1
 293 983 l 1,6,-1
 293 0 l 1,7,-1
 164 0 l 1,8,-1
 164 1434 l 1,9,-1
 231 1434 l 1,10,-1
 666 258 l 1,11,-1
 670 205 l 1,12,-1
 674 258 l 1,13,-1
 1108 1434 l 1,14,-1
 1176 1434 l 1,15,-1
 1176 0 l 1,16,-1
 1047 0 l 1,0,-1
EndSplineSet
EndChar

StartChar: N
Encoding: 78 78 49
Width: 1135
Flags: W
LayerCount: 2
Fore
SplineSet
903 0 m 1,0,-1
 305 1044 l 1,1,-1
 293 1106 l 1,2,-1
 293 0 l 1,3,-1
 164 0 l 1,4,-1
 164 1434 l 1,5,-1
 231 1434 l 1,6,-1
 829 389 l 1,7,-1
 842 328 l 1,8,-1
 842 1434 l 1,9,-1
 971 1434 l 1,10,-1
 971 0 l 1,11,-1
 903 0 l 1,0,-1
EndSplineSet
EndChar

StartChar: O
Encoding: 79 79 50
Width: 1094
Flags: W
LayerCount: 2
Fore
SplineSet
950 332 m 1,0,1
 950 259 950 259 922.5 195 c 128,-1,2
 895 131 895 131 847 83 c 128,-1,3
 799 35 799 35 735 7.5 c 128,-1,4
 671 -20 671 -20 598 -20 c 2,5,-1
 496 -20 l 2,6,7
 423 -20 423 -20 358.5 7.5 c 128,-1,8
 294 35 294 35 246 83 c 128,-1,9
 198 131 198 131 170.5 195 c 128,-1,10
 143 259 143 259 143 332 c 2,11,-1
 143 1102 l 2,12,13
 143 1175 143 1175 170.5 1239 c 128,-1,14
 198 1303 198 1303 246 1351 c 128,-1,15
 294 1399 294 1399 358.5 1426.5 c 128,-1,16
 423 1454 423 1454 496 1454 c 2,17,-1
 598 1454 l 2,18,19
 671 1454 671 1454 735 1426.5 c 128,-1,20
 799 1399 799 1399 847 1351 c 128,-1,21
 895 1303 895 1303 922.5 1239 c 128,-1,22
 950 1175 950 1175 950 1102 c 2,23,-1
 950 332 l 1,24,-1
 950 332 l 1,0,1
821 1102 m 2,25,26
 821 1150 821 1150 803 1191.5 c 128,-1,27
 785 1233 785 1233 754 1264 c 128,-1,28
 723 1295 723 1295 681.5 1313 c 128,-1,29
 640 1331 640 1331 592 1331 c 2,30,-1
 502 1331 l 2,31,32
 454 1331 454 1331 412.5 1313 c 128,-1,33
 371 1295 371 1295 339.5 1264 c 128,-1,34
 308 1233 308 1233 290 1191.5 c 128,-1,35
 272 1150 272 1150 272 1102 c 2,36,-1
 272 332 l 2,37,38
 272 284 272 284 290 242.5 c 128,-1,39
 308 201 308 201 339.5 169.5 c 128,-1,40
 371 138 371 138 412.5 120 c 128,-1,41
 454 102 454 102 502 102 c 2,42,-1
 592 102 l 2,43,44
 640 102 640 102 681.5 120 c 128,-1,45
 723 138 723 138 754 169.5 c 128,-1,46
 785 201 785 201 803 242.5 c 128,-1,47
 821 284 821 284 821 332 c 2,48,-1
 821 1102 l 2,25,26
EndSplineSet
EndChar

StartChar: P
Encoding: 80 80 51
Width: 1053
Flags: W
LayerCount: 2
Fore
SplineSet
971 903 m 1,0,1
 971 830 971 830 943.5 766 c 128,-1,2
 916 702 916 702 868 654 c 128,-1,3
 820 606 820 606 755.5 578.5 c 128,-1,4
 691 551 691 551 618 551 c 2,5,-1
 293 551 l 1,6,-1
 293 0 l 1,7,-1
 164 0 l 1,8,-1
 164 1434 l 1,9,-1
 618 1434 l 2,10,11
 691 1434 691 1434 755.5 1406.5 c 128,-1,12
 820 1379 820 1379 868 1331 c 128,-1,13
 916 1283 916 1283 943.5 1218.5 c 128,-1,14
 971 1154 971 1154 971 1081 c 2,15,-1
 971 903 l 1,16,-1
 971 903 l 1,0,1
842 1081 m 2,17,18
 842 1129 842 1129 824 1170.5 c 128,-1,19
 806 1212 806 1212 774.5 1243.5 c 128,-1,20
 743 1275 743 1275 701.5 1293 c 128,-1,21
 660 1311 660 1311 612 1311 c 2,22,-1
 293 1311 l 1,23,-1
 293 674 l 1,24,-1
 612 674 l 2,25,26
 660 674 660 674 701.5 692 c 128,-1,27
 743 710 743 710 774.5 741 c 128,-1,28
 806 772 806 772 824 813.5 c 128,-1,29
 842 855 842 855 842 903 c 2,30,-1
 842 1081 l 2,17,18
EndSplineSet
EndChar

StartChar: Q
Encoding: 81 81 52
Width: 1094
Flags: W
LayerCount: 2
Fore
SplineSet
950 332 m 1,0,1
 950 262 950 262 925 200 c 128,-1,2
 900 138 900 138 856 91 c 128,-1,3
 812 44 812 44 752.5 14.5 c 128,-1,4
 693 -15 693 -15 625 -20 c 1,5,-1
 756 -315 l 1,6,-1
 627 -315 l 1,7,-1
 496 -20 l 1,8,9
 423 -20 423 -20 358.5 7.5 c 128,-1,10
 294 35 294 35 246 83 c 128,-1,11
 198 131 198 131 170.5 195 c 128,-1,12
 143 259 143 259 143 332 c 2,13,-1
 143 1102 l 2,14,15
 143 1175 143 1175 170.5 1239 c 128,-1,16
 198 1303 198 1303 246 1351 c 128,-1,17
 294 1399 294 1399 358.5 1426.5 c 128,-1,18
 423 1454 423 1454 496 1454 c 2,19,-1
 598 1454 l 2,20,21
 671 1454 671 1454 735 1426.5 c 128,-1,22
 799 1399 799 1399 847 1351 c 128,-1,23
 895 1303 895 1303 922.5 1239 c 128,-1,24
 950 1175 950 1175 950 1102 c 2,25,-1
 950 332 l 1,26,-1
 950 332 l 1,0,1
821 1102 m 2,27,28
 821 1150 821 1150 803 1191.5 c 128,-1,29
 785 1233 785 1233 754 1264 c 128,-1,30
 723 1295 723 1295 681.5 1313 c 128,-1,31
 640 1331 640 1331 592 1331 c 2,32,-1
 502 1331 l 2,33,34
 454 1331 454 1331 412.5 1313 c 128,-1,35
 371 1295 371 1295 339.5 1264 c 128,-1,36
 308 1233 308 1233 290 1191.5 c 128,-1,37
 272 1150 272 1150 272 1102 c 2,38,-1
 272 332 l 2,39,40
 272 284 272 284 290 242.5 c 128,-1,41
 308 201 308 201 339.5 169.5 c 128,-1,42
 371 138 371 138 412.5 120 c 128,-1,43
 454 102 454 102 502 102 c 2,44,-1
 592 102 l 2,45,46
 640 102 640 102 681.5 120 c 128,-1,47
 723 138 723 138 754 169.5 c 128,-1,48
 785 201 785 201 803 242.5 c 128,-1,49
 821 284 821 284 821 332 c 2,50,-1
 821 1102 l 2,27,28
EndSplineSet
EndChar

StartChar: R
Encoding: 82 82 53
Width: 1069
Flags: W
LayerCount: 2
Fore
SplineSet
838 0 m 1,0,-1
 449 612 l 1,1,-1
 272 612 l 1,2,-1
 272 0 l 1,3,-1
 143 0 l 1,4,-1
 143 1434 l 1,5,-1
 598 1434 l 2,6,7
 671 1434 671 1434 735 1406.5 c 128,-1,8
 799 1379 799 1379 847 1331 c 128,-1,9
 895 1283 895 1283 922.5 1218.5 c 128,-1,10
 950 1154 950 1154 950 1081 c 2,11,-1
 950 965 l 2,12,13
 950 892 950 892 922.5 827.5 c 128,-1,14
 895 763 895 763 847 715 c 128,-1,15
 799 667 799 667 735 639.5 c 128,-1,16
 671 612 671 612 598 612 c 1,17,-1
 987 0 l 1,18,-1
 838 0 l 1,0,-1
821 1081 m 2,19,20
 821 1129 821 1129 803 1170.5 c 128,-1,21
 785 1212 785 1212 754 1243.5 c 128,-1,22
 723 1275 723 1275 681.5 1293 c 128,-1,23
 640 1311 640 1311 592 1311 c 2,24,-1
 272 1311 l 1,25,-1
 272 735 l 1,26,-1
 592 735 l 2,27,28
 640 735 640 735 681.5 753 c 128,-1,29
 723 771 723 771 754 802.5 c 128,-1,30
 785 834 785 834 803 875.5 c 128,-1,31
 821 917 821 917 821 965 c 2,32,-1
 821 1081 l 2,19,20
EndSplineSet
EndChar

StartChar: S
Encoding: 83 83 54
Width: 1063
Flags: W
LayerCount: 2
Fore
SplineSet
950 332 m 2,0,1
 950 259 950 259 920.5 195 c 128,-1,2
 891 131 891 131 841.5 83 c 128,-1,3
 792 35 792 35 726.5 7.5 c 128,-1,4
 661 -20 661 -20 588 -20 c 2,5,-1
 485 -20 l 2,6,7
 412 -20 412 -20 346.5 7.5 c 128,-1,8
 281 35 281 35 231.5 83 c 128,-1,9
 182 131 182 131 152.5 195 c 128,-1,10
 123 259 123 259 123 332 c 2,11,-1
 123 389 l 1,12,-1
 252 410 l 1,13,-1
 252 332 l 2,14,15
 252 284 252 284 271.5 242.5 c 128,-1,16
 291 201 291 201 324 169.5 c 128,-1,17
 357 138 357 138 400.5 120 c 128,-1,18
 444 102 444 102 492 102 c 2,19,-1
 582 102 l 2,20,21
 630 102 630 102 673 120 c 128,-1,22
 716 138 716 138 749 169.5 c 128,-1,23
 782 201 782 201 801.5 242.5 c 128,-1,24
 821 284 821 284 821 332 c 2,25,-1
 821 375 l 2,26,27
 821 449 821 449 792 498 c 128,-1,28
 763 547 763 547 715 581.5 c 128,-1,29
 667 616 667 616 606.5 640 c 128,-1,30
 546 664 546 664 482 688 c 128,-1,31
 418 712 418 712 357.5 741 c 128,-1,32
 297 770 297 770 249 813.5 c 128,-1,33
 201 857 201 857 172 920 c 128,-1,34
 143 983 143 983 143 1075 c 2,35,-1
 143 1102 l 2,36,37
 143 1175 143 1175 170.5 1239 c 128,-1,38
 198 1303 198 1303 246 1351 c 128,-1,39
 294 1399 294 1399 358.5 1426.5 c 128,-1,40
 423 1454 423 1454 496 1454 c 2,41,-1
 588 1454 l 2,42,43
 661 1454 661 1454 725 1426.5 c 128,-1,44
 789 1399 789 1399 837 1351 c 128,-1,45
 885 1303 885 1303 912.5 1239 c 128,-1,46
 940 1175 940 1175 940 1102 c 2,47,-1
 940 1065 l 1,48,-1
 811 1044 l 1,49,-1
 811 1102 l 2,50,51
 811 1150 811 1150 793 1191.5 c 128,-1,52
 775 1233 775 1233 744 1264 c 128,-1,53
 713 1295 713 1295 671.5 1313 c 128,-1,54
 630 1331 630 1331 582 1331 c 2,55,-1
 502 1331 l 2,56,57
 454 1331 454 1331 412.5 1313 c 128,-1,58
 371 1295 371 1295 339.5 1264 c 128,-1,59
 308 1233 308 1233 290 1191.5 c 128,-1,60
 272 1150 272 1150 272 1102 c 2,61,-1
 272 1075 l 2,62,63
 272 1006 272 1006 301 959 c 128,-1,64
 330 912 330 912 378 878.5 c 128,-1,65
 426 845 426 845 486.5 820.5 c 128,-1,66
 547 796 547 796 611 770.5 c 128,-1,67
 675 745 675 745 735.5 714.5 c 128,-1,68
 796 684 796 684 844 639.5 c 128,-1,69
 892 595 892 595 921 531 c 128,-1,70
 950 467 950 467 950 375 c 2,71,-1
 950 332 l 2,0,1
EndSplineSet
EndChar

StartChar: T
Encoding: 84 84 55
Width: 895
Flags: W
LayerCount: 2
Fore
SplineSet
512 1311 m 1,0,-1
 512 0 l 1,1,-1
 383 0 l 1,2,-1
 383 1311 l 1,3,-1
 41 1311 l 1,4,-1
 41 1434 l 1,5,-1
 854 1434 l 1,6,-1
 854 1311 l 1,7,-1
 512 1311 l 1,0,-1
EndSplineSet
EndChar

StartChar: U
Encoding: 85 85 56
Width: 1094
Flags: W
LayerCount: 2
Fore
SplineSet
950 332 m 1,0,1
 950 259 950 259 922.5 195 c 128,-1,2
 895 131 895 131 847 83 c 128,-1,3
 799 35 799 35 735 7.5 c 128,-1,4
 671 -20 671 -20 598 -20 c 2,5,-1
 496 -20 l 2,6,7
 423 -20 423 -20 358.5 7.5 c 128,-1,8
 294 35 294 35 246 83 c 128,-1,9
 198 131 198 131 170.5 195 c 128,-1,10
 143 259 143 259 143 332 c 2,11,-1
 143 1434 l 1,12,-1
 272 1434 l 1,13,-1
 272 332 l 2,14,15
 272 284 272 284 290 242.5 c 128,-1,16
 308 201 308 201 339.5 169.5 c 128,-1,17
 371 138 371 138 412.5 120 c 128,-1,18
 454 102 454 102 502 102 c 2,19,-1
 592 102 l 2,20,21
 640 102 640 102 681.5 120 c 128,-1,22
 723 138 723 138 754 169.5 c 128,-1,23
 785 201 785 201 803 242.5 c 128,-1,24
 821 284 821 284 821 332 c 2,25,-1
 821 1434 l 1,26,-1
 950 1434 l 1,27,-1
 950 332 l 1,28,-1
 950 332 l 1,0,1
EndSplineSet
EndChar

StartChar: V
Encoding: 86 86 57
Width: 950
Flags: W
LayerCount: 2
Fore
SplineSet
471 315 m 1,0,-1
 475 262 l 1,1,-1
 479 315 l 1,2,-1
 797 1434 l 1,3,-1
 930 1434 l 1,4,-1
 508 0 l 1,5,-1
 440 0 l 1,6,-1
 20 1434 l 1,7,-1
 154 1434 l 1,8,-1
 471 315 l 1,0,-1
EndSplineSet
EndChar

StartChar: W
Encoding: 87 87 58
Width: 1542
Flags: W
LayerCount: 2
Fore
SplineSet
1122 0 m 1,0,-1
 1055 0 l 1,1,-1
 776 1079 l 1,2,-1
 772 1135 l 1,3,-1
 766 1079 l 1,4,-1
 489 0 l 1,5,-1
 422 0 l 1,6,-1
 41 1434 l 1,7,-1
 170 1434 l 1,8,-1
 451 344 l 1,9,-1
 455 291 l 1,10,-1
 459 344 l 1,11,-1
 735 1434 l 1,12,-1
 807 1434 l 1,13,-1
 1083 344 l 1,14,-1
 1087 291 l 1,15,-1
 1092 344 l 1,16,-1
 1372 1434 l 1,17,-1
 1501 1434 l 1,18,-1
 1122 0 l 1,0,-1
EndSplineSet
EndChar

StartChar: X
Encoding: 88 88 59
Width: 991
Flags: W
LayerCount: 2
Fore
SplineSet
791 0 m 1,0,-1
 496 596 l 1,1,-1
 201 0 l 1,2,-1
 61 0 l 1,3,-1
 426 737 l 1,4,-1
 82 1434 l 1,5,-1
 221 1434 l 1,6,-1
 496 879 l 1,7,-1
 770 1434 l 1,8,-1
 909 1434 l 1,9,-1
 565 737 l 1,10,-1
 930 0 l 1,11,-1
 791 0 l 1,0,-1
EndSplineSet
EndChar

StartChar: Y
Encoding: 89 89 60
Width: 950
Flags: W
LayerCount: 2
Fore
SplineSet
541 686 m 1,0,-1
 541 0 l 1,1,-1
 412 0 l 1,2,-1
 412 684 l 1,3,-1
 41 1434 l 1,4,-1
 180 1434 l 1,5,-1
 475 838 l 1,6,-1
 770 1434 l 1,7,-1
 909 1434 l 1,8,-1
 541 686 l 1,0,-1
EndSplineSet
EndChar

StartChar: Z
Encoding: 90 90 61
Width: 971
Flags: W
LayerCount: 2
Fore
SplineSet
82 0 m 1,0,-1
 82 61 l 1,1,-1
 721 1311 l 1,2,-1
 102 1311 l 1,3,-1
 102 1434 l 1,4,-1
 889 1434 l 1,5,-1
 889 1372 l 1,6,-1
 250 123 l 1,7,-1
 889 123 l 1,8,-1
 889 0 l 1,9,-1
 82 0 l 1,0,-1
EndSplineSet
EndChar

StartChar: bracketleft
Encoding: 91 91 62
Width: 633
Flags: W
LayerCount: 2
Fore
SplineSet
530 -410 m 1,0,-1
 164 -410 l 1,1,-1
 164 1606 l 1,2,-1
 530 1606 l 1,3,-1
 530 1495 l 1,4,-1
 287 1495 l 1,5,-1
 287 -299 l 1,6,-1
 530 -299 l 1,7,-1
 530 -410 l 1,0,-1
EndSplineSet
EndChar

StartChar: backslash
Encoding: 92 92 63
Width: 782
Flags: W
LayerCount: 2
Fore
SplineSet
612 -123 m 1,0,-1
 41 1556 l 1,1,-1
 170 1556 l 1,2,-1
 741 -123 l 1,3,-1
 612 -123 l 1,0,-1
EndSplineSet
EndChar

StartChar: bracketright
Encoding: 93 93 64
Width: 633
Flags: W
LayerCount: 2
Fore
SplineSet
102 -299 m 1,0,-1
 346 -299 l 1,1,-1
 346 1495 l 1,2,-1
 102 1495 l 1,3,-1
 102 1606 l 1,4,-1
 469 1606 l 1,5,-1
 469 -410 l 1,6,-1
 102 -410 l 1,7,-1
 102 -299 l 1,0,-1
EndSplineSet
EndChar

StartChar: asciicircum
Encoding: 94 94 65
Width: 1104
Flags: W
LayerCount: 2
Fore
SplineSet
981 776 m 1,0,-1
 844 776 l 1,1,-1
 551 1315 l 1,2,-1
 260 776 l 1,3,-1
 123 776 l 1,4,-1
 483 1434 l 1,5,-1
 621 1434 l 1,6,-1
 981 776 l 1,0,-1
EndSplineSet
EndChar

StartChar: underscore
Encoding: 95 95 66
Width: 1122
Flags: W
LayerCount: 2
Fore
SplineSet
1124 -293 m 1,0,-1
 1124 -410 l 1,1,-1
 -2 -410 l 1,2,-1
 -2 -293 l 1,3,-1
 1124 -293 l 1,0,-1
EndSplineSet
EndChar

StartChar: grave
Encoding: 96 96 67
Width: 778
Flags: W
LayerCount: 2
Fore
SplineSet
205 1434 m 1,0,-1
 410 1434 l 1,1,-1
 573 1188 l 1,2,-1
 481 1188 l 1,3,-1
 205 1434 l 1,0,-1
EndSplineSet
EndChar

StartChar: a
Encoding: 97 97 68
Width: 930
Flags: W
LayerCount: 2
Fore
SplineSet
766 0 m 1,0,-1
 698 102 l 1,1,2
 656 47 656 47 593 13.5 c 128,-1,3
 530 -20 530 -20 455 -20 c 2,4,-1
 424 -20 l 2,5,6
 362 -20 362 -20 307 3.5 c 128,-1,7
 252 27 252 27 211 68 c 128,-1,8
 170 109 170 109 146.5 164 c 128,-1,9
 123 219 123 219 123 281 c 2,10,-1
 123 291 l 2,11,12
 123 353 123 353 146.5 408 c 128,-1,13
 170 463 170 463 211 504 c 128,-1,14
 252 545 252 545 307 568.5 c 128,-1,15
 362 592 362 592 424 592 c 2,16,-1
 684 592 l 1,17,-1
 684 750 l 2,18,19
 684 787 684 787 670 819.5 c 128,-1,20
 656 852 656 852 632 876 c 128,-1,21
 608 900 608 900 575.5 914 c 128,-1,22
 543 928 543 928 506 928 c 2,23,-1
 434 928 l 2,24,25
 397 928 397 928 364.5 914 c 128,-1,26
 332 900 332 900 308 876 c 128,-1,27
 284 852 284 852 270 819.5 c 128,-1,28
 256 787 256 787 256 750 c 2,29,-1
 256 713 l 1,30,-1
 133 733 l 1,31,-1
 133 743 l 2,32,33
 133 805 133 805 156.5 860 c 128,-1,34
 180 915 180 915 221 956 c 128,-1,35
 262 997 262 997 317 1020.5 c 128,-1,36
 372 1044 372 1044 434 1044 c 2,37,-1
 506 1044 l 2,38,39
 568 1044 568 1044 623 1020.5 c 128,-1,40
 678 997 678 997 719 956 c 128,-1,41
 760 915 760 915 783.5 860 c 128,-1,42
 807 805 807 805 807 743 c 2,43,-1
 807 0 l 1,44,-1
 766 0 l 1,0,-1
684 496 m 1,45,-1
 424 496 l 2,46,47
 387 496 387 496 354.5 482 c 128,-1,48
 322 468 322 468 298 443.5 c 128,-1,49
 274 419 274 419 260 386.5 c 128,-1,50
 246 354 246 354 246 317 c 2,51,-1
 246 274 l 2,52,53
 246 237 246 237 260 204.5 c 128,-1,54
 274 172 274 172 298 148 c 128,-1,55
 322 124 322 124 354.5 110 c 128,-1,56
 387 96 387 96 424 96 c 2,57,-1
 506 96 l 2,58,59
 543 96 543 96 575.5 110 c 128,-1,60
 608 124 608 124 632 148 c 128,-1,61
 656 172 656 172 670 204.5 c 128,-1,62
 684 237 684 237 684 274 c 2,63,-1
 684 496 l 1,45,-1
EndSplineSet
EndChar

StartChar: b
Encoding: 98 98 69
Width: 930
Flags: W
LayerCount: 2
Fore
SplineSet
807 281 m 1,0,1
 807 219 807 219 783.5 164 c 128,-1,2
 760 109 760 109 719 68 c 128,-1,3
 678 27 678 27 623 3.5 c 128,-1,4
 568 -20 568 -20 506 -20 c 2,5,-1
 424 -20 l 2,6,7
 362 -20 362 -20 307 3.5 c 128,-1,8
 252 27 252 27 211 68 c 128,-1,9
 170 109 170 109 146.5 164 c 128,-1,10
 123 219 123 219 123 281 c 2,11,-1
 123 1434 l 1,12,-1
 246 1434 l 1,13,-1
 246 938 l 1,14,15
 288 988 288 988 347 1016 c 128,-1,16
 406 1044 406 1044 475 1044 c 2,17,-1
 506 1044 l 2,18,19
 568 1044 568 1044 623 1020.5 c 128,-1,20
 678 997 678 997 719 956 c 128,-1,21
 760 915 760 915 783.5 860 c 128,-1,22
 807 805 807 805 807 743 c 2,23,-1
 807 281 l 1,24,-1
 807 281 l 1,0,1
684 750 m 2,25,26
 684 787 684 787 670 819.5 c 128,-1,27
 656 852 656 852 632 876 c 128,-1,28
 608 900 608 900 575.5 914 c 128,-1,29
 543 928 543 928 506 928 c 2,30,-1
 424 928 l 2,31,32
 387 928 387 928 354.5 914 c 128,-1,33
 322 900 322 900 298 876 c 128,-1,34
 274 852 274 852 260 819.5 c 128,-1,35
 246 787 246 787 246 750 c 2,36,-1
 246 274 l 2,37,38
 246 237 246 237 260 204.5 c 128,-1,39
 274 172 274 172 298 148 c 128,-1,40
 322 124 322 124 354.5 110 c 128,-1,41
 387 96 387 96 424 96 c 2,42,-1
 506 96 l 2,43,44
 543 96 543 96 575.5 110 c 128,-1,45
 608 124 608 124 632 148 c 128,-1,46
 656 172 656 172 670 204.5 c 128,-1,47
 684 237 684 237 684 274 c 2,48,-1
 684 750 l 2,25,26
EndSplineSet
EndChar

StartChar: c
Encoding: 99 99 70
Width: 930
Flags: W
LayerCount: 2
Fore
SplineSet
807 281 m 1,0,1
 807 219 807 219 783.5 164 c 128,-1,2
 760 109 760 109 719 68 c 128,-1,3
 678 27 678 27 623 3.5 c 128,-1,4
 568 -20 568 -20 506 -20 c 2,5,-1
 424 -20 l 2,6,7
 362 -20 362 -20 307 3.5 c 128,-1,8
 252 27 252 27 211 68 c 128,-1,9
 170 109 170 109 146.5 164 c 128,-1,10
 123 219 123 219 123 281 c 2,11,-1
 123 743 l 2,12,13
 123 805 123 805 146.5 860 c 128,-1,14
 170 915 170 915 211 956 c 128,-1,15
 252 997 252 997 307 1020.5 c 128,-1,16
 362 1044 362 1044 424 1044 c 2,17,-1
 506 1044 l 2,18,19
 568 1044 568 1044 623 1020.5 c 128,-1,20
 678 997 678 997 719 956 c 128,-1,21
 760 915 760 915 783.5 860 c 128,-1,22
 807 805 807 805 807 743 c 2,23,-1
 807 702 l 1,24,-1
 684 682 l 1,25,-1
 684 750 l 2,26,27
 684 787 684 787 670 819.5 c 128,-1,28
 656 852 656 852 632 876 c 128,-1,29
 608 900 608 900 575.5 914 c 128,-1,30
 543 928 543 928 506 928 c 2,31,-1
 424 928 l 2,32,33
 387 928 387 928 354.5 914 c 128,-1,34
 322 900 322 900 298 876 c 128,-1,35
 274 852 274 852 260 819.5 c 128,-1,36
 246 787 246 787 246 750 c 2,37,-1
 246 274 l 2,38,39
 246 237 246 237 260 204.5 c 128,-1,40
 274 172 274 172 298 148 c 128,-1,41
 322 124 322 124 354.5 110 c 128,-1,42
 387 96 387 96 424 96 c 2,43,-1
 506 96 l 2,44,45
 543 96 543 96 575.5 110 c 128,-1,46
 608 124 608 124 632 148 c 128,-1,47
 656 172 656 172 670 204.5 c 128,-1,48
 684 237 684 237 684 274 c 2,49,-1
 684 342 l 1,50,-1
 807 322 l 1,51,-1
 807 281 l 1,52,-1
 807 281 l 1,0,1
EndSplineSet
EndChar

StartChar: d
Encoding: 100 100 71
Width: 930
Flags: W
LayerCount: 2
Fore
SplineSet
766 0 m 1,0,-1
 698 104 l 1,1,2
 656 47 656 47 593 13.5 c 128,-1,3
 530 -20 530 -20 455 -20 c 2,4,-1
 424 -20 l 2,5,6
 362 -20 362 -20 307 3.5 c 128,-1,7
 252 27 252 27 211 68 c 128,-1,8
 170 109 170 109 146.5 164 c 128,-1,9
 123 219 123 219 123 281 c 2,10,-1
 123 743 l 2,11,12
 123 805 123 805 146.5 860 c 128,-1,13
 170 915 170 915 211 956 c 128,-1,14
 252 997 252 997 307 1020.5 c 128,-1,15
 362 1044 362 1044 424 1044 c 2,16,-1
 455 1044 l 2,17,18
 524 1044 524 1044 583 1016 c 128,-1,19
 642 988 642 988 684 938 c 1,20,-1
 684 1434 l 1,21,-1
 807 1434 l 1,22,-1
 807 0 l 1,23,-1
 766 0 l 1,0,-1
684 750 m 2,24,25
 684 787 684 787 670 819.5 c 128,-1,26
 656 852 656 852 632 876 c 128,-1,27
 608 900 608 900 575.5 914 c 128,-1,28
 543 928 543 928 506 928 c 2,29,-1
 424 928 l 2,30,31
 387 928 387 928 354.5 914 c 128,-1,32
 322 900 322 900 298 876 c 128,-1,33
 274 852 274 852 260 819.5 c 128,-1,34
 246 787 246 787 246 750 c 2,35,-1
 246 274 l 2,36,37
 246 237 246 237 260 204.5 c 128,-1,38
 274 172 274 172 298 148 c 128,-1,39
 322 124 322 124 354.5 110 c 128,-1,40
 387 96 387 96 424 96 c 2,41,-1
 506 96 l 2,42,43
 543 96 543 96 575.5 110 c 128,-1,44
 608 124 608 124 632 148 c 128,-1,45
 656 172 656 172 670 204.5 c 128,-1,46
 684 237 684 237 684 274 c 2,47,-1
 684 750 l 2,24,25
EndSplineSet
EndChar

StartChar: e
Encoding: 101 101 72
Width: 930
Flags: W
LayerCount: 2
Fore
SplineSet
807 281 m 1,0,1
 807 219 807 219 783.5 164 c 128,-1,2
 760 109 760 109 719 68 c 128,-1,3
 678 27 678 27 623 3.5 c 128,-1,4
 568 -20 568 -20 506 -20 c 2,5,-1
 424 -20 l 2,6,7
 362 -20 362 -20 307 3.5 c 128,-1,8
 252 27 252 27 211 68 c 128,-1,9
 170 109 170 109 146.5 164 c 128,-1,10
 123 219 123 219 123 281 c 2,11,-1
 123 743 l 2,12,13
 123 805 123 805 146.5 860 c 128,-1,14
 170 915 170 915 211 956 c 128,-1,15
 252 997 252 997 307 1020.5 c 128,-1,16
 362 1044 362 1044 424 1044 c 2,17,-1
 506 1044 l 2,18,19
 568 1044 568 1044 623 1020.5 c 128,-1,20
 678 997 678 997 719 956 c 128,-1,21
 760 915 760 915 783.5 860 c 128,-1,22
 807 805 807 805 807 743 c 2,23,-1
 807 502 l 1,24,-1
 246 502 l 1,25,-1
 246 274 l 2,26,27
 246 237 246 237 260 204.5 c 128,-1,28
 274 172 274 172 298 148 c 128,-1,29
 322 124 322 124 354.5 110 c 128,-1,30
 387 96 387 96 424 96 c 2,31,-1
 506 96 l 2,32,33
 543 96 543 96 575.5 110 c 128,-1,34
 608 124 608 124 632 148 c 128,-1,35
 656 172 656 172 670 204.5 c 128,-1,36
 684 237 684 237 684 274 c 2,37,-1
 684 342 l 1,38,-1
 807 322 l 1,39,-1
 807 281 l 1,40,-1
 807 281 l 1,0,1
684 750 m 2,41,42
 684 787 684 787 670 819.5 c 128,-1,43
 656 852 656 852 632 876 c 128,-1,44
 608 900 608 900 575.5 914 c 128,-1,45
 543 928 543 928 506 928 c 2,46,-1
 424 928 l 2,47,48
 387 928 387 928 354.5 914 c 128,-1,49
 322 900 322 900 298 876 c 128,-1,50
 274 852 274 852 260 819.5 c 128,-1,51
 246 787 246 787 246 750 c 2,52,-1
 246 598 l 1,53,-1
 684 598 l 1,54,-1
 684 750 l 2,41,42
EndSplineSet
EndChar

StartChar: f
Encoding: 102 102 73
Width: 588
Flags: W
LayerCount: 2
Fore
SplineSet
475 1317 m 2,0,1
 444 1317 444 1317 417.5 1305.5 c 128,-1,2
 391 1294 391 1294 371 1274 c 128,-1,3
 351 1254 351 1254 339.5 1227 c 128,-1,4
 328 1200 328 1200 328 1169 c 2,5,-1
 328 1024 l 1,6,-1
 567 1024 l 1,7,-1
 567 907 l 1,8,-1
 328 907 l 1,9,-1
 328 0 l 1,10,-1
 205 0 l 1,11,-1
 205 907 l 1,12,-1
 20 907 l 1,13,-1
 20 1024 l 1,14,-1
 205 1024 l 1,15,-1
 205 1163 l 2,16,17
 205 1219 205 1219 226 1268.5 c 128,-1,18
 247 1318 247 1318 284 1355 c 128,-1,19
 321 1392 321 1392 370 1413 c 128,-1,20
 419 1434 419 1434 475 1434 c 2,21,-1
 588 1434 l 1,22,-1
 588 1317 l 1,23,-1
 475 1317 l 2,0,1
EndSplineSet
EndChar

StartChar: g
Encoding: 103 103 74
Width: 930
Flags: W
LayerCount: 2
Fore
SplineSet
817 -129 m 1,0,1
 817 -191 817 -191 793.5 -243 c 128,-1,2
 770 -295 770 -295 729 -332 c 128,-1,3
 688 -369 688 -369 633 -389.5 c 128,-1,4
 578 -410 578 -410 516 -410 c 2,5,-1
 465 -410 l 2,6,7
 403 -410 403 -410 348 -389.5 c 128,-1,8
 293 -369 293 -369 252 -332 c 128,-1,9
 211 -295 211 -295 187.5 -243 c 128,-1,10
 164 -191 164 -191 164 -129 c 2,11,-1
 164 -125 l 2,12,13
 164 -65 164 -65 186 -15 c 128,-1,14
 208 35 208 35 246 72 c 1,15,16
 198 101 198 101 169.5 150.5 c 128,-1,17
 141 200 141 200 141 260 c 0,18,19
 141 314 141 314 164 360.5 c 128,-1,20
 187 407 187 407 227 436 c 1,21,22
 179 478 179 478 151 537 c 128,-1,23
 123 596 123 596 123 666 c 2,24,-1
 123 743 l 2,25,26
 123 805 123 805 146.5 860 c 128,-1,27
 170 915 170 915 211 956 c 128,-1,28
 252 997 252 997 307 1020.5 c 128,-1,29
 362 1044 362 1044 424 1044 c 2,30,-1
 475 1044 l 2,31,32
 550 1044 550 1044 613.5 1010.5 c 128,-1,33
 677 977 677 977 719 920 c 1,34,-1
 786 1024 l 1,35,-1
 827 1024 l 1,36,-1
 827 666 l 2,37,38
 827 604 827 604 803.5 549 c 128,-1,39
 780 494 780 494 739 453 c 128,-1,40
 698 412 698 412 643 388.5 c 128,-1,41
 588 365 588 365 526 365 c 2,42,-1
 348 365 l 2,43,44
 327 365 327 365 308 356.5 c 128,-1,45
 289 348 289 348 274.5 334 c 128,-1,46
 260 320 260 320 252 300.5 c 128,-1,47
 244 281 244 281 244 260 c 256,48,49
 244 239 244 239 252 220 c 128,-1,50
 260 201 260 201 274.5 186.5 c 128,-1,51
 289 172 289 172 308 164 c 128,-1,52
 327 156 327 156 348 156 c 2,53,-1
 516 156 l 2,54,55
 578 156 578 156 633 135.5 c 128,-1,56
 688 115 688 115 729 78 c 128,-1,57
 770 41 770 41 793.5 -11 c 128,-1,58
 817 -63 817 -63 817 -125 c 2,59,-1
 817 -129 l 1,60,-1
 817 -129 l 1,0,1
705 750 m 2,61,62
 705 787 705 787 691 819.5 c 128,-1,63
 677 852 677 852 652.5 876 c 128,-1,64
 628 900 628 900 595.5 914 c 128,-1,65
 563 928 563 928 526 928 c 2,66,-1
 424 928 l 2,67,68
 387 928 387 928 354.5 914 c 128,-1,69
 322 900 322 900 298 876 c 128,-1,70
 274 852 274 852 260 819.5 c 128,-1,71
 246 787 246 787 246 750 c 2,72,-1
 246 659 l 2,73,74
 246 622 246 622 260 589.5 c 128,-1,75
 274 557 274 557 298 533 c 128,-1,76
 322 509 322 509 354.5 495 c 128,-1,77
 387 481 387 481 424 481 c 2,78,-1
 526 481 l 2,79,80
 563 481 563 481 595.5 495 c 128,-1,81
 628 509 628 509 652.5 533 c 128,-1,82
 677 557 677 557 691 589.5 c 128,-1,83
 705 622 705 622 705 659 c 2,84,-1
 705 750 l 2,61,62
700 -119 m 2,85,86
 700 -82 700 -82 686 -52.5 c 128,-1,87
 672 -23 672 -23 648 -3 c 128,-1,88
 624 17 624 17 591.5 28 c 128,-1,89
 559 39 559 39 522 39 c 2,90,-1
 459 39 l 2,91,92
 422 39 422 39 389.5 28 c 128,-1,93
 357 17 357 17 333 -3 c 128,-1,94
 309 -23 309 -23 295 -52.5 c 128,-1,95
 281 -82 281 -82 281 -119 c 2,96,-1
 281 -135 l 2,97,98
 281 -172 281 -172 295 -201 c 128,-1,99
 309 -230 309 -230 333 -250.5 c 128,-1,100
 357 -271 357 -271 389.5 -282 c 128,-1,101
 422 -293 422 -293 459 -293 c 2,102,-1
 522 -293 l 2,103,104
 559 -293 559 -293 591.5 -282 c 128,-1,105
 624 -271 624 -271 648 -250.5 c 128,-1,106
 672 -230 672 -230 686 -201 c 128,-1,107
 700 -172 700 -172 700 -135 c 2,108,-1
 700 -119 l 2,85,86
EndSplineSet
EndChar

StartChar: h
Encoding: 104 104 75
Width: 930
Flags: W
LayerCount: 2
Fore
SplineSet
684 0 m 1,0,-1
 684 750 l 2,1,2
 684 787 684 787 670 819.5 c 128,-1,3
 656 852 656 852 632 876 c 128,-1,4
 608 900 608 900 575.5 914 c 128,-1,5
 543 928 543 928 506 928 c 2,6,-1
 424 928 l 2,7,8
 387 928 387 928 354.5 914 c 128,-1,9
 322 900 322 900 298 876 c 128,-1,10
 274 852 274 852 260 819.5 c 128,-1,11
 246 787 246 787 246 750 c 2,12,-1
 246 0 l 1,13,-1
 123 0 l 1,14,-1
 123 1434 l 1,15,-1
 246 1434 l 1,16,-1
 246 938 l 1,17,18
 288 988 288 988 347 1016 c 128,-1,19
 406 1044 406 1044 475 1044 c 2,20,-1
 506 1044 l 2,21,22
 568 1044 568 1044 623 1020.5 c 128,-1,23
 678 997 678 997 719 956 c 128,-1,24
 760 915 760 915 783.5 860 c 128,-1,25
 807 805 807 805 807 743 c 2,26,-1
 807 0 l 1,27,-1
 684 0 l 1,0,-1
EndSplineSet
EndChar

StartChar: i
Encoding: 105 105 76
Width: 451
Flags: W
LayerCount: 2
Fore
SplineSet
154 1270 m 1,0,-1
 154 1434 l 1,1,-1
 297 1434 l 1,2,-1
 297 1270 l 1,3,-1
 154 1270 l 1,0,-1
164 0 m 1,4,-1
 164 1024 l 1,5,-1
 287 1024 l 1,6,-1
 287 0 l 1,7,-1
 164 0 l 1,4,-1
EndSplineSet
EndChar

StartChar: j
Encoding: 106 106 77
Width: 451
Flags: W
LayerCount: 2
Fore
SplineSet
154 1270 m 1,0,-1
 154 1434 l 1,1,-1
 297 1434 l 1,2,-1
 297 1270 l 1,3,-1
 154 1270 l 1,0,-1
287 -109 m 1,4,5
 287 -171 287 -171 263.5 -225.5 c 128,-1,6
 240 -280 240 -280 199 -321 c 128,-1,7
 158 -362 158 -362 103 -386 c 128,-1,8
 48 -410 48 -410 -14 -410 c 1,9,-1
 -14 -293 l 1,10,11
 23 -293 23 -293 55.5 -279 c 128,-1,12
 88 -265 88 -265 112 -241 c 128,-1,13
 136 -217 136 -217 150 -184.5 c 128,-1,14
 164 -152 164 -152 164 -115 c 2,15,-1
 164 1024 l 1,16,-1
 287 1024 l 1,17,-1
 287 -109 l 1,18,-1
 287 -109 l 1,4,5
EndSplineSet
EndChar

StartChar: k
Encoding: 107 107 78
Width: 930
Flags: W
LayerCount: 2
Fore
SplineSet
729 0 m 1,0,-1
 311 512 l 1,1,-1
 729 1024 l 1,2,-1
 889 1024 l 1,3,-1
 461 512 l 1,4,-1
 889 0 l 1,5,-1
 729 0 l 1,0,-1
164 0 m 1,6,-1
 164 1434 l 1,7,-1
 287 1434 l 1,8,-1
 287 0 l 1,9,-1
 164 0 l 1,6,-1
EndSplineSet
EndChar

StartChar: l
Encoding: 108 108 79
Width: 451
Flags: W
LayerCount: 2
Fore
SplineSet
164 0 m 1,0,-1
 164 1434 l 1,1,-1
 287 1434 l 1,2,-1
 287 0 l 1,3,-1
 164 0 l 1,0,-1
EndSplineSet
EndChar

StartChar: m
Encoding: 109 109 80
Width: 1450
Flags: W
LayerCount: 2
Fore
SplineSet
1204 0 m 1,0,-1
 1204 750 l 2,1,2
 1204 787 1204 787 1190 819.5 c 128,-1,3
 1176 852 1176 852 1152 876 c 128,-1,4
 1128 900 1128 900 1095.5 914 c 128,-1,5
 1063 928 1063 928 1026 928 c 2,6,-1
 965 928 l 2,7,8
 928 928 928 928 895.5 914 c 128,-1,9
 863 900 863 900 838.5 876 c 128,-1,10
 814 852 814 852 800 819.5 c 128,-1,11
 786 787 786 787 786 750 c 2,12,-1
 786 0 l 1,13,-1
 664 0 l 1,14,-1
 664 750 l 2,15,16
 664 787 664 787 650 819.5 c 128,-1,17
 636 852 636 852 611.5 876 c 128,-1,18
 587 900 587 900 554.5 914 c 128,-1,19
 522 928 522 928 485 928 c 2,20,-1
 424 928 l 2,21,22
 387 928 387 928 354.5 914 c 128,-1,23
 322 900 322 900 298 876 c 128,-1,24
 274 852 274 852 260 819.5 c 128,-1,25
 246 787 246 787 246 750 c 2,26,-1
 246 0 l 1,27,-1
 123 0 l 1,28,-1
 123 1024 l 1,29,-1
 164 1024 l 1,30,-1
 231 920 l 1,31,32
 273 977 273 977 336.5 1010.5 c 128,-1,33
 400 1044 400 1044 475 1044 c 2,34,-1
 485 1044 l 2,35,36
 572 1044 572 1044 642 1001 c 128,-1,37
 712 958 712 958 750 887 c 1,38,39
 769 922 769 922 797 951 c 128,-1,40
 825 980 825 980 859 1000.5 c 128,-1,41
 893 1021 893 1021 933 1032.5 c 128,-1,42
 973 1044 973 1044 1016 1044 c 2,43,-1
 1026 1044 l 2,44,45
 1088 1044 1088 1044 1143 1020.5 c 128,-1,46
 1198 997 1198 997 1239 956 c 128,-1,47
 1280 915 1280 915 1303.5 860 c 128,-1,48
 1327 805 1327 805 1327 743 c 2,49,-1
 1327 0 l 1,50,-1
 1204 0 l 1,0,-1
EndSplineSet
EndChar

StartChar: n
Encoding: 110 110 81
Width: 930
Flags: W
LayerCount: 2
Fore
SplineSet
684 0 m 1,0,-1
 684 750 l 2,1,2
 684 787 684 787 670 819.5 c 128,-1,3
 656 852 656 852 632 876 c 128,-1,4
 608 900 608 900 575.5 914 c 128,-1,5
 543 928 543 928 506 928 c 2,6,-1
 424 928 l 2,7,8
 387 928 387 928 354.5 914 c 128,-1,9
 322 900 322 900 298 876 c 128,-1,10
 274 852 274 852 260 819.5 c 128,-1,11
 246 787 246 787 246 750 c 2,12,-1
 246 0 l 1,13,-1
 123 0 l 1,14,-1
 123 1024 l 1,15,-1
 164 1024 l 1,16,-1
 231 920 l 1,17,18
 273 977 273 977 336.5 1010.5 c 128,-1,19
 400 1044 400 1044 475 1044 c 2,20,-1
 506 1044 l 2,21,22
 568 1044 568 1044 623 1020.5 c 128,-1,23
 678 997 678 997 719 956 c 128,-1,24
 760 915 760 915 783.5 860 c 128,-1,25
 807 805 807 805 807 743 c 2,26,-1
 807 0 l 1,27,-1
 684 0 l 1,0,-1
EndSplineSet
EndChar

StartChar: o
Encoding: 111 111 82
Width: 930
Flags: W
LayerCount: 2
Fore
SplineSet
807 281 m 1,0,1
 807 219 807 219 783.5 164 c 128,-1,2
 760 109 760 109 719 68 c 128,-1,3
 678 27 678 27 623 3.5 c 128,-1,4
 568 -20 568 -20 506 -20 c 2,5,-1
 424 -20 l 2,6,7
 362 -20 362 -20 307 3.5 c 128,-1,8
 252 27 252 27 211 68 c 128,-1,9
 170 109 170 109 146.5 164 c 128,-1,10
 123 219 123 219 123 281 c 2,11,-1
 123 743 l 2,12,13
 123 805 123 805 146.5 860 c 128,-1,14
 170 915 170 915 211 956 c 128,-1,15
 252 997 252 997 307 1020.5 c 128,-1,16
 362 1044 362 1044 424 1044 c 2,17,-1
 506 1044 l 2,18,19
 568 1044 568 1044 623 1020.5 c 128,-1,20
 678 997 678 997 719 956 c 128,-1,21
 760 915 760 915 783.5 860 c 128,-1,22
 807 805 807 805 807 743 c 2,23,-1
 807 281 l 1,24,-1
 807 281 l 1,0,1
684 750 m 2,25,26
 684 787 684 787 670 819.5 c 128,-1,27
 656 852 656 852 632 876 c 128,-1,28
 608 900 608 900 575.5 914 c 128,-1,29
 543 928 543 928 506 928 c 2,30,-1
 424 928 l 2,31,32
 387 928 387 928 354.5 914 c 128,-1,33
 322 900 322 900 298 876 c 128,-1,34
 274 852 274 852 260 819.5 c 128,-1,35
 246 787 246 787 246 750 c 2,36,-1
 246 274 l 2,37,38
 246 237 246 237 260 204.5 c 128,-1,39
 274 172 274 172 298 148 c 128,-1,40
 322 124 322 124 354.5 110 c 128,-1,41
 387 96 387 96 424 96 c 2,42,-1
 506 96 l 2,43,44
 543 96 543 96 575.5 110 c 128,-1,45
 608 124 608 124 632 148 c 128,-1,46
 656 172 656 172 670 204.5 c 128,-1,47
 684 237 684 237 684 274 c 2,48,-1
 684 750 l 2,25,26
EndSplineSet
EndChar

StartChar: p
Encoding: 112 112 83
Width: 930
Flags: W
LayerCount: 2
Fore
SplineSet
807 281 m 1,0,1
 807 219 807 219 783.5 164 c 128,-1,2
 760 109 760 109 719 68 c 128,-1,3
 678 27 678 27 623 3.5 c 128,-1,4
 568 -20 568 -20 506 -20 c 2,5,-1
 475 -20 l 2,6,7
 406 -20 406 -20 347 8 c 128,-1,8
 288 36 288 36 246 86 c 1,9,-1
 246 -410 l 1,10,-1
 123 -410 l 1,11,-1
 123 1024 l 1,12,-1
 164 1024 l 1,13,-1
 231 920 l 1,14,15
 273 977 273 977 336.5 1010.5 c 128,-1,16
 400 1044 400 1044 475 1044 c 2,17,-1
 506 1044 l 2,18,19
 568 1044 568 1044 623 1020.5 c 128,-1,20
 678 997 678 997 719 956 c 128,-1,21
 760 915 760 915 783.5 860 c 128,-1,22
 807 805 807 805 807 743 c 2,23,-1
 807 281 l 1,24,-1
 807 281 l 1,0,1
684 750 m 2,25,26
 684 787 684 787 670 819.5 c 128,-1,27
 656 852 656 852 632 876 c 128,-1,28
 608 900 608 900 575.5 914 c 128,-1,29
 543 928 543 928 506 928 c 2,30,-1
 424 928 l 2,31,32
 387 928 387 928 354.5 914 c 128,-1,33
 322 900 322 900 298 876 c 128,-1,34
 274 852 274 852 260 819.5 c 128,-1,35
 246 787 246 787 246 750 c 2,36,-1
 246 274 l 2,37,38
 246 237 246 237 260 204.5 c 128,-1,39
 274 172 274 172 298 148 c 128,-1,40
 322 124 322 124 354.5 110 c 128,-1,41
 387 96 387 96 424 96 c 2,42,-1
 506 96 l 2,43,44
 543 96 543 96 575.5 110 c 128,-1,45
 608 124 608 124 632 148 c 128,-1,46
 656 172 656 172 670 204.5 c 128,-1,47
 684 237 684 237 684 274 c 2,48,-1
 684 750 l 2,25,26
EndSplineSet
EndChar

StartChar: q
Encoding: 113 113 84
Width: 930
Flags: W
LayerCount: 2
Fore
SplineSet
684 -410 m 1,0,-1
 684 86 l 1,1,2
 642 36 642 36 583 8 c 128,-1,3
 524 -20 524 -20 455 -20 c 2,4,-1
 424 -20 l 2,5,6
 362 -20 362 -20 307 3.5 c 128,-1,7
 252 27 252 27 211 68 c 128,-1,8
 170 109 170 109 146.5 164 c 128,-1,9
 123 219 123 219 123 281 c 2,10,-1
 123 743 l 2,11,12
 123 805 123 805 146.5 860 c 128,-1,13
 170 915 170 915 211 956 c 128,-1,14
 252 997 252 997 307 1020.5 c 128,-1,15
 362 1044 362 1044 424 1044 c 2,16,-1
 455 1044 l 2,17,18
 530 1044 530 1044 593 1010.5 c 128,-1,19
 656 977 656 977 698 920 c 1,20,-1
 766 1024 l 1,21,-1
 807 1024 l 1,22,-1
 807 -410 l 1,23,-1
 684 -410 l 1,0,-1
684 750 m 2,24,25
 684 787 684 787 670 819.5 c 128,-1,26
 656 852 656 852 632 876 c 128,-1,27
 608 900 608 900 575.5 914 c 128,-1,28
 543 928 543 928 506 928 c 2,29,-1
 424 928 l 2,30,31
 387 928 387 928 354.5 914 c 128,-1,32
 322 900 322 900 298 876 c 128,-1,33
 274 852 274 852 260 819.5 c 128,-1,34
 246 787 246 787 246 750 c 2,35,-1
 246 274 l 2,36,37
 246 237 246 237 260 204.5 c 128,-1,38
 274 172 274 172 298 148 c 128,-1,39
 322 124 322 124 354.5 110 c 128,-1,40
 387 96 387 96 424 96 c 2,41,-1
 506 96 l 2,42,43
 543 96 543 96 575.5 110 c 128,-1,44
 608 124 608 124 632 148 c 128,-1,45
 656 172 656 172 670 204.5 c 128,-1,46
 684 237 684 237 684 274 c 2,47,-1
 684 750 l 2,24,25
EndSplineSet
EndChar

StartChar: r
Encoding: 114 114 85
Width: 588
Flags: W
LayerCount: 2
Fore
SplineSet
424 907 m 2,0,1
 387 907 387 907 354.5 893 c 128,-1,2
 322 879 322 879 298 855 c 128,-1,3
 274 831 274 831 260 798.5 c 128,-1,4
 246 766 246 766 246 729 c 2,5,-1
 246 0 l 1,6,-1
 123 0 l 1,7,-1
 123 1024 l 1,8,-1
 164 1024 l 1,9,-1
 231 920 l 1,10,11
 273 977 273 977 336.5 1010.5 c 128,-1,12
 400 1044 400 1044 475 1044 c 2,13,-1
 547 1044 l 1,14,-1
 547 907 l 1,15,-1
 424 907 l 2,0,1
EndSplineSet
EndChar

StartChar: s
Encoding: 115 115 86
Width: 940
Flags: W
LayerCount: 2
Fore
SplineSet
827 260 m 0,0,1
 827 198 827 198 802 146.5 c 128,-1,2
 777 95 777 95 734 58 c 128,-1,3
 691 21 691 21 634.5 0.5 c 128,-1,4
 578 -20 578 -20 516 -20 c 2,5,-1
 434 -20 l 2,6,7
 372 -20 372 -20 315.5 3.5 c 128,-1,8
 259 27 259 27 216.5 68 c 128,-1,9
 174 109 174 109 148.5 164 c 128,-1,10
 123 219 123 219 123 281 c 2,11,-1
 123 322 l 1,12,-1
 246 342 l 1,13,-1
 246 274 l 2,14,15
 246 237 246 237 261.5 204.5 c 128,-1,16
 277 172 277 172 303 148 c 128,-1,17
 329 124 329 124 363 110 c 128,-1,18
 397 96 397 96 434 96 c 2,19,-1
 516 96 l 2,20,21
 553 96 553 96 587 107 c 128,-1,22
 621 118 621 118 647.5 138.5 c 128,-1,23
 674 159 674 159 689.5 188 c 128,-1,24
 705 217 705 217 705 254 c 0,25,26
 705 309 705 309 681 344 c 128,-1,27
 657 379 657 379 617.5 402.5 c 128,-1,28
 578 426 578 426 527.5 441.5 c 128,-1,29
 477 457 477 457 424 472.5 c 128,-1,30
 371 488 371 488 320.5 508 c 128,-1,31
 270 528 270 528 230.5 560.5 c 128,-1,32
 191 593 191 593 167 642 c 128,-1,33
 143 691 143 691 143 764 c 0,34,35
 143 826 143 826 167 877.5 c 128,-1,36
 191 929 191 929 232 966 c 128,-1,37
 273 1003 273 1003 327.5 1023.5 c 128,-1,38
 382 1044 382 1044 444 1044 c 2,39,-1
 516 1044 l 2,40,41
 578 1044 578 1044 633 1020.5 c 128,-1,42
 688 997 688 997 729 956 c 128,-1,43
 770 915 770 915 793.5 860 c 128,-1,44
 817 805 817 805 817 743 c 2,45,-1
 817 739 l 1,46,-1
 694 719 l 1,47,-1
 694 750 l 2,48,49
 694 787 694 787 680 819.5 c 128,-1,50
 666 852 666 852 642 876 c 128,-1,51
 618 900 618 900 585.5 914 c 128,-1,52
 553 928 553 928 516 928 c 2,53,-1
 444 928 l 2,54,55
 407 928 407 928 374.5 917 c 128,-1,56
 342 906 342 906 318 885.5 c 128,-1,57
 294 865 294 865 280 836 c 128,-1,58
 266 807 266 807 266 770 c 0,59,60
 266 717 266 717 290 683.5 c 128,-1,61
 314 650 314 650 353.5 627 c 128,-1,62
 393 604 393 604 443.5 588.5 c 128,-1,63
 494 573 494 573 546.5 556.5 c 128,-1,64
 599 540 599 540 649.5 519 c 128,-1,65
 700 498 700 498 739.5 465 c 128,-1,66
 779 432 779 432 803 382.5 c 128,-1,67
 827 333 827 333 827 260 c 0,0,1
EndSplineSet
EndChar

StartChar: t
Encoding: 116 116 87
Width: 711
Flags: W
LayerCount: 2
Fore
SplineSet
496 0 m 2,0,1
 440 0 440 0 390.5 21 c 128,-1,2
 341 42 341 42 304.5 79 c 128,-1,3
 268 116 268 116 246.5 165 c 128,-1,4
 225 214 225 214 225 270 c 2,5,-1
 225 907 l 1,6,-1
 41 907 l 1,7,-1
 41 1024 l 1,8,-1
 225 1024 l 1,9,-1
 225 1270 l 1,10,-1
 348 1290 l 1,11,-1
 348 1024 l 1,12,-1
 608 1024 l 1,13,-1
 608 907 l 1,14,-1
 348 907 l 1,15,-1
 348 264 l 2,16,17
 348 233 348 233 359.5 206.5 c 128,-1,18
 371 180 371 180 391 160 c 128,-1,19
 411 140 411 140 438 128.5 c 128,-1,20
 465 117 465 117 496 117 c 2,21,-1
 608 117 l 1,22,-1
 608 0 l 1,23,-1
 496 0 l 2,0,1
EndSplineSet
EndChar

StartChar: u
Encoding: 117 117 88
Width: 930
Flags: W
LayerCount: 2
Fore
SplineSet
766 0 m 1,0,-1
 698 104 l 1,1,2
 656 47 656 47 593 13.5 c 128,-1,3
 530 -20 530 -20 455 -20 c 2,4,-1
 424 -20 l 2,5,6
 362 -20 362 -20 307 3.5 c 128,-1,7
 252 27 252 27 211 68 c 128,-1,8
 170 109 170 109 146.5 164 c 128,-1,9
 123 219 123 219 123 281 c 2,10,-1
 123 1024 l 1,11,-1
 246 1024 l 1,12,-1
 246 274 l 2,13,14
 246 237 246 237 260 204.5 c 128,-1,15
 274 172 274 172 298 148 c 128,-1,16
 322 124 322 124 354.5 110 c 128,-1,17
 387 96 387 96 424 96 c 2,18,-1
 506 96 l 2,19,20
 543 96 543 96 575.5 110 c 128,-1,21
 608 124 608 124 632 148 c 128,-1,22
 656 172 656 172 670 204.5 c 128,-1,23
 684 237 684 237 684 274 c 2,24,-1
 684 1024 l 1,25,-1
 807 1024 l 1,26,-1
 807 0 l 1,27,-1
 766 0 l 1,0,-1
EndSplineSet
EndChar

StartChar: v
Encoding: 118 118 89
Width: 827
Flags: W
LayerCount: 2
Fore
SplineSet
444 0 m 1,0,-1
 383 0 l 1,1,-1
 20 1024 l 1,2,-1
 143 1024 l 1,3,-1
 410 248 l 1,4,-1
 414 195 l 1,5,-1
 418 248 l 1,6,-1
 684 1024 l 1,7,-1
 807 1024 l 1,8,-1
 444 0 l 1,0,-1
EndSplineSet
EndChar

StartChar: w
Encoding: 119 119 90
Width: 1348
Flags: W
LayerCount: 2
Fore
SplineSet
985 0 m 1,0,-1
 918 0 l 1,1,-1
 678 772 l 1,2,-1
 674 825 l 1,3,-1
 670 772 l 1,4,-1
 430 0 l 1,5,-1
 362 0 l 1,6,-1
 20 1024 l 1,7,-1
 145 1024 l 1,8,-1
 389 250 l 1,9,-1
 393 197 l 1,10,-1
 397 250 l 1,11,-1
 637 1024 l 1,12,-1
 711 1024 l 1,13,-1
 950 250 l 1,14,-1
 954 197 l 1,15,-1
 958 250 l 1,16,-1
 1202 1024 l 1,17,-1
 1327 1024 l 1,18,-1
 985 0 l 1,0,-1
EndSplineSet
EndChar

StartChar: x
Encoding: 120 120 91
Width: 868
Flags: W
LayerCount: 2
Fore
SplineSet
653 0 m 1,0,-1
 434 393 l 1,1,-1
 215 0 l 1,2,-1
 82 0 l 1,3,-1
 369 512 l 1,4,-1
 82 1024 l 1,5,-1
 215 1024 l 1,6,-1
 434 631 l 1,7,-1
 653 1024 l 1,8,-1
 786 1024 l 1,9,-1
 500 512 l 1,10,-1
 786 0 l 1,11,-1
 653 0 l 1,0,-1
EndSplineSet
EndChar

StartChar: y
Encoding: 121 121 92
Width: 807
Flags: W
LayerCount: 2
Fore
SplineSet
289 -410 m 1,0,-1
 170 -410 l 1,1,-1
 352 88 l 1,2,-1
 20 1024 l 1,3,-1
 143 1024 l 1,4,-1
 410 248 l 1,5,-1
 414 195 l 1,6,-1
 418 248 l 1,7,-1
 684 1024 l 1,8,-1
 807 1024 l 1,9,-1
 289 -410 l 1,0,-1
EndSplineSet
EndChar

StartChar: z
Encoding: 122 122 93
Width: 848
Flags: W
LayerCount: 2
Fore
SplineSet
82 0 m 1,0,-1
 82 55 l 1,1,-1
 598 907 l 1,2,-1
 102 907 l 1,3,-1
 102 1024 l 1,4,-1
 766 1024 l 1,5,-1
 766 969 l 1,6,-1
 250 117 l 1,7,-1
 766 117 l 1,8,-1
 766 0 l 1,9,-1
 82 0 l 1,0,-1
EndSplineSet
EndChar

StartChar: braceleft
Encoding: 123 123 94
Width: 778
Flags: W
LayerCount: 2
Fore
SplineSet
334 313 m 2,0,1
 334 365 334 365 317 407.5 c 128,-1,2
 300 450 300 450 269.5 480 c 128,-1,3
 239 510 239 510 196.5 526.5 c 128,-1,4
 154 543 154 543 104 543 c 2,5,-1
 82 543 l 1,6,-1
 82 653 l 1,7,-1
 115 653 l 1,8,9
 163 655 163 655 203 672 c 128,-1,10
 243 689 243 689 272 719 c 128,-1,11
 301 749 301 749 317.5 790.5 c 128,-1,12
 334 832 334 832 334 883 c 2,13,-1
 334 1253 l 2,14,15
 334 1330 334 1330 360.5 1394.5 c 128,-1,16
 387 1459 387 1459 434.5 1506 c 128,-1,17
 482 1553 482 1553 546.5 1579.5 c 128,-1,18
 611 1606 611 1606 686 1606 c 2,19,-1
 696 1606 l 1,20,-1
 696 1495 l 1,21,-1
 686 1495 l 2,22,23
 636 1495 636 1495 594 1478.5 c 128,-1,24
 552 1462 552 1462 521.5 1432 c 128,-1,25
 491 1402 491 1402 474 1359.5 c 128,-1,26
 457 1317 457 1317 457 1266 c 2,27,-1
 457 895 l 2,28,29
 457 798 457 798 414.5 720 c 128,-1,30
 372 642 372 642 301 598 c 1,31,32
 372 552 372 552 414.5 475 c 128,-1,33
 457 398 457 398 457 301 c 2,34,-1
 457 -70 l 2,35,36
 457 -121 457 -121 474 -163.5 c 128,-1,37
 491 -206 491 -206 521.5 -236 c 128,-1,38
 552 -266 552 -266 594 -282.5 c 128,-1,39
 636 -299 636 -299 686 -299 c 2,40,-1
 696 -299 l 1,41,-1
 696 -410 l 1,42,-1
 686 -410 l 2,43,44
 611 -410 611 -410 546.5 -383.5 c 128,-1,45
 482 -357 482 -357 434.5 -310 c 128,-1,46
 387 -263 387 -263 360.5 -198.5 c 128,-1,47
 334 -134 334 -134 334 -57 c 2,48,-1
 334 313 l 2,0,1
EndSplineSet
EndChar

StartChar: bar
Encoding: 124 124 95
Width: 457
Flags: W
LayerCount: 2
Fore
SplineSet
164 -410 m 1,0,-1
 164 1606 l 1,1,-1
 293 1606 l 1,2,-1
 293 -410 l 1,3,-1
 164 -410 l 1,0,-1
EndSplineSet
EndChar

StartChar: braceright
Encoding: 125 125 96
Width: 778
Flags: W
LayerCount: 2
Fore
SplineSet
444 -57 m 2,0,1
 444 -134 444 -134 417.5 -198.5 c 128,-1,2
 391 -263 391 -263 343.5 -310 c 128,-1,3
 296 -357 296 -357 231.5 -383.5 c 128,-1,4
 167 -410 167 -410 92 -410 c 2,5,-1
 82 -410 l 1,6,-1
 82 -299 l 1,7,-1
 92 -299 l 2,8,9
 142 -299 142 -299 184 -282.5 c 128,-1,10
 226 -266 226 -266 257 -236 c 128,-1,11
 288 -206 288 -206 305 -163.5 c 128,-1,12
 322 -121 322 -121 322 -70 c 2,13,-1
 322 301 l 2,14,15
 322 398 322 398 363.5 475 c 128,-1,16
 405 552 405 552 477 598 c 1,17,18
 405 643 405 643 363.5 720.5 c 128,-1,19
 322 798 322 798 322 895 c 2,20,-1
 322 1266 l 2,21,22
 322 1317 322 1317 305 1359.5 c 128,-1,23
 288 1402 288 1402 257 1432 c 128,-1,24
 226 1462 226 1462 184 1478.5 c 128,-1,25
 142 1495 142 1495 92 1495 c 2,26,-1
 82 1495 l 1,27,-1
 82 1606 l 1,28,-1
 92 1606 l 2,29,30
 167 1606 167 1606 231.5 1579.5 c 128,-1,31
 296 1553 296 1553 343.5 1506 c 128,-1,32
 391 1459 391 1459 417.5 1394.5 c 128,-1,33
 444 1330 444 1330 444 1253 c 2,34,-1
 444 883 l 2,35,36
 444 831 444 831 461 788.5 c 128,-1,37
 478 746 478 746 509 716 c 128,-1,38
 540 686 540 686 582 669.5 c 128,-1,39
 624 653 624 653 674 653 c 2,40,-1
 696 653 l 1,41,-1
 696 543 l 1,42,-1
 664 543 l 1,43,44
 616 542 616 542 575.5 524.5 c 128,-1,45
 535 507 535 507 505.5 476.5 c 128,-1,46
 476 446 476 446 460 404.5 c 128,-1,47
 444 363 444 363 444 313 c 2,48,-1
 444 -57 l 2,0,1
EndSplineSet
EndChar

StartChar: asciitilde
Encoding: 126 126 97
Width: 985
Flags: W
LayerCount: 2
Fore
SplineSet
659 604 m 0,0,1
 687 604 687 604 708.5 615.5 c 128,-1,2
 730 627 730 627 745 646.5 c 128,-1,3
 760 666 760 666 768 692.5 c 128,-1,4
 776 719 776 719 776 750 c 1,5,-1
 883 750 l 1,6,7
 883 696 883 696 869 649 c 128,-1,8
 855 602 855 602 827 567 c 128,-1,9
 799 532 799 532 756.5 512 c 128,-1,10
 714 492 714 492 657 492 c 0,11,12
 618 492 618 492 585.5 503 c 128,-1,13
 553 514 553 514 525 530 c 128,-1,14
 497 546 497 546 472 565.5 c 128,-1,15
 447 585 447 585 423 601 c 128,-1,16
 399 617 399 617 375.5 628 c 128,-1,17
 352 639 352 639 326 639 c 0,18,19
 272 639 272 639 240.5 598 c 128,-1,20
 209 557 209 557 209 494 c 1,21,-1
 102 494 l 1,22,23
 102 548 102 548 116 595 c 128,-1,24
 130 642 130 642 158.5 677 c 128,-1,25
 187 712 187 712 229.5 732 c 128,-1,26
 272 752 272 752 328 752 c 0,27,28
 386 752 386 752 430.5 729 c 128,-1,29
 475 706 475 706 513 678 c 128,-1,30
 551 650 551 650 586 627 c 128,-1,31
 621 604 621 604 659 604 c 0,0,1
EndSplineSet
EndChar

StartChar: exclamdown
Encoding: 161 161 99
Width: 428
Flags: W
LayerCount: 2
Fore
SplineSet
305 -410 m 1,0,-1
 123 -410 l 1,1,-1
 178 590 l 1,2,-1
 250 590 l 1,3,-1
 305 -410 l 1,0,-1
291 1024 m 1,4,-1
 291 870 l 1,5,-1
 137 870 l 1,6,-1
 137 1024 l 1,7,-1
 291 1024 l 1,4,-1
EndSplineSet
EndChar

StartChar: cent
Encoding: 162 162 100
Width: 930
Flags: W
LayerCount: 2
Fore
SplineSet
184 -20 m 1,0,-1
 262 231 l 1,1,2
 199 272 199 272 161 338.5 c 128,-1,3
 123 405 123 405 123 485 c 2,4,-1
 123 948 l 2,5,6
 123 1010 123 1010 146.5 1065 c 128,-1,7
 170 1120 170 1120 211 1161 c 128,-1,8
 252 1202 252 1202 307 1225.5 c 128,-1,9
 362 1249 362 1249 424 1249 c 2,10,-1
 506 1249 l 2,11,12
 523 1249 523 1249 539.5 1247.5 c 128,-1,13
 556 1246 556 1246 571 1241 c 1,14,-1
 637 1454 l 1,15,-1
 745 1454 l 1,16,-1
 668 1202 l 1,17,18
 731 1162 731 1162 769 1095.5 c 128,-1,19
 807 1029 807 1029 807 948 c 2,20,-1
 807 907 l 1,21,-1
 684 887 l 1,22,-1
 684 954 l 2,23,24
 684 992 684 992 670 1024.5 c 128,-1,25
 656 1057 656 1057 631 1081 c 1,26,-1
 393 303 l 1,27,28
 401 301 401 301 408.5 301 c 128,-1,29
 416 301 416 301 424 301 c 2,30,-1
 506 301 l 2,31,32
 543 301 543 301 575.5 315 c 128,-1,33
 608 329 608 329 632 353 c 128,-1,34
 656 377 656 377 670 409.5 c 128,-1,35
 684 442 684 442 684 479 c 2,36,-1
 684 547 l 1,37,-1
 807 526 l 1,38,-1
 807 485 l 2,39,40
 807 423 807 423 783.5 368 c 128,-1,41
 760 313 760 313 719 272 c 128,-1,42
 678 231 678 231 623 207.5 c 128,-1,43
 568 184 568 184 506 184 c 2,44,-1
 424 184 l 2,45,46
 390 184 390 184 358 190 c 1,47,-1
 293 -20 l 1,48,-1
 184 -20 l 1,0,-1
246 479 m 1,49,50
 246 442 246 442 260 409.5 c 128,-1,51
 274 377 274 377 299 352 c 1,52,-1
 537 1128 l 1,53,54
 529 1130 529 1130 521.5 1131.5 c 128,-1,55
 514 1133 514 1133 506 1133 c 2,56,-1
 424 1133 l 2,57,58
 387 1133 387 1133 354.5 1119 c 128,-1,59
 322 1105 322 1105 298 1080.5 c 128,-1,60
 274 1056 274 1056 260 1023.5 c 128,-1,61
 246 991 246 991 246 954 c 2,62,-1
 246 479 l 1,63,-1
 246 479 l 1,49,50
EndSplineSet
EndChar

StartChar: sterling
Encoding: 163 163 101
Width: 1108
Flags: W
LayerCount: 2
Fore
SplineSet
303 686 m 1,0,1
 289 734 289 734 275 783.5 c 128,-1,2
 261 833 261 833 250 884 c 128,-1,3
 239 935 239 935 232 989.5 c 128,-1,4
 225 1044 225 1044 225 1102 c 0,5,6
 225 1175 225 1175 252.5 1239 c 128,-1,7
 280 1303 280 1303 328 1351 c 128,-1,8
 376 1399 376 1399 440.5 1426.5 c 128,-1,9
 505 1454 505 1454 578 1454 c 2,10,-1
 606 1454 l 2,11,12
 679 1454 679 1454 743 1426.5 c 128,-1,13
 807 1399 807 1399 855 1351 c 128,-1,14
 903 1303 903 1303 930.5 1239 c 128,-1,15
 958 1175 958 1175 958 1102 c 2,16,-1
 958 1065 l 1,17,-1
 829 1044 l 1,18,-1
 829 1102 l 2,19,20
 829 1150 829 1150 811 1191.5 c 128,-1,21
 793 1233 793 1233 762 1264 c 128,-1,22
 731 1295 731 1295 689.5 1313 c 128,-1,23
 648 1331 648 1331 600 1331 c 2,24,-1
 584 1331 l 2,25,26
 536 1331 536 1331 494.5 1313 c 128,-1,27
 453 1295 453 1295 421.5 1264 c 128,-1,28
 390 1233 390 1233 372 1191.5 c 128,-1,29
 354 1150 354 1150 354 1102 c 0,30,31
 354 1047 354 1047 361.5 994.5 c 128,-1,32
 369 942 369 942 381.5 891 c 128,-1,33
 394 840 394 840 409.5 789 c 128,-1,34
 425 738 425 738 440 686 c 1,35,-1
 780 686 l 1,36,-1
 780 584 l 1,37,-1
 467 584 l 1,38,39
 479 528 479 528 487.5 471 c 128,-1,40
 496 414 496 414 496 352 c 0,41,42
 496 286 496 286 475.5 227.5 c 128,-1,43
 455 169 455 169 420 123 c 1,44,-1
 965 123 l 1,45,-1
 965 0 l 1,46,-1
 123 0 l 1,47,-1
 123 123 l 1,48,-1
 158 123 l 2,49,50
 206 123 206 123 244.5 141 c 128,-1,51
 283 159 283 159 310 190 c 128,-1,52
 337 221 337 221 352 262.5 c 128,-1,53
 367 304 367 304 367 352 c 0,54,55
 367 412 367 412 357.5 469.5 c 128,-1,56
 348 527 348 527 334 584 c 1,57,-1
 123 584 l 1,58,-1
 123 686 l 1,59,-1
 303 686 l 1,0,1
EndSplineSet
EndChar

StartChar: currency
Encoding: 164 164 102
Width: 1237
Flags: W
LayerCount: 2
Fore
SplineSet
215 1212 m 1,0,-1
 365 1061 l 1,1,2
 419 1101 419 1101 482.5 1123 c 128,-1,3
 546 1145 546 1145 618 1145 c 256,4,5
 690 1145 690 1145 754 1123 c 128,-1,6
 818 1101 818 1101 870 1061 c 1,7,-1
 1022 1212 l 1,8,-1
 1112 1120 l 1,9,-1
 963 971 l 1,10,11
 1001 917 1001 917 1022.5 853.5 c 128,-1,12
 1044 790 1044 790 1044 719 c 256,13,14
 1044 648 1044 648 1022.5 584 c 128,-1,15
 1001 520 1001 520 961 467 c 1,16,-1
 1114 313 l 1,17,-1
 1022 223 l 1,18,-1
 868 375 l 1,19,20
 816 337 816 337 753 316 c 128,-1,21
 690 295 690 295 618 295 c 0,22,23
 547 295 547 295 483 316 c 128,-1,24
 419 337 419 337 367 375 c 1,25,-1
 215 223 l 1,26,-1
 123 313 l 1,27,-1
 276 467 l 1,28,29
 236 520 236 520 215.5 584 c 128,-1,30
 195 648 195 648 195 719 c 256,31,32
 195 790 195 790 215.5 853 c 128,-1,33
 236 916 236 916 274 969 c 1,34,-1
 125 1120 l 1,35,-1
 215 1212 l 1,0,-1
317 719 m 256,36,37
 317 655 317 655 340.5 599.5 c 128,-1,38
 364 544 364 544 404.5 503 c 128,-1,39
 445 462 445 462 500 438 c 128,-1,40
 555 414 555 414 618 414 c 0,41,42
 682 414 682 414 737.5 438 c 128,-1,43
 793 462 793 462 834 503 c 128,-1,44
 875 544 875 544 898.5 599.5 c 128,-1,45
 922 655 922 655 922 719 c 256,46,47
 922 783 922 783 898.5 839 c 128,-1,48
 875 895 875 895 834 936.5 c 128,-1,49
 793 978 793 978 737.5 1002 c 128,-1,50
 682 1026 682 1026 618 1026 c 0,51,52
 555 1026 555 1026 500 1002 c 128,-1,53
 445 978 445 978 404.5 936.5 c 128,-1,54
 364 895 364 895 340.5 839 c 128,-1,55
 317 783 317 783 317 719 c 256,36,37
EndSplineSet
EndChar

StartChar: yen
Encoding: 165 165 103
Width: 950
Flags: W
LayerCount: 2
Fore
SplineSet
397 711 m 1,0,-1
 41 1434 l 1,1,-1
 180 1434 l 1,2,-1
 475 838 l 1,3,-1
 770 1434 l 1,4,-1
 909 1434 l 1,5,-1
 553 711 l 1,6,-1
 827 711 l 1,7,-1
 827 608 l 1,8,-1
 541 608 l 1,9,-1
 541 475 l 1,10,-1
 827 475 l 1,11,-1
 827 373 l 1,12,-1
 541 373 l 1,13,-1
 541 0 l 1,14,-1
 412 0 l 1,15,-1
 412 373 l 1,16,-1
 123 373 l 1,17,-1
 123 475 l 1,18,-1
 412 475 l 1,19,-1
 412 608 l 1,20,-1
 123 608 l 1,21,-1
 123 711 l 1,22,-1
 397 711 l 1,0,-1
EndSplineSet
EndChar

StartChar: brokenbar
Encoding: 166 166 104
Width: 457
Flags: W
LayerCount: 2
Fore
SplineSet
164 -410 m 1,0,-1
 164 496 l 1,1,-1
 293 496 l 1,2,-1
 293 -410 l 1,3,-1
 164 -410 l 1,0,-1
164 700 m 1,4,-1
 164 1606 l 1,5,-1
 293 1606 l 1,6,-1
 293 700 l 1,7,-1
 164 700 l 1,4,-1
EndSplineSet
EndChar

StartChar: section
Encoding: 167 167 105
Width: 1073
Flags: W
LayerCount: 2
Fore
SplineSet
143 1102 m 2,0,1
 143 1175 143 1175 170.5 1239 c 128,-1,2
 198 1303 198 1303 246 1351 c 128,-1,3
 294 1399 294 1399 358.5 1426.5 c 128,-1,4
 423 1454 423 1454 496 1454 c 2,5,-1
 588 1454 l 2,6,7
 661 1454 661 1454 725 1426.5 c 128,-1,8
 789 1399 789 1399 837 1351 c 128,-1,9
 885 1303 885 1303 912.5 1239 c 128,-1,10
 940 1175 940 1175 940 1102 c 2,11,-1
 940 1065 l 1,12,-1
 811 1044 l 1,13,-1
 811 1102 l 2,14,15
 811 1150 811 1150 793 1191.5 c 128,-1,16
 775 1233 775 1233 744 1264 c 128,-1,17
 713 1295 713 1295 671.5 1313 c 128,-1,18
 630 1331 630 1331 582 1331 c 2,19,-1
 502 1331 l 2,20,21
 454 1331 454 1331 412.5 1313 c 128,-1,22
 371 1295 371 1295 339.5 1264 c 128,-1,23
 308 1233 308 1233 290 1191.5 c 128,-1,24
 272 1150 272 1150 272 1102 c 2,25,-1
 272 1075 l 2,26,27
 272 1006 272 1006 301 959 c 128,-1,28
 330 912 330 912 378 878.5 c 128,-1,29
 426 845 426 845 486.5 820.5 c 128,-1,30
 547 796 547 796 611 770.5 c 128,-1,31
 675 745 675 745 735.5 714.5 c 128,-1,32
 796 684 796 684 844 639.5 c 128,-1,33
 892 595 892 595 921 531 c 128,-1,34
 950 467 950 467 950 375 c 2,35,-1
 950 332 l 2,36,37
 950 284 950 284 937 240 c 128,-1,38
 924 196 924 196 901 158 c 1,39,40
 924 119 924 119 937 72 c 128,-1,41
 950 25 950 25 950 -35 c 2,42,-1
 950 -78 l 2,43,44
 950 -151 950 -151 920.5 -215 c 128,-1,45
 891 -279 891 -279 841.5 -327 c 128,-1,46
 792 -375 792 -375 726.5 -402.5 c 128,-1,47
 661 -430 661 -430 588 -430 c 2,48,-1
 485 -430 l 2,49,50
 412 -430 412 -430 346.5 -402.5 c 128,-1,51
 281 -375 281 -375 231.5 -327 c 128,-1,52
 182 -279 182 -279 152.5 -215 c 128,-1,53
 123 -151 123 -151 123 -78 c 2,54,-1
 123 -20 l 1,55,-1
 252 0 l 1,56,-1
 252 -78 l 2,57,58
 252 -126 252 -126 271.5 -167.5 c 128,-1,59
 291 -209 291 -209 324 -240 c 128,-1,60
 357 -271 357 -271 400.5 -289 c 128,-1,61
 444 -307 444 -307 492 -307 c 2,62,-1
 582 -307 l 2,63,64
 630 -307 630 -307 673 -289 c 128,-1,65
 716 -271 716 -271 749 -240 c 128,-1,66
 782 -209 782 -209 801.5 -167.5 c 128,-1,67
 821 -126 821 -126 821 -78 c 2,68,-1
 821 -35 l 2,69,70
 821 39 821 39 792 88 c 128,-1,71
 763 137 763 137 715 171.5 c 128,-1,72
 667 206 667 206 606.5 230 c 128,-1,73
 546 254 546 254 482 278 c 128,-1,74
 418 302 418 302 357.5 331 c 128,-1,75
 297 360 297 360 249 403.5 c 128,-1,76
 201 447 201 447 172 510 c 128,-1,77
 143 573 143 573 143 666 c 2,78,-1
 143 692 l 2,79,80
 143 743 143 743 156.5 789 c 128,-1,81
 170 835 170 835 195 877 c 1,82,83
 170 915 170 915 156.5 963.5 c 128,-1,84
 143 1012 143 1012 143 1075 c 2,85,-1
 143 1102 l 2,0,1
821 375 m 2,86,87
 821 444 821 444 795.5 491.5 c 128,-1,88
 770 539 770 539 727.5 572.5 c 128,-1,89
 685 606 685 606 630 629.5 c 128,-1,90
 575 653 575 653 516.5 675 c 128,-1,91
 458 697 458 697 399.5 721.5 c 128,-1,92
 341 746 341 746 291 780 c 1,93,94
 272 739 272 739 272 692 c 2,95,-1
 272 666 l 2,96,97
 272 600 272 600 298 555 c 128,-1,98
 324 510 324 510 366.5 477 c 128,-1,99
 409 444 409 444 464.5 420 c 128,-1,100
 520 396 520 396 579.5 372.5 c 128,-1,101
 639 349 639 349 698 323 c 128,-1,102
 757 297 757 297 807 260 c 1,103,104
 813 277 813 277 817 294.5 c 128,-1,105
 821 312 821 312 821 332 c 2,106,-1
 821 375 l 2,86,87
EndSplineSet
EndChar

StartChar: dieresis
Encoding: 168 168 106
Width: 950
Flags: W
LayerCount: 2
Fore
SplineSet
205 1231 m 1,0,-1
 205 1384 l 1,1,-1
 358 1384 l 1,2,-1
 358 1231 l 1,3,-1
 205 1231 l 1,0,-1
592 1231 m 1,4,-1
 592 1384 l 1,5,-1
 745 1384 l 1,6,-1
 745 1231 l 1,7,-1
 592 1231 l 1,4,-1
EndSplineSet
EndChar

StartChar: copyright
Encoding: 169 169 107
Width: 1679
Flags: W
LayerCount: 2
Fore
SplineSet
102 717 m 256,0,1
 102 819 102 819 128.5 913 c 128,-1,2
 155 1007 155 1007 203 1089 c 128,-1,3
 251 1171 251 1171 318 1238 c 128,-1,4
 385 1305 385 1305 467 1353 c 128,-1,5
 549 1401 549 1401 643.5 1427.5 c 128,-1,6
 738 1454 738 1454 840 1454 c 256,7,8
 942 1454 942 1454 1036 1427.5 c 128,-1,9
 1130 1401 1130 1401 1212 1353 c 128,-1,10
 1294 1305 1294 1305 1361 1238 c 128,-1,11
 1428 1171 1428 1171 1476 1089 c 128,-1,12
 1524 1007 1524 1007 1550.5 913 c 128,-1,13
 1577 819 1577 819 1577 717 c 256,14,15
 1577 615 1577 615 1550.5 520.5 c 128,-1,16
 1524 426 1524 426 1476 344.5 c 128,-1,17
 1428 263 1428 263 1361 195.5 c 128,-1,18
 1294 128 1294 128 1212 80.5 c 128,-1,19
 1130 33 1130 33 1036 6.5 c 128,-1,20
 942 -20 942 -20 840 -20 c 256,21,22
 738 -20 738 -20 643.5 6.5 c 128,-1,23
 549 33 549 33 467 80.5 c 128,-1,24
 385 128 385 128 318 195.5 c 128,-1,25
 251 263 251 263 203 344.5 c 128,-1,26
 155 426 155 426 128.5 520.5 c 128,-1,27
 102 615 102 615 102 717 c 256,0,1
217 717 m 256,28,29
 217 586 217 586 265 471 c 128,-1,30
 313 356 313 356 397 270.5 c 128,-1,31
 481 185 481 185 594.5 135.5 c 128,-1,32
 708 86 708 86 840 86 c 0,33,34
 971 86 971 86 1084.5 135.5 c 128,-1,35
 1198 185 1198 185 1282 270.5 c 128,-1,36
 1366 356 1366 356 1414 471 c 128,-1,37
 1462 586 1462 586 1462 717 c 256,38,39
 1462 848 1462 848 1414 963 c 128,-1,40
 1366 1078 1366 1078 1282 1163.5 c 128,-1,41
 1198 1249 1198 1249 1084.5 1298.5 c 128,-1,42
 971 1348 971 1348 840 1348 c 0,43,44
 708 1348 708 1348 594.5 1298.5 c 128,-1,45
 481 1249 481 1249 397 1163.5 c 128,-1,46
 313 1078 313 1078 265 963 c 128,-1,47
 217 848 217 848 217 717 c 256,28,29
1100 485 m 1,48,49
 1100 437 1100 437 1082 395.5 c 128,-1,50
 1064 354 1064 354 1032.5 323 c 128,-1,51
 1001 292 1001 292 959.5 274 c 128,-1,52
 918 256 918 256 870 256 c 2,53,-1
 809 256 l 2,54,55
 761 256 761 256 719.5 274 c 128,-1,56
 678 292 678 292 647 323 c 128,-1,57
 616 354 616 354 598 395.5 c 128,-1,58
 580 437 580 437 580 485 c 2,59,-1
 580 948 l 2,60,61
 580 996 580 996 598 1037.5 c 128,-1,62
 616 1079 616 1079 647 1110.5 c 128,-1,63
 678 1142 678 1142 719.5 1160 c 128,-1,64
 761 1178 761 1178 809 1178 c 2,65,-1
 870 1178 l 2,66,67
 918 1178 918 1178 959.5 1160 c 128,-1,68
 1001 1142 1001 1142 1032.5 1110.5 c 128,-1,69
 1064 1079 1064 1079 1082 1037.5 c 128,-1,70
 1100 996 1100 996 1100 948 c 2,71,-1
 1100 897 l 1,72,-1
 985 879 l 1,73,-1
 985 948 l 2,74,75
 985 973 985 973 975.5 994.5 c 128,-1,76
 966 1016 966 1016 950 1032 c 128,-1,77
 934 1048 934 1048 912.5 1057.5 c 128,-1,78
 891 1067 891 1067 866 1067 c 2,79,-1
 813 1067 l 2,80,81
 789 1067 789 1067 767 1057.5 c 128,-1,82
 745 1048 745 1048 729 1032 c 128,-1,83
 713 1016 713 1016 703.5 994.5 c 128,-1,84
 694 973 694 973 694 948 c 2,85,-1
 694 485 l 2,86,87
 694 461 694 461 703.5 439.5 c 128,-1,88
 713 418 713 418 729 402 c 128,-1,89
 745 386 745 386 767 376.5 c 128,-1,90
 789 367 789 367 813 367 c 2,91,-1
 866 367 l 2,92,93
 891 367 891 367 912.5 376.5 c 128,-1,94
 934 386 934 386 950 402 c 128,-1,95
 966 418 966 418 975.5 439.5 c 128,-1,96
 985 461 985 461 985 485 c 2,97,-1
 985 555 l 1,98,-1
 1100 537 l 1,99,-1
 1100 485 l 1,100,-1
 1100 485 l 1,48,49
EndSplineSet
EndChar

StartChar: ordfeminine
Encoding: 170 170 108
Width: 717
Flags: W
LayerCount: 2
Fore
SplineSet
532 795 m 1,0,-1
 496 848 l 1,1,2
 470 820 470 820 431.5 801 c 128,-1,3
 393 782 393 782 352 782 c 2,4,-1
 334 782 l 2,5,6
 294 782 294 782 259 797 c 128,-1,7
 224 812 224 812 198.5 838.5 c 128,-1,8
 173 865 173 865 158 901 c 128,-1,9
 143 937 143 937 143 979 c 0,10,11
 143 1019 143 1019 158 1053.5 c 128,-1,12
 173 1088 173 1088 198.5 1113.5 c 128,-1,13
 224 1139 224 1139 259 1154 c 128,-1,14
 294 1169 294 1169 334 1169 c 2,15,-1
 479 1169 l 1,16,-1
 479 1255 l 2,17,18
 479 1275 479 1275 471.5 1292.5 c 128,-1,19
 464 1310 464 1310 451 1323 c 128,-1,20
 438 1336 438 1336 420.5 1344 c 128,-1,21
 403 1352 403 1352 383 1352 c 2,22,-1
 340 1352 l 2,23,24
 320 1352 320 1352 302.5 1344 c 128,-1,25
 285 1336 285 1336 272 1323 c 128,-1,26
 259 1310 259 1310 251.5 1292.5 c 128,-1,27
 244 1275 244 1275 244 1255 c 2,28,-1
 244 1219 l 1,29,-1
 150 1243 l 1,30,31
 150 1284 150 1284 164.5 1320 c 128,-1,32
 179 1356 179 1356 204.5 1383 c 128,-1,33
 230 1410 230 1410 265 1426 c 128,-1,34
 300 1442 300 1442 340 1442 c 2,35,-1
 383 1442 l 2,36,37
 423 1442 423 1442 457.5 1427 c 128,-1,38
 492 1412 492 1412 517.5 1386 c 128,-1,39
 543 1360 543 1360 558 1325 c 128,-1,40
 573 1290 573 1290 573 1251 c 2,41,-1
 573 795 l 1,42,-1
 532 795 l 1,0,-1
479 1092 m 1,43,-1
 334 1092 l 2,44,45
 294 1092 294 1092 266 1064 c 128,-1,46
 238 1036 238 1036 238 995 c 2,47,-1
 238 969 l 2,48,49
 238 950 238 950 245.5 932.5 c 128,-1,50
 253 915 253 915 266 901.5 c 128,-1,51
 279 888 279 888 296.5 880 c 128,-1,52
 314 872 314 872 334 872 c 2,53,-1
 383 872 l 2,54,55
 403 872 403 872 420.5 880 c 128,-1,56
 438 888 438 888 451 901.5 c 128,-1,57
 464 915 464 915 471.5 932.5 c 128,-1,58
 479 950 479 950 479 969 c 2,59,-1
 479 1092 l 1,43,-1
143 631 m 1,60,-1
 573 631 l 1,61,-1
 573 553 l 1,62,-1
 143 553 l 1,63,-1
 143 631 l 1,60,-1
EndSplineSet
EndChar

StartChar: guillemotleft
Encoding: 171 171 109
Width: 961
Flags: W
LayerCount: 2
Fore
SplineSet
797 84 m 1,0,-1
 420 467 l 1,1,-1
 797 850 l 1,2,-1
 838 809 l 1,3,-1
 588 467 l 1,4,-1
 838 125 l 1,5,-1
 797 84 l 1,0,-1
459 84 m 1,6,-1
 82 467 l 1,7,-1
 459 850 l 1,8,-1
 500 809 l 1,9,-1
 250 467 l 1,10,-1
 500 125 l 1,11,-1
 459 84 l 1,6,-1
EndSplineSet
EndChar

StartChar: logicalnot
Encoding: 172 172 110
Width: 1270
Flags: W
LayerCount: 2
Fore
SplineSet
1147 782 m 1,0,-1
 1147 309 l 1,1,-1
 1018 309 l 1,2,-1
 1018 653 l 1,3,-1
 123 653 l 1,4,-1
 123 782 l 1,5,-1
 1147 782 l 1,0,-1
EndSplineSet
EndChar

StartChar: registered
Encoding: 174 174 111
Width: 1679
Flags: W
LayerCount: 2
Fore
SplineSet
102 717 m 256,0,1
 102 819 102 819 128.5 913 c 128,-1,2
 155 1007 155 1007 203 1089 c 128,-1,3
 251 1171 251 1171 318 1238 c 128,-1,4
 385 1305 385 1305 467 1353 c 128,-1,5
 549 1401 549 1401 643.5 1427.5 c 128,-1,6
 738 1454 738 1454 840 1454 c 256,7,8
 942 1454 942 1454 1036 1427.5 c 128,-1,9
 1130 1401 1130 1401 1212 1353 c 128,-1,10
 1294 1305 1294 1305 1361 1238 c 128,-1,11
 1428 1171 1428 1171 1476 1089 c 128,-1,12
 1524 1007 1524 1007 1550.5 913 c 128,-1,13
 1577 819 1577 819 1577 717 c 256,14,15
 1577 615 1577 615 1550.5 520.5 c 128,-1,16
 1524 426 1524 426 1476 344.5 c 128,-1,17
 1428 263 1428 263 1361 195.5 c 128,-1,18
 1294 128 1294 128 1212 80.5 c 128,-1,19
 1130 33 1130 33 1036 6.5 c 128,-1,20
 942 -20 942 -20 840 -20 c 256,21,22
 738 -20 738 -20 643.5 6.5 c 128,-1,23
 549 33 549 33 467 80.5 c 128,-1,24
 385 128 385 128 318 195.5 c 128,-1,25
 251 263 251 263 203 344.5 c 128,-1,26
 155 426 155 426 128.5 520.5 c 128,-1,27
 102 615 102 615 102 717 c 256,0,1
217 717 m 256,28,29
 217 586 217 586 265 471 c 128,-1,30
 313 356 313 356 397 270.5 c 128,-1,31
 481 185 481 185 594.5 135.5 c 128,-1,32
 708 86 708 86 840 86 c 0,33,34
 971 86 971 86 1084.5 135.5 c 128,-1,35
 1198 185 1198 185 1282 270.5 c 128,-1,36
 1366 356 1366 356 1414 471 c 128,-1,37
 1462 586 1462 586 1462 717 c 256,38,39
 1462 848 1462 848 1414 963 c 128,-1,40
 1366 1078 1366 1078 1282 1163.5 c 128,-1,41
 1198 1249 1198 1249 1084.5 1298.5 c 128,-1,42
 971 1348 971 1348 840 1348 c 0,43,44
 708 1348 708 1348 594.5 1298.5 c 128,-1,45
 481 1249 481 1249 397 1163.5 c 128,-1,46
 313 1078 313 1078 265 963 c 128,-1,47
 217 848 217 848 217 717 c 256,28,29
1001 268 m 1,48,-1
 791 598 l 1,49,-1
 715 598 l 1,50,-1
 715 268 l 1,51,-1
 600 268 l 1,52,-1
 600 1165 l 1,53,-1
 891 1165 l 2,54,55
 939 1165 939 1165 980.5 1147 c 128,-1,56
 1022 1129 1022 1129 1053 1098 c 128,-1,57
 1084 1067 1084 1067 1102 1025.5 c 128,-1,58
 1120 984 1120 984 1120 936 c 2,59,-1
 1120 829 l 2,60,61
 1120 786 1120 786 1105.5 746.5 c 128,-1,62
 1091 707 1091 707 1065 676.5 c 128,-1,63
 1039 646 1039 646 1003.5 625.5 c 128,-1,64
 968 605 968 605 926 600 c 1,65,66
 950 563 950 563 977.5 519.5 c 128,-1,67
 1005 476 1005 476 1032.5 432 c 128,-1,68
 1060 388 1060 388 1087 345.5 c 128,-1,69
 1114 303 1114 303 1137 268 c 1,70,-1
 1001 268 l 1,48,-1
1006 936 m 2,71,72
 1006 960 1006 960 996.5 982 c 128,-1,73
 987 1004 987 1004 971 1020 c 128,-1,74
 955 1036 955 1036 933 1045.5 c 128,-1,75
 911 1055 911 1055 887 1055 c 2,76,-1
 715 1055 l 1,77,-1
 715 709 l 1,78,-1
 887 709 l 2,79,80
 911 709 911 709 933 718.5 c 128,-1,81
 955 728 955 728 971 744 c 128,-1,82
 987 760 987 760 996.5 782 c 128,-1,83
 1006 804 1006 804 1006 829 c 2,84,-1
 1006 936 l 2,71,72
EndSplineSet
EndChar

StartChar: macron
Encoding: 175 175 112
Width: 1010
Flags: W
LayerCount: 2
Fore
SplineSet
205 1329 m 1,0,-1
 805 1329 l 1,1,-1
 805 1231 l 1,2,-1
 205 1231 l 1,3,-1
 205 1329 l 1,0,-1
EndSplineSet
EndChar

StartChar: degree
Encoding: 176 176 113
Width: 856
Flags: W
LayerCount: 2
Fore
SplineSet
143 1169 m 256,0,1
 143 1228 143 1228 165.5 1280 c 128,-1,2
 188 1332 188 1332 226.5 1370.5 c 128,-1,3
 265 1409 265 1409 317 1431.5 c 128,-1,4
 369 1454 369 1454 428 1454 c 256,5,6
 487 1454 487 1454 539 1431.5 c 128,-1,7
 591 1409 591 1409 629.5 1370.5 c 128,-1,8
 668 1332 668 1332 690.5 1280 c 128,-1,9
 713 1228 713 1228 713 1169 c 256,10,11
 713 1110 713 1110 690.5 1058.5 c 128,-1,12
 668 1007 668 1007 629.5 968.5 c 128,-1,13
 591 930 591 930 539 907.5 c 128,-1,14
 487 885 487 885 428 885 c 256,15,16
 369 885 369 885 317 907.5 c 128,-1,17
 265 930 265 930 226.5 968.5 c 128,-1,18
 188 1007 188 1007 165.5 1058.5 c 128,-1,19
 143 1110 143 1110 143 1169 c 256,0,1
258 1169 m 0,20,21
 258 1134 258 1134 271.5 1102.5 c 128,-1,22
 285 1071 285 1071 308 1047.5 c 128,-1,23
 331 1024 331 1024 362 1010.5 c 128,-1,24
 393 997 393 997 428 997 c 256,25,26
 463 997 463 997 494 1010.5 c 128,-1,27
 525 1024 525 1024 548 1047.5 c 128,-1,28
 571 1071 571 1071 584.5 1102.5 c 128,-1,29
 598 1134 598 1134 598 1169 c 0,30,31
 598 1205 598 1205 584.5 1236 c 128,-1,32
 571 1267 571 1267 548 1290.5 c 128,-1,33
 525 1314 525 1314 494 1327.5 c 128,-1,34
 463 1341 463 1341 428 1341 c 256,35,36
 393 1341 393 1341 362 1327.5 c 128,-1,37
 331 1314 331 1314 308 1290.5 c 128,-1,38
 285 1267 285 1267 271.5 1236 c 128,-1,39
 258 1205 258 1205 258 1169 c 0,20,21
EndSplineSet
EndChar

StartChar: plusminus
Encoding: 177 177 114
Width: 1188
Flags: W
LayerCount: 2
Fore
SplineSet
528 205 m 1,0,-1
 528 653 l 1,1,-1
 82 653 l 1,2,-1
 82 782 l 1,3,-1
 528 782 l 1,4,-1
 528 1229 l 1,5,-1
 657 1229 l 1,6,-1
 657 782 l 1,7,-1
 1106 782 l 1,8,-1
 1106 653 l 1,9,-1
 657 653 l 1,10,-1
 657 205 l 1,11,-1
 1106 205 l 1,12,-1
 1106 76 l 1,13,-1
 82 76 l 1,14,-1
 82 205 l 1,15,-1
 528 205 l 1,0,-1
EndSplineSet
EndChar

StartChar: twosuperior
Encoding: 178 178 115
Width: 692
Flags: W
LayerCount: 2
Fore
SplineSet
340 1346 m 2,0,1
 305 1346 305 1346 280.5 1321.5 c 128,-1,2
 256 1297 256 1297 256 1262 c 2,3,-1
 256 1214 l 1,4,-1
 158 1227 l 1,5,-1
 158 1262 l 2,6,7
 158 1300 158 1300 172.5 1332.5 c 128,-1,8
 187 1365 187 1365 211 1389.5 c 128,-1,9
 235 1414 235 1414 267.5 1428 c 128,-1,10
 300 1442 300 1442 336 1442 c 2,11,-1
 365 1442 l 2,12,13
 403 1442 403 1442 435.5 1428.5 c 128,-1,14
 468 1415 468 1415 492 1390.5 c 128,-1,15
 516 1366 516 1366 529.5 1331 c 128,-1,16
 543 1296 543 1296 543 1253 c 0,17,18
 543 1220 543 1220 533 1184.5 c 128,-1,19
 523 1149 523 1149 506.5 1114 c 128,-1,20
 490 1079 490 1079 469 1045 c 128,-1,21
 448 1011 448 1011 426 981 c 0,22,23
 374 910 374 910 309 842 c 1,24,-1
 549 842 l 1,25,-1
 549 745 l 1,26,-1
 143 745 l 1,27,-1
 143 823 l 1,28,29
 228 892 228 892 294 965 c 0,30,31
 322 996 322 996 349 1031.5 c 128,-1,32
 376 1067 376 1067 397 1104 c 128,-1,33
 418 1141 418 1141 431 1179 c 128,-1,34
 444 1217 444 1217 444 1253 c 0,35,36
 444 1300 444 1300 419.5 1323 c 128,-1,37
 395 1346 395 1346 362 1346 c 2,38,-1
 340 1346 l 2,0,1
EndSplineSet
EndChar

StartChar: threesuperior
Encoding: 179 179 116
Width: 672
Flags: W
LayerCount: 2
Fore
SplineSet
528 915 m 1,0,1
 528 879 528 879 514.5 846.5 c 128,-1,2
 501 814 501 814 477 790 c 128,-1,3
 453 766 453 766 420.5 751.5 c 128,-1,4
 388 737 388 737 350 737 c 2,5,-1
 322 737 l 2,6,7
 284 737 284 737 251.5 751.5 c 128,-1,8
 219 766 219 766 195 790 c 128,-1,9
 171 814 171 814 157 846.5 c 128,-1,10
 143 879 143 879 143 915 c 2,11,-1
 143 950 l 1,12,-1
 242 965 l 1,13,-1
 242 915 l 2,14,15
 242 881 242 881 266.5 857.5 c 128,-1,16
 291 834 291 834 326 834 c 2,17,-1
 346 834 l 2,18,19
 381 834 381 834 405.5 857.5 c 128,-1,20
 430 881 430 881 430 915 c 2,21,-1
 430 969 l 2,22,23
 430 1004 430 1004 405.5 1028.5 c 128,-1,24
 381 1053 381 1053 346 1053 c 2,25,-1
 283 1053 l 1,26,-1
 283 1149 l 1,27,-1
 346 1149 l 2,28,29
 364 1149 364 1149 379 1155.5 c 128,-1,30
 394 1162 394 1162 405.5 1173 c 128,-1,31
 417 1184 417 1184 423.5 1199 c 128,-1,32
 430 1214 430 1214 430 1231 c 2,33,-1
 430 1264 l 2,34,35
 430 1281 430 1281 423.5 1296 c 128,-1,36
 417 1311 417 1311 405.5 1322 c 128,-1,37
 394 1333 394 1333 379 1339.5 c 128,-1,38
 364 1346 364 1346 346 1346 c 2,39,-1
 326 1346 l 2,40,41
 308 1346 308 1346 293 1339.5 c 128,-1,42
 278 1333 278 1333 266.5 1322 c 128,-1,43
 255 1311 255 1311 248.5 1296 c 128,-1,44
 242 1281 242 1281 242 1264 c 2,45,-1
 242 1214 l 1,46,-1
 143 1229 l 1,47,-1
 143 1264 l 2,48,49
 143 1300 143 1300 157 1332.5 c 128,-1,50
 171 1365 171 1365 195 1389 c 128,-1,51
 219 1413 219 1413 251.5 1427.5 c 128,-1,52
 284 1442 284 1442 322 1442 c 2,53,-1
 350 1442 l 2,54,55
 388 1442 388 1442 420.5 1427.5 c 128,-1,56
 453 1413 453 1413 477 1389 c 128,-1,57
 501 1365 501 1365 514.5 1332.5 c 128,-1,58
 528 1300 528 1300 528 1264 c 2,59,-1
 528 1241 l 2,60,61
 528 1150 528 1150 463 1100 c 1,62,63
 491 1075 491 1075 509.5 1038 c 128,-1,64
 528 1001 528 1001 528 961 c 2,65,-1
 528 915 l 1,66,-1
 528 915 l 1,0,1
EndSplineSet
EndChar

StartChar: acute
Encoding: 180 180 117
Width: 778
Flags: W
LayerCount: 2
Fore
SplineSet
297 1188 m 1,0,-1
 205 1188 l 1,1,-1
 369 1434 l 1,2,-1
 573 1434 l 1,3,-1
 297 1188 l 1,0,-1
EndSplineSet
EndChar

StartChar: mu
Encoding: 181 181 118
Width: 930
Flags: W
LayerCount: 2
Fore
SplineSet
123 1024 m 1,0,-1
 246 1024 l 1,1,-1
 246 274 l 2,2,3
 246 237 246 237 260 204.5 c 128,-1,4
 274 172 274 172 298 148 c 128,-1,5
 322 124 322 124 354.5 110 c 128,-1,6
 387 96 387 96 424 96 c 2,7,-1
 506 96 l 2,8,9
 543 96 543 96 575.5 110 c 128,-1,10
 608 124 608 124 632 148 c 128,-1,11
 656 172 656 172 670 204.5 c 128,-1,12
 684 237 684 237 684 274 c 2,13,-1
 684 1024 l 1,14,-1
 807 1024 l 1,15,-1
 807 0 l 1,16,-1
 766 0 l 1,17,-1
 698 104 l 1,18,19
 656 47 656 47 593 13.5 c 128,-1,20
 530 -20 530 -20 455 -20 c 2,21,-1
 424 -20 l 2,22,23
 373 -20 373 -20 328 -4.5 c 128,-1,24
 283 11 283 11 246 39 c 1,25,-1
 246 -295 l 1,26,-1
 123 -295 l 1,27,-1
 123 1024 l 1,0,-1
EndSplineSet
EndChar

StartChar: paragraph
Encoding: 182 182 119
Width: 1155
Flags: W
LayerCount: 2
Fore
SplineSet
686 -410 m 1,0,-1
 557 -410 l 1,1,-1
 557 633 l 1,2,-1
 455 633 l 2,3,4
 382 633 382 633 317.5 660.5 c 128,-1,5
 253 688 253 688 205 736 c 128,-1,6
 157 784 157 784 129.5 848 c 128,-1,7
 102 912 102 912 102 985 c 2,8,-1
 102 1081 l 2,9,10
 102 1154 102 1154 129.5 1218.5 c 128,-1,11
 157 1283 157 1283 205 1331 c 128,-1,12
 253 1379 253 1379 317.5 1406.5 c 128,-1,13
 382 1434 382 1434 455 1434 c 2,14,-1
 991 1434 l 1,15,-1
 991 -410 l 1,16,-1
 862 -410 l 1,17,-1
 862 1311 l 1,18,-1
 686 1311 l 1,19,-1
 686 -410 l 1,0,-1
EndSplineSet
EndChar

StartChar: periodcentered
Encoding: 183 183 120
Width: 440
Flags: W
LayerCount: 2
Fore
SplineSet
143 655 m 1,0,-1
 143 809 l 1,1,-1
 297 809 l 1,2,-1
 297 655 l 1,3,-1
 143 655 l 1,0,-1
EndSplineSet
EndChar

StartChar: cedilla
Encoding: 184 184 121
Width: 741
Flags: W
LayerCount: 2
Fore
SplineSet
416 0 m 1,0,-1
 502 0 l 1,1,-1
 442 -102 l 1,2,3
 451 -106 451 -106 467 -116.5 c 128,-1,4
 483 -127 483 -127 498.5 -145 c 128,-1,5
 514 -163 514 -163 525.5 -188 c 128,-1,6
 537 -213 537 -213 537 -246 c 0,7,8
 537 -284 537 -284 523 -315 c 128,-1,9
 509 -346 509 -346 484.5 -367.5 c 128,-1,10
 460 -389 460 -389 426 -400.5 c 128,-1,11
 392 -412 392 -412 352 -412 c 0,12,13
 307 -412 307 -412 270.5 -394.5 c 128,-1,14
 234 -377 234 -377 205 -348 c 1,15,-1
 252 -276 l 1,16,17
 257 -282 257 -282 266 -290 c 128,-1,18
 275 -298 275 -298 288.5 -305 c 128,-1,19
 302 -312 302 -312 318.5 -317 c 128,-1,20
 335 -322 335 -322 354 -322 c 0,21,22
 391 -322 391 -322 416.5 -301 c 128,-1,23
 442 -280 442 -280 442 -242 c 0,24,25
 442 -218 442 -218 432.5 -200 c 128,-1,26
 423 -182 423 -182 406.5 -170 c 128,-1,27
 390 -158 390 -158 369 -153 c 128,-1,28
 348 -148 348 -148 324 -150 c 1,29,-1
 416 0 l 1,0,-1
EndSplineSet
EndChar

StartChar: onesuperior
Encoding: 185 185 122
Width: 694
Flags: W
LayerCount: 2
Fore
SplineSet
143 745 m 1,0,-1
 143 842 l 1,1,-1
 299 842 l 1,2,-1
 299 1327 l 1,3,-1
 143 1262 l 1,4,-1
 143 1362 l 1,5,-1
 317 1434 l 1,6,-1
 397 1434 l 1,7,-1
 397 842 l 1,8,-1
 551 842 l 1,9,-1
 551 745 l 1,10,-1
 143 745 l 1,0,-1
EndSplineSet
EndChar

StartChar: ordmasculine
Encoding: 186 186 123
Width: 717
Flags: W
LayerCount: 2
Fore
SplineSet
573 973 m 1,0,1
 573 934 573 934 558 899 c 128,-1,2
 543 864 543 864 517.5 838 c 128,-1,3
 492 812 492 812 457.5 797 c 128,-1,4
 423 782 423 782 383 782 c 2,5,-1
 334 782 l 2,6,7
 294 782 294 782 259 797 c 128,-1,8
 224 812 224 812 198.5 838 c 128,-1,9
 173 864 173 864 158 899 c 128,-1,10
 143 934 143 934 143 973 c 2,11,-1
 143 1251 l 2,12,13
 143 1290 143 1290 158 1325 c 128,-1,14
 173 1360 173 1360 198.5 1386 c 128,-1,15
 224 1412 224 1412 259 1427 c 128,-1,16
 294 1442 294 1442 334 1442 c 2,17,-1
 383 1442 l 2,18,19
 423 1442 423 1442 457.5 1427 c 128,-1,20
 492 1412 492 1412 517.5 1386 c 128,-1,21
 543 1360 543 1360 558 1325 c 128,-1,22
 573 1290 573 1290 573 1251 c 2,23,-1
 573 973 l 1,24,-1
 573 973 l 1,0,1
479 1255 m 2,25,26
 479 1275 479 1275 471.5 1292.5 c 128,-1,27
 464 1310 464 1310 451 1323 c 128,-1,28
 438 1336 438 1336 420.5 1344 c 128,-1,29
 403 1352 403 1352 383 1352 c 2,30,-1
 334 1352 l 2,31,32
 314 1352 314 1352 296.5 1344 c 128,-1,33
 279 1336 279 1336 266 1323 c 128,-1,34
 253 1310 253 1310 245.5 1292.5 c 128,-1,35
 238 1275 238 1275 238 1255 c 2,36,-1
 238 969 l 2,37,38
 238 950 238 950 245.5 932.5 c 128,-1,39
 253 915 253 915 266 901.5 c 128,-1,40
 279 888 279 888 296.5 880 c 128,-1,41
 314 872 314 872 334 872 c 2,42,-1
 383 872 l 2,43,44
 403 872 403 872 420.5 880 c 128,-1,45
 438 888 438 888 451 901.5 c 128,-1,46
 464 915 464 915 471.5 932.5 c 128,-1,47
 479 950 479 950 479 969 c 2,48,-1
 479 1255 l 2,25,26
143 631 m 1,49,-1
 573 631 l 1,50,-1
 573 553 l 1,51,-1
 143 553 l 1,52,-1
 143 631 l 1,49,-1
EndSplineSet
EndChar

StartChar: guillemotright
Encoding: 187 187 124
Width: 961
Flags: W
LayerCount: 2
Fore
SplineSet
123 125 m 1,0,-1
 373 467 l 1,1,-1
 123 809 l 1,2,-1
 164 850 l 1,3,-1
 541 467 l 1,4,-1
 164 84 l 1,5,-1
 123 125 l 1,0,-1
461 125 m 1,6,-1
 711 467 l 1,7,-1
 461 809 l 1,8,-1
 502 850 l 1,9,-1
 879 467 l 1,10,-1
 502 84 l 1,11,-1
 461 125 l 1,6,-1
EndSplineSet
EndChar

StartChar: onequarter
Encoding: 188 188 125
Width: 1364
Flags: W
LayerCount: 2
Fore
SplineSet
1165 119 m 1,0,-1
 1165 0 l 1,1,-1
 1075 0 l 1,2,-1
 1075 119 l 1,3,-1
 815 119 l 1,4,-1
 815 166 l 1,5,-1
 1108 686 l 1,6,-1
 1165 686 l 1,7,-1
 1165 207 l 1,8,-1
 1221 207 l 1,9,-1
 1221 119 l 1,10,-1
 1165 119 l 1,0,-1
1075 449 m 1,11,-1
 942 207 l 1,12,-1
 1075 207 l 1,13,-1
 1075 449 l 1,11,-1
287 0 m 1,14,-1
 1104 1434 l 1,15,-1
 1219 1434 l 1,16,-1
 401 0 l 1,17,-1
 287 0 l 1,14,-1
143 745 m 1,18,-1
 143 842 l 1,19,-1
 299 842 l 1,20,-1
 299 1327 l 1,21,-1
 143 1262 l 1,22,-1
 143 1362 l 1,23,-1
 317 1434 l 1,24,-1
 397 1434 l 1,25,-1
 397 842 l 1,26,-1
 551 842 l 1,27,-1
 551 745 l 1,28,-1
 143 745 l 1,18,-1
EndSplineSet
EndChar

StartChar: onehalf
Encoding: 189 189 126
Width: 1448
Flags: W
LayerCount: 2
Fore
SplineSet
143 745 m 1,0,-1
 143 842 l 1,1,-1
 299 842 l 1,2,-1
 299 1327 l 1,3,-1
 143 1262 l 1,4,-1
 143 1362 l 1,5,-1
 317 1434 l 1,6,-1
 397 1434 l 1,7,-1
 397 842 l 1,8,-1
 551 842 l 1,9,-1
 551 745 l 1,10,-1
 143 745 l 1,0,-1
1096 600 m 2,11,12
 1061 600 1061 600 1036.5 575.5 c 128,-1,13
 1012 551 1012 551 1012 516 c 2,14,-1
 1012 469 l 1,15,-1
 913 481 l 1,16,-1
 913 516 l 2,17,18
 913 554 913 554 927.5 586.5 c 128,-1,19
 942 619 942 619 966.5 643.5 c 128,-1,20
 991 668 991 668 1023.5 682 c 128,-1,21
 1056 696 1056 696 1092 696 c 2,22,-1
 1120 696 l 2,23,24
 1158 696 1158 696 1190.5 683 c 128,-1,25
 1223 670 1223 670 1247 645.5 c 128,-1,26
 1271 621 1271 621 1284.5 586 c 128,-1,27
 1298 551 1298 551 1298 508 c 0,28,29
 1298 475 1298 475 1288 439.5 c 128,-1,30
 1278 404 1278 404 1261.5 368.5 c 128,-1,31
 1245 333 1245 333 1224.5 299 c 128,-1,32
 1204 265 1204 265 1182 235 c 0,33,34
 1131 164 1131 164 1065 96 c 1,35,-1
 1305 96 l 1,36,-1
 1305 0 l 1,37,-1
 899 0 l 1,38,-1
 899 78 l 1,39,40
 984 147 984 147 1050 220 c 0,41,42
 1078 251 1078 251 1105 286.5 c 128,-1,43
 1132 322 1132 322 1153 359 c 128,-1,44
 1174 396 1174 396 1187 434 c 128,-1,45
 1200 472 1200 472 1200 508 c 0,46,47
 1200 554 1200 554 1175 577 c 128,-1,48
 1150 600 1150 600 1118 600 c 2,49,-1
 1096 600 l 2,11,12
287 0 m 1,50,-1
 1104 1434 l 1,51,-1
 1219 1434 l 1,52,-1
 401 0 l 1,53,-1
 287 0 l 1,50,-1
EndSplineSet
EndChar

StartChar: threequarters
Encoding: 190 190 127
Width: 1364
Flags: W
LayerCount: 2
Fore
SplineSet
528 915 m 1,0,1
 528 879 528 879 514.5 846.5 c 128,-1,2
 501 814 501 814 477 790 c 128,-1,3
 453 766 453 766 420.5 751.5 c 128,-1,4
 388 737 388 737 350 737 c 2,5,-1
 322 737 l 2,6,7
 284 737 284 737 251.5 751.5 c 128,-1,8
 219 766 219 766 195 790 c 128,-1,9
 171 814 171 814 157 846.5 c 128,-1,10
 143 879 143 879 143 915 c 2,11,-1
 143 950 l 1,12,-1
 242 965 l 1,13,-1
 242 915 l 2,14,15
 242 881 242 881 266.5 857.5 c 128,-1,16
 291 834 291 834 326 834 c 2,17,-1
 346 834 l 2,18,19
 381 834 381 834 405.5 857.5 c 128,-1,20
 430 881 430 881 430 915 c 2,21,-1
 430 969 l 2,22,23
 430 1004 430 1004 405.5 1028.5 c 128,-1,24
 381 1053 381 1053 346 1053 c 2,25,-1
 283 1053 l 1,26,-1
 283 1149 l 1,27,-1
 346 1149 l 2,28,29
 364 1149 364 1149 379 1155.5 c 128,-1,30
 394 1162 394 1162 405.5 1173 c 128,-1,31
 417 1184 417 1184 423.5 1199 c 128,-1,32
 430 1214 430 1214 430 1231 c 2,33,-1
 430 1264 l 2,34,35
 430 1281 430 1281 423.5 1296 c 128,-1,36
 417 1311 417 1311 405.5 1322 c 128,-1,37
 394 1333 394 1333 379 1339.5 c 128,-1,38
 364 1346 364 1346 346 1346 c 2,39,-1
 326 1346 l 2,40,41
 308 1346 308 1346 293 1339.5 c 128,-1,42
 278 1333 278 1333 266.5 1322 c 128,-1,43
 255 1311 255 1311 248.5 1296 c 128,-1,44
 242 1281 242 1281 242 1264 c 2,45,-1
 242 1214 l 1,46,-1
 143 1229 l 1,47,-1
 143 1264 l 2,48,49
 143 1300 143 1300 157 1332.5 c 128,-1,50
 171 1365 171 1365 195 1389 c 128,-1,51
 219 1413 219 1413 251.5 1427.5 c 128,-1,52
 284 1442 284 1442 322 1442 c 2,53,-1
 350 1442 l 2,54,55
 388 1442 388 1442 420.5 1427.5 c 128,-1,56
 453 1413 453 1413 477 1389 c 128,-1,57
 501 1365 501 1365 514.5 1332.5 c 128,-1,58
 528 1300 528 1300 528 1264 c 2,59,-1
 528 1241 l 2,60,61
 528 1150 528 1150 463 1100 c 1,62,63
 491 1075 491 1075 509.5 1038 c 128,-1,64
 528 1001 528 1001 528 961 c 2,65,-1
 528 915 l 1,66,-1
 528 915 l 1,0,1
1165 119 m 1,67,-1
 1165 0 l 1,68,-1
 1075 0 l 1,69,-1
 1075 119 l 1,70,-1
 815 119 l 1,71,-1
 815 166 l 1,72,-1
 1108 686 l 1,73,-1
 1165 686 l 1,74,-1
 1165 207 l 1,75,-1
 1221 207 l 1,76,-1
 1221 119 l 1,77,-1
 1165 119 l 1,67,-1
1075 449 m 1,78,-1
 942 207 l 1,79,-1
 1075 207 l 1,80,-1
 1075 449 l 1,78,-1
287 0 m 1,81,-1
 1104 1434 l 1,82,-1
 1219 1434 l 1,83,-1
 401 0 l 1,84,-1
 287 0 l 1,81,-1
EndSplineSet
EndChar

StartChar: questiondown
Encoding: 191 191 128
Width: 950
Flags: W
LayerCount: 2
Fore
SplineSet
618 1024 m 1,0,-1
 618 870 l 1,1,-1
 465 870 l 1,2,-1
 465 1024 l 1,3,-1
 618 1024 l 1,0,-1
477 590 m 1,4,-1
 606 590 l 1,5,-1
 606 551 l 2,6,7
 606 485 606 485 590 436 c 128,-1,8
 574 387 574 387 547.5 350 c 128,-1,9
 521 313 521 313 487.5 284 c 128,-1,10
 454 255 454 255 418.5 228.5 c 128,-1,11
 383 202 383 202 349.5 175 c 128,-1,12
 316 148 316 148 289.5 115 c 128,-1,13
 263 82 263 82 247 40 c 128,-1,14
 231 -2 231 -2 231 -59 c 2,15,-1
 231 -78 l 2,16,17
 231 -126 231 -126 249 -167.5 c 128,-1,18
 267 -209 267 -209 298.5 -240 c 128,-1,19
 330 -271 330 -271 371.5 -289 c 128,-1,20
 413 -307 413 -307 461 -307 c 2,21,-1
 489 -307 l 2,22,23
 537 -307 537 -307 578.5 -289 c 128,-1,24
 620 -271 620 -271 651.5 -240 c 128,-1,25
 683 -209 683 -209 701 -167.5 c 128,-1,26
 719 -126 719 -126 719 -78 c 2,27,-1
 719 -20 l 1,28,-1
 848 -41 l 1,29,-1
 848 -78 l 2,30,31
 848 -151 848 -151 820.5 -215 c 128,-1,32
 793 -279 793 -279 745 -327 c 128,-1,33
 697 -375 697 -375 633 -402.5 c 128,-1,34
 569 -430 569 -430 496 -430 c 2,35,-1
 455 -430 l 2,36,37
 382 -430 382 -430 317.5 -402.5 c 128,-1,38
 253 -375 253 -375 205 -327 c 128,-1,39
 157 -279 157 -279 129.5 -215 c 128,-1,40
 102 -151 102 -151 102 -78 c 2,41,-1
 102 -59 l 2,42,43
 102 10 102 10 118 62 c 128,-1,44
 134 114 134 114 160.5 154 c 128,-1,45
 187 194 187 194 220.5 225 c 128,-1,46
 254 256 254 256 289.5 283 c 128,-1,47
 325 310 325 310 358.5 336 c 128,-1,48
 392 362 392 362 418.5 393 c 128,-1,49
 445 424 445 424 461 462 c 128,-1,50
 477 500 477 500 477 551 c 2,51,-1
 477 590 l 1,4,-1
EndSplineSet
EndChar

StartChar: Agrave
Encoding: 192 192 129
Width: 950
Flags: W
LayerCount: 2
Fore
SplineSet
702 334 m 1,0,-1
 248 334 l 1,1,-1
 154 0 l 1,2,-1
 20 0 l 1,3,-1
 440 1434 l 1,4,-1
 508 1434 l 1,5,-1
 930 0 l 1,6,-1
 797 0 l 1,7,-1
 702 334 l 1,0,-1
283 457 m 1,8,-1
 668 457 l 1,9,-1
 479 1118 l 1,10,-1
 475 1171 l 1,11,-1
 471 1118 l 1,12,-1
 283 457 l 1,8,-1
250 1843 m 1,13,-1
 455 1843 l 1,14,-1
 618 1597 l 1,15,-1
 526 1597 l 1,16,-1
 250 1843 l 1,13,-1
EndSplineSet
EndChar

StartChar: Aacute
Encoding: 193 193 130
Width: 950
Flags: W
LayerCount: 2
Fore
SplineSet
702 334 m 1,0,-1
 248 334 l 1,1,-1
 154 0 l 1,2,-1
 20 0 l 1,3,-1
 440 1434 l 1,4,-1
 508 1434 l 1,5,-1
 930 0 l 1,6,-1
 797 0 l 1,7,-1
 702 334 l 1,0,-1
283 457 m 1,8,-1
 668 457 l 1,9,-1
 479 1118 l 1,10,-1
 475 1171 l 1,11,-1
 471 1118 l 1,12,-1
 283 457 l 1,8,-1
424 1597 m 1,13,-1
 332 1597 l 1,14,-1
 496 1843 l 1,15,-1
 700 1843 l 1,16,-1
 424 1597 l 1,13,-1
EndSplineSet
EndChar

StartChar: Acircumflex
Encoding: 194 194 131
Width: 950
Flags: W
LayerCount: 2
Fore
SplineSet
702 334 m 1,0,-1
 248 334 l 1,1,-1
 154 0 l 1,2,-1
 20 0 l 1,3,-1
 440 1434 l 1,4,-1
 508 1434 l 1,5,-1
 930 0 l 1,6,-1
 797 0 l 1,7,-1
 702 334 l 1,0,-1
283 457 m 1,8,-1
 668 457 l 1,9,-1
 479 1118 l 1,10,-1
 475 1171 l 1,11,-1
 471 1118 l 1,12,-1
 283 457 l 1,8,-1
741 1597 m 1,13,-1
 618 1597 l 1,14,-1
 475 1761 l 1,15,-1
 332 1597 l 1,16,-1
 209 1597 l 1,17,-1
 414 1843 l 1,18,-1
 537 1843 l 1,19,-1
 741 1597 l 1,13,-1
EndSplineSet
EndChar

StartChar: Atilde
Encoding: 195 195 132
Width: 950
Flags: W
LayerCount: 2
Fore
SplineSet
702 334 m 1,0,-1
 248 334 l 1,1,-1
 154 0 l 1,2,-1
 20 0 l 1,3,-1
 440 1434 l 1,4,-1
 508 1434 l 1,5,-1
 930 0 l 1,6,-1
 797 0 l 1,7,-1
 702 334 l 1,0,-1
283 457 m 1,8,-1
 668 457 l 1,9,-1
 479 1118 l 1,10,-1
 475 1171 l 1,11,-1
 471 1118 l 1,12,-1
 283 457 l 1,8,-1
612 1729 m 0,13,14
 654 1729 654 1729 676 1760.5 c 128,-1,15
 698 1792 698 1792 698 1843 c 1,16,-1
 793 1843 l 1,17,18
 793 1798 793 1798 781.5 1759 c 128,-1,19
 770 1720 770 1720 747 1691 c 128,-1,20
 724 1662 724 1662 689.5 1645 c 128,-1,21
 655 1628 655 1628 610 1628 c 0,22,23
 562 1628 562 1628 525.5 1646 c 128,-1,24
 489 1664 489 1664 457.5 1685.5 c 128,-1,25
 426 1707 426 1707 397.5 1725 c 128,-1,26
 369 1743 369 1743 338 1743 c 0,27,28
 296 1743 296 1743 275 1711.5 c 128,-1,29
 254 1680 254 1680 254 1630 c 1,30,-1
 160 1630 l 1,31,32
 160 1675 160 1675 171 1713.5 c 128,-1,33
 182 1752 182 1752 204.5 1781 c 128,-1,34
 227 1810 227 1810 261.5 1826.5 c 128,-1,35
 296 1843 296 1843 342 1843 c 0,36,37
 387 1843 387 1843 421.5 1825 c 128,-1,38
 456 1807 456 1807 486.5 1786 c 128,-1,39
 517 1765 517 1765 547 1747 c 128,-1,40
 577 1729 577 1729 612 1729 c 0,13,14
EndSplineSet
EndChar

StartChar: Adieresis
Encoding: 196 196 133
Width: 950
Flags: W
LayerCount: 2
Fore
SplineSet
702 334 m 1,0,-1
 248 334 l 1,1,-1
 154 0 l 1,2,-1
 20 0 l 1,3,-1
 440 1434 l 1,4,-1
 508 1434 l 1,5,-1
 930 0 l 1,6,-1
 797 0 l 1,7,-1
 702 334 l 1,0,-1
283 457 m 1,8,-1
 668 457 l 1,9,-1
 479 1118 l 1,10,-1
 475 1171 l 1,11,-1
 471 1118 l 1,12,-1
 283 457 l 1,8,-1
205 1640 m 1,13,-1
 205 1794 l 1,14,-1
 358 1794 l 1,15,-1
 358 1640 l 1,16,-1
 205 1640 l 1,13,-1
592 1640 m 1,17,-1
 592 1794 l 1,18,-1
 745 1794 l 1,19,-1
 745 1640 l 1,20,-1
 592 1640 l 1,17,-1
EndSplineSet
EndChar

StartChar: Aring
Encoding: 197 197 134
Width: 950
Flags: W
LayerCount: 2
Fore
SplineSet
264 1546 m 0,0,1
 264 1590 264 1590 280.5 1628.5 c 128,-1,2
 297 1667 297 1667 325.5 1696 c 128,-1,3
 354 1725 354 1725 392.5 1742 c 128,-1,4
 431 1759 431 1759 475 1759 c 256,5,6
 519 1759 519 1759 557.5 1742 c 128,-1,7
 596 1725 596 1725 625 1696 c 128,-1,8
 654 1667 654 1667 671 1628.5 c 128,-1,9
 688 1590 688 1590 688 1546 c 0,10,11
 688 1510 688 1510 676.5 1477.5 c 128,-1,12
 665 1445 665 1445 644.5 1418 c 128,-1,13
 624 1391 624 1391 596 1371.5 c 128,-1,14
 568 1352 568 1352 535 1343 c 1,15,-1
 930 0 l 1,16,-1
 797 0 l 1,17,-1
 702 334 l 1,18,-1
 248 334 l 1,19,-1
 154 0 l 1,20,-1
 20 0 l 1,21,-1
 414 1343 l 1,22,23
 381 1353 381 1353 353.5 1372.5 c 128,-1,24
 326 1392 326 1392 306 1418.5 c 128,-1,25
 286 1445 286 1445 275 1477.5 c 128,-1,26
 264 1510 264 1510 264 1546 c 0,0,1
283 457 m 1,27,-1
 668 457 l 1,28,-1
 479 1118 l 1,29,-1
 475 1171 l 1,30,-1
 471 1118 l 1,31,-1
 283 457 l 1,27,-1
367 1546 m 0,32,33
 367 1524 367 1524 375.5 1504 c 128,-1,34
 384 1484 384 1484 399 1469 c 128,-1,35
 414 1454 414 1454 433.5 1445 c 128,-1,36
 453 1436 453 1436 475 1436 c 0,37,38
 498 1436 498 1436 518.5 1445 c 128,-1,39
 539 1454 539 1454 554 1469 c 128,-1,40
 569 1484 569 1484 577.5 1504 c 128,-1,41
 586 1524 586 1524 586 1546 c 0,42,43
 586 1569 586 1569 577.5 1589.5 c 128,-1,44
 569 1610 569 1610 554 1625.5 c 128,-1,45
 539 1641 539 1641 518.5 1650 c 128,-1,46
 498 1659 498 1659 475 1659 c 0,47,48
 453 1659 453 1659 433.5 1650 c 128,-1,49
 414 1641 414 1641 399 1625.5 c 128,-1,50
 384 1610 384 1610 375.5 1589.5 c 128,-1,51
 367 1569 367 1569 367 1546 c 0,32,33
EndSplineSet
EndChar

StartChar: AE
Encoding: 198 198 135
Width: 1767
Flags: W
LayerCount: 2
Fore
SplineSet
879 0 m 1,0,-1
 879 334 l 1,1,-1
 352 334 l 1,2,-1
 154 0 l 1,3,-1
 20 0 l 1,4,-1
 879 1434 l 1,5,-1
 1686 1434 l 1,6,-1
 1686 1311 l 1,7,-1
 1008 1311 l 1,8,-1
 1008 778 l 1,9,-1
 1556 778 l 1,10,-1
 1556 655 l 1,11,-1
 1008 655 l 1,12,-1
 1008 123 l 1,13,-1
 1686 123 l 1,14,-1
 1686 0 l 1,15,-1
 879 0 l 1,0,-1
879 457 m 1,16,-1
 879 1229 l 1,17,-1
 858 1176 l 1,18,-1
 426 457 l 1,19,-1
 879 457 l 1,16,-1
EndSplineSet
EndChar

StartChar: Ccedilla
Encoding: 199 199 136
Width: 1073
Flags: W
LayerCount: 2
Fore
SplineSet
508 -20 m 1,0,-1
 496 -20 l 2,1,2
 423 -20 423 -20 358.5 7.5 c 128,-1,3
 294 35 294 35 246 83 c 128,-1,4
 198 131 198 131 170.5 195 c 128,-1,5
 143 259 143 259 143 332 c 2,6,-1
 143 1102 l 2,7,8
 143 1175 143 1175 170.5 1239 c 128,-1,9
 198 1303 198 1303 246 1351 c 128,-1,10
 294 1399 294 1399 358.5 1426.5 c 128,-1,11
 423 1454 423 1454 496 1454 c 2,12,-1
 598 1454 l 2,13,14
 671 1454 671 1454 735 1426.5 c 128,-1,15
 799 1399 799 1399 847 1351 c 128,-1,16
 895 1303 895 1303 922.5 1239 c 128,-1,17
 950 1175 950 1175 950 1102 c 2,18,-1
 950 1044 l 1,19,-1
 821 1024 l 1,20,-1
 821 1102 l 2,21,22
 821 1150 821 1150 803 1191.5 c 128,-1,23
 785 1233 785 1233 754 1264 c 128,-1,24
 723 1295 723 1295 681.5 1313 c 128,-1,25
 640 1331 640 1331 592 1331 c 2,26,-1
 502 1331 l 2,27,28
 454 1331 454 1331 412.5 1313 c 128,-1,29
 371 1295 371 1295 339.5 1264 c 128,-1,30
 308 1233 308 1233 290 1191.5 c 128,-1,31
 272 1150 272 1150 272 1102 c 2,32,-1
 272 332 l 2,33,34
 272 284 272 284 290 242.5 c 128,-1,35
 308 201 308 201 339.5 169.5 c 128,-1,36
 371 138 371 138 412.5 120 c 128,-1,37
 454 102 454 102 502 102 c 2,38,-1
 592 102 l 2,39,40
 640 102 640 102 681.5 120 c 128,-1,41
 723 138 723 138 754 169.5 c 128,-1,42
 785 201 785 201 803 242.5 c 128,-1,43
 821 284 821 284 821 332 c 2,44,-1
 821 410 l 1,45,-1
 950 389 l 1,46,-1
 950 332 l 2,47,48
 950 259 950 259 922.5 195 c 128,-1,49
 895 131 895 131 847 83 c 128,-1,50
 799 35 799 35 735 7.5 c 128,-1,51
 671 -20 671 -20 598 -20 c 2,52,-1
 594 -20 l 1,53,-1
 547 -102 l 1,54,55
 556 -106 556 -106 572 -116.5 c 128,-1,56
 588 -127 588 -127 603 -145 c 128,-1,57
 618 -163 618 -163 629.5 -188 c 128,-1,58
 641 -213 641 -213 641 -246 c 0,59,60
 641 -284 641 -284 627 -315 c 128,-1,61
 613 -346 613 -346 588.5 -367.5 c 128,-1,62
 564 -389 564 -389 530.5 -400.5 c 128,-1,63
 497 -412 497 -412 457 -412 c 0,64,65
 412 -412 412 -412 375 -394.5 c 128,-1,66
 338 -377 338 -377 309 -348 c 1,67,-1
 356 -276 l 1,68,69
 361 -282 361 -282 370.5 -290 c 128,-1,70
 380 -298 380 -298 393.5 -305 c 128,-1,71
 407 -312 407 -312 423.5 -317 c 128,-1,72
 440 -322 440 -322 459 -322 c 0,73,74
 496 -322 496 -322 521.5 -301 c 128,-1,75
 547 -280 547 -280 547 -242 c 0,76,77
 547 -218 547 -218 537.5 -200 c 128,-1,78
 528 -182 528 -182 511.5 -170 c 128,-1,79
 495 -158 495 -158 473.5 -153 c 128,-1,80
 452 -148 452 -148 428 -150 c 1,81,-1
 508 -20 l 1,0,-1
EndSplineSet
EndChar

StartChar: Egrave
Encoding: 200 200 137
Width: 1053
Flags: W
LayerCount: 2
Fore
SplineSet
164 0 m 1,0,-1
 164 1434 l 1,1,-1
 971 1434 l 1,2,-1
 971 1311 l 1,3,-1
 293 1311 l 1,4,-1
 293 778 l 1,5,-1
 842 778 l 1,6,-1
 842 655 l 1,7,-1
 293 655 l 1,8,-1
 293 123 l 1,9,-1
 971 123 l 1,10,-1
 971 0 l 1,11,-1
 164 0 l 1,0,-1
301 1843 m 1,12,-1
 506 1843 l 1,13,-1
 670 1597 l 1,14,-1
 578 1597 l 1,15,-1
 301 1843 l 1,12,-1
EndSplineSet
EndChar

StartChar: Eacute
Encoding: 201 201 138
Width: 1053
Flags: W
LayerCount: 2
Fore
SplineSet
164 0 m 1,0,-1
 164 1434 l 1,1,-1
 971 1434 l 1,2,-1
 971 1311 l 1,3,-1
 293 1311 l 1,4,-1
 293 778 l 1,5,-1
 842 778 l 1,6,-1
 842 655 l 1,7,-1
 293 655 l 1,8,-1
 293 123 l 1,9,-1
 971 123 l 1,10,-1
 971 0 l 1,11,-1
 164 0 l 1,0,-1
516 1597 m 1,12,-1
 424 1597 l 1,13,-1
 588 1843 l 1,14,-1
 793 1843 l 1,15,-1
 516 1597 l 1,12,-1
EndSplineSet
EndChar

StartChar: Ecircumflex
Encoding: 202 202 139
Width: 1053
Flags: W
LayerCount: 2
Fore
SplineSet
164 0 m 1,0,-1
 164 1434 l 1,1,-1
 971 1434 l 1,2,-1
 971 1311 l 1,3,-1
 293 1311 l 1,4,-1
 293 778 l 1,5,-1
 842 778 l 1,6,-1
 842 655 l 1,7,-1
 293 655 l 1,8,-1
 293 123 l 1,9,-1
 971 123 l 1,10,-1
 971 0 l 1,11,-1
 164 0 l 1,0,-1
834 1597 m 1,12,-1
 711 1597 l 1,13,-1
 567 1761 l 1,14,-1
 424 1597 l 1,15,-1
 301 1597 l 1,16,-1
 506 1843 l 1,17,-1
 629 1843 l 1,18,-1
 834 1597 l 1,12,-1
EndSplineSet
EndChar

StartChar: Edieresis
Encoding: 203 203 140
Width: 1053
Flags: W
LayerCount: 2
Fore
SplineSet
164 0 m 1,0,-1
 164 1434 l 1,1,-1
 971 1434 l 1,2,-1
 971 1311 l 1,3,-1
 293 1311 l 1,4,-1
 293 778 l 1,5,-1
 842 778 l 1,6,-1
 842 655 l 1,7,-1
 293 655 l 1,8,-1
 293 123 l 1,9,-1
 971 123 l 1,10,-1
 971 0 l 1,11,-1
 164 0 l 1,0,-1
256 1640 m 1,12,-1
 256 1794 l 1,13,-1
 410 1794 l 1,14,-1
 410 1640 l 1,15,-1
 256 1640 l 1,12,-1
643 1640 m 1,16,-1
 643 1794 l 1,17,-1
 797 1794 l 1,18,-1
 797 1640 l 1,19,-1
 643 1640 l 1,16,-1
EndSplineSet
EndChar

StartChar: Igrave
Encoding: 204 204 141
Width: 457
Flags: W
LayerCount: 2
Fore
SplineSet
164 0 m 1,0,-1
 164 1434 l 1,1,-1
 293 1434 l 1,2,-1
 293 0 l 1,3,-1
 164 0 l 1,0,-1
4 1843 m 1,4,-1
 209 1843 l 1,5,-1
 373 1597 l 1,6,-1
 281 1597 l 1,7,-1
 4 1843 l 1,4,-1
EndSplineSet
EndChar

StartChar: Iacute
Encoding: 205 205 142
Width: 457
Flags: W
LayerCount: 2
Fore
SplineSet
164 0 m 1,0,-1
 164 1434 l 1,1,-1
 293 1434 l 1,2,-1
 293 0 l 1,3,-1
 164 0 l 1,0,-1
178 1597 m 1,4,-1
 86 1597 l 1,5,-1
 250 1843 l 1,6,-1
 455 1843 l 1,7,-1
 178 1597 l 1,4,-1
EndSplineSet
EndChar

StartChar: Icircumflex
Encoding: 206 206 143
Width: 457
Flags: W
LayerCount: 2
Fore
SplineSet
164 0 m 1,0,-1
 164 1434 l 1,1,-1
 293 1434 l 1,2,-1
 293 0 l 1,3,-1
 164 0 l 1,0,-1
496 1597 m 1,4,-1
 373 1597 l 1,5,-1
 229 1761 l 1,6,-1
 86 1597 l 1,7,-1
 -37 1597 l 1,8,-1
 168 1843 l 1,9,-1
 291 1843 l 1,10,-1
 496 1597 l 1,4,-1
EndSplineSet
EndChar

StartChar: Idieresis
Encoding: 207 207 144
Width: 457
Flags: W
LayerCount: 2
Fore
SplineSet
164 0 m 1,0,-1
 164 1434 l 1,1,-1
 293 1434 l 1,2,-1
 293 0 l 1,3,-1
 164 0 l 1,0,-1
-41 1640 m 1,4,-1
 -41 1794 l 1,5,-1
 113 1794 l 1,6,-1
 113 1640 l 1,7,-1
 -41 1640 l 1,4,-1
346 1640 m 1,8,-1
 346 1794 l 1,9,-1
 500 1794 l 1,10,-1
 500 1640 l 1,11,-1
 346 1640 l 1,8,-1
EndSplineSet
EndChar

StartChar: Eth
Encoding: 208 208 145
Width: 1139
Flags: W
LayerCount: 2
Fore
SplineSet
188 686 m 1,0,-1
 188 1434 l 1,1,-1
 643 1434 l 2,2,3
 716 1434 716 1434 780 1406.5 c 128,-1,4
 844 1379 844 1379 892 1331 c 128,-1,5
 940 1283 940 1283 967.5 1218.5 c 128,-1,6
 995 1154 995 1154 995 1081 c 2,7,-1
 995 352 l 2,8,9
 995 279 995 279 967.5 215 c 128,-1,10
 940 151 940 151 892 103 c 128,-1,11
 844 55 844 55 780 27.5 c 128,-1,12
 716 0 716 0 643 0 c 2,13,-1
 188 0 l 1,14,-1
 188 584 l 1,15,-1
 61 584 l 1,16,-1
 61 686 l 1,17,-1
 188 686 l 1,0,-1
866 1081 m 2,18,19
 866 1129 866 1129 848 1170.5 c 128,-1,20
 830 1212 830 1212 799 1243.5 c 128,-1,21
 768 1275 768 1275 726.5 1293 c 128,-1,22
 685 1311 685 1311 637 1311 c 2,23,-1
 317 1311 l 1,24,-1
 317 686 l 1,25,-1
 557 686 l 1,26,-1
 557 584 l 1,27,-1
 317 584 l 1,28,-1
 317 123 l 1,29,-1
 637 123 l 2,30,31
 685 123 685 123 726.5 141 c 128,-1,32
 768 159 768 159 799 190 c 128,-1,33
 830 221 830 221 848 262.5 c 128,-1,34
 866 304 866 304 866 352 c 2,35,-1
 866 1081 l 2,18,19
EndSplineSet
EndChar

StartChar: Ntilde
Encoding: 209 209 146
Width: 1135
Flags: W
LayerCount: 2
Fore
SplineSet
903 0 m 1,0,-1
 305 1044 l 1,1,-1
 293 1106 l 1,2,-1
 293 0 l 1,3,-1
 164 0 l 1,4,-1
 164 1434 l 1,5,-1
 231 1434 l 1,6,-1
 829 389 l 1,7,-1
 842 328 l 1,8,-1
 842 1434 l 1,9,-1
 971 1434 l 1,10,-1
 971 0 l 1,11,-1
 903 0 l 1,0,-1
702 1729 m 0,12,13
 744 1729 744 1729 766 1760.5 c 128,-1,14
 788 1792 788 1792 788 1843 c 1,15,-1
 883 1843 l 1,16,17
 883 1798 883 1798 871.5 1759 c 128,-1,18
 860 1720 860 1720 837 1691 c 128,-1,19
 814 1662 814 1662 779.5 1645 c 128,-1,20
 745 1628 745 1628 700 1628 c 0,21,22
 652 1628 652 1628 615.5 1646 c 128,-1,23
 579 1664 579 1664 547.5 1685.5 c 128,-1,24
 516 1707 516 1707 487.5 1725 c 128,-1,25
 459 1743 459 1743 428 1743 c 0,26,27
 386 1743 386 1743 365 1711.5 c 128,-1,28
 344 1680 344 1680 344 1630 c 1,29,-1
 250 1630 l 1,30,31
 250 1675 250 1675 261 1713.5 c 128,-1,32
 272 1752 272 1752 294.5 1781 c 128,-1,33
 317 1810 317 1810 351.5 1826.5 c 128,-1,34
 386 1843 386 1843 432 1843 c 0,35,36
 477 1843 477 1843 511.5 1825 c 128,-1,37
 546 1807 546 1807 576.5 1786 c 128,-1,38
 607 1765 607 1765 637 1747 c 128,-1,39
 667 1729 667 1729 702 1729 c 0,12,13
EndSplineSet
EndChar

StartChar: Ograve
Encoding: 210 210 147
Width: 1094
Flags: W
LayerCount: 2
Fore
SplineSet
950 332 m 1,0,1
 950 259 950 259 922.5 195 c 128,-1,2
 895 131 895 131 847 83 c 128,-1,3
 799 35 799 35 735 7.5 c 128,-1,4
 671 -20 671 -20 598 -20 c 2,5,-1
 496 -20 l 2,6,7
 423 -20 423 -20 358.5 7.5 c 128,-1,8
 294 35 294 35 246 83 c 128,-1,9
 198 131 198 131 170.5 195 c 128,-1,10
 143 259 143 259 143 332 c 2,11,-1
 143 1102 l 2,12,13
 143 1175 143 1175 170.5 1239 c 128,-1,14
 198 1303 198 1303 246 1351 c 128,-1,15
 294 1399 294 1399 358.5 1426.5 c 128,-1,16
 423 1454 423 1454 496 1454 c 2,17,-1
 598 1454 l 2,18,19
 671 1454 671 1454 735 1426.5 c 128,-1,20
 799 1399 799 1399 847 1351 c 128,-1,21
 895 1303 895 1303 922.5 1239 c 128,-1,22
 950 1175 950 1175 950 1102 c 2,23,-1
 950 332 l 1,24,-1
 950 332 l 1,0,1
821 1102 m 2,25,26
 821 1150 821 1150 803 1191.5 c 128,-1,27
 785 1233 785 1233 754 1264 c 128,-1,28
 723 1295 723 1295 681.5 1313 c 128,-1,29
 640 1331 640 1331 592 1331 c 2,30,-1
 502 1331 l 2,31,32
 454 1331 454 1331 412.5 1313 c 128,-1,33
 371 1295 371 1295 339.5 1264 c 128,-1,34
 308 1233 308 1233 290 1191.5 c 128,-1,35
 272 1150 272 1150 272 1102 c 2,36,-1
 272 332 l 2,37,38
 272 284 272 284 290 242.5 c 128,-1,39
 308 201 308 201 339.5 169.5 c 128,-1,40
 371 138 371 138 412.5 120 c 128,-1,41
 454 102 454 102 502 102 c 2,42,-1
 592 102 l 2,43,44
 640 102 640 102 681.5 120 c 128,-1,45
 723 138 723 138 754 169.5 c 128,-1,46
 785 201 785 201 803 242.5 c 128,-1,47
 821 284 821 284 821 332 c 2,48,-1
 821 1102 l 2,25,26
342 1843 m 1,49,-1
 547 1843 l 1,50,-1
 711 1597 l 1,51,-1
 618 1597 l 1,52,-1
 342 1843 l 1,49,-1
EndSplineSet
EndChar

StartChar: Oacute
Encoding: 211 211 148
Width: 1094
Flags: W
LayerCount: 2
Fore
SplineSet
950 332 m 1,0,1
 950 259 950 259 922.5 195 c 128,-1,2
 895 131 895 131 847 83 c 128,-1,3
 799 35 799 35 735 7.5 c 128,-1,4
 671 -20 671 -20 598 -20 c 2,5,-1
 496 -20 l 2,6,7
 423 -20 423 -20 358.5 7.5 c 128,-1,8
 294 35 294 35 246 83 c 128,-1,9
 198 131 198 131 170.5 195 c 128,-1,10
 143 259 143 259 143 332 c 2,11,-1
 143 1102 l 2,12,13
 143 1175 143 1175 170.5 1239 c 128,-1,14
 198 1303 198 1303 246 1351 c 128,-1,15
 294 1399 294 1399 358.5 1426.5 c 128,-1,16
 423 1454 423 1454 496 1454 c 2,17,-1
 598 1454 l 2,18,19
 671 1454 671 1454 735 1426.5 c 128,-1,20
 799 1399 799 1399 847 1351 c 128,-1,21
 895 1303 895 1303 922.5 1239 c 128,-1,22
 950 1175 950 1175 950 1102 c 2,23,-1
 950 332 l 1,24,-1
 950 332 l 1,0,1
821 1102 m 2,25,26
 821 1150 821 1150 803 1191.5 c 128,-1,27
 785 1233 785 1233 754 1264 c 128,-1,28
 723 1295 723 1295 681.5 1313 c 128,-1,29
 640 1331 640 1331 592 1331 c 2,30,-1
 502 1331 l 2,31,32
 454 1331 454 1331 412.5 1313 c 128,-1,33
 371 1295 371 1295 339.5 1264 c 128,-1,34
 308 1233 308 1233 290 1191.5 c 128,-1,35
 272 1150 272 1150 272 1102 c 2,36,-1
 272 332 l 2,37,38
 272 284 272 284 290 242.5 c 128,-1,39
 308 201 308 201 339.5 169.5 c 128,-1,40
 371 138 371 138 412.5 120 c 128,-1,41
 454 102 454 102 502 102 c 2,42,-1
 592 102 l 2,43,44
 640 102 640 102 681.5 120 c 128,-1,45
 723 138 723 138 754 169.5 c 128,-1,46
 785 201 785 201 803 242.5 c 128,-1,47
 821 284 821 284 821 332 c 2,48,-1
 821 1102 l 2,25,26
516 1597 m 1,49,-1
 424 1597 l 1,50,-1
 588 1843 l 1,51,-1
 793 1843 l 1,52,-1
 516 1597 l 1,49,-1
EndSplineSet
EndChar

StartChar: Ocircumflex
Encoding: 212 212 149
Width: 1094
Flags: W
LayerCount: 2
Fore
SplineSet
950 332 m 1,0,1
 950 259 950 259 922.5 195 c 128,-1,2
 895 131 895 131 847 83 c 128,-1,3
 799 35 799 35 735 7.5 c 128,-1,4
 671 -20 671 -20 598 -20 c 2,5,-1
 496 -20 l 2,6,7
 423 -20 423 -20 358.5 7.5 c 128,-1,8
 294 35 294 35 246 83 c 128,-1,9
 198 131 198 131 170.5 195 c 128,-1,10
 143 259 143 259 143 332 c 2,11,-1
 143 1102 l 2,12,13
 143 1175 143 1175 170.5 1239 c 128,-1,14
 198 1303 198 1303 246 1351 c 128,-1,15
 294 1399 294 1399 358.5 1426.5 c 128,-1,16
 423 1454 423 1454 496 1454 c 2,17,-1
 598 1454 l 2,18,19
 671 1454 671 1454 735 1426.5 c 128,-1,20
 799 1399 799 1399 847 1351 c 128,-1,21
 895 1303 895 1303 922.5 1239 c 128,-1,22
 950 1175 950 1175 950 1102 c 2,23,-1
 950 332 l 1,24,-1
 950 332 l 1,0,1
821 1102 m 2,25,26
 821 1150 821 1150 803 1191.5 c 128,-1,27
 785 1233 785 1233 754 1264 c 128,-1,28
 723 1295 723 1295 681.5 1313 c 128,-1,29
 640 1331 640 1331 592 1331 c 2,30,-1
 502 1331 l 2,31,32
 454 1331 454 1331 412.5 1313 c 128,-1,33
 371 1295 371 1295 339.5 1264 c 128,-1,34
 308 1233 308 1233 290 1191.5 c 128,-1,35
 272 1150 272 1150 272 1102 c 2,36,-1
 272 332 l 2,37,38
 272 284 272 284 290 242.5 c 128,-1,39
 308 201 308 201 339.5 169.5 c 128,-1,40
 371 138 371 138 412.5 120 c 128,-1,41
 454 102 454 102 502 102 c 2,42,-1
 592 102 l 2,43,44
 640 102 640 102 681.5 120 c 128,-1,45
 723 138 723 138 754 169.5 c 128,-1,46
 785 201 785 201 803 242.5 c 128,-1,47
 821 284 821 284 821 332 c 2,48,-1
 821 1102 l 2,25,26
813 1597 m 1,49,-1
 690 1597 l 1,50,-1
 547 1761 l 1,51,-1
 403 1597 l 1,52,-1
 281 1597 l 1,53,-1
 485 1843 l 1,54,-1
 608 1843 l 1,55,-1
 813 1597 l 1,49,-1
EndSplineSet
EndChar

StartChar: Otilde
Encoding: 213 213 150
Width: 1094
Flags: W
LayerCount: 2
Fore
SplineSet
950 332 m 1,0,1
 950 259 950 259 922.5 195 c 128,-1,2
 895 131 895 131 847 83 c 128,-1,3
 799 35 799 35 735 7.5 c 128,-1,4
 671 -20 671 -20 598 -20 c 2,5,-1
 496 -20 l 2,6,7
 423 -20 423 -20 358.5 7.5 c 128,-1,8
 294 35 294 35 246 83 c 128,-1,9
 198 131 198 131 170.5 195 c 128,-1,10
 143 259 143 259 143 332 c 2,11,-1
 143 1102 l 2,12,13
 143 1175 143 1175 170.5 1239 c 128,-1,14
 198 1303 198 1303 246 1351 c 128,-1,15
 294 1399 294 1399 358.5 1426.5 c 128,-1,16
 423 1454 423 1454 496 1454 c 2,17,-1
 598 1454 l 2,18,19
 671 1454 671 1454 735 1426.5 c 128,-1,20
 799 1399 799 1399 847 1351 c 128,-1,21
 895 1303 895 1303 922.5 1239 c 128,-1,22
 950 1175 950 1175 950 1102 c 2,23,-1
 950 332 l 1,24,-1
 950 332 l 1,0,1
821 1102 m 2,25,26
 821 1150 821 1150 803 1191.5 c 128,-1,27
 785 1233 785 1233 754 1264 c 128,-1,28
 723 1295 723 1295 681.5 1313 c 128,-1,29
 640 1331 640 1331 592 1331 c 2,30,-1
 502 1331 l 2,31,32
 454 1331 454 1331 412.5 1313 c 128,-1,33
 371 1295 371 1295 339.5 1264 c 128,-1,34
 308 1233 308 1233 290 1191.5 c 128,-1,35
 272 1150 272 1150 272 1102 c 2,36,-1
 272 332 l 2,37,38
 272 284 272 284 290 242.5 c 128,-1,39
 308 201 308 201 339.5 169.5 c 128,-1,40
 371 138 371 138 412.5 120 c 128,-1,41
 454 102 454 102 502 102 c 2,42,-1
 592 102 l 2,43,44
 640 102 640 102 681.5 120 c 128,-1,45
 723 138 723 138 754 169.5 c 128,-1,46
 785 201 785 201 803 242.5 c 128,-1,47
 821 284 821 284 821 332 c 2,48,-1
 821 1102 l 2,25,26
682 1729 m 0,49,50
 724 1729 724 1729 746 1760.5 c 128,-1,51
 768 1792 768 1792 768 1843 c 1,52,-1
 862 1843 l 1,53,54
 862 1798 862 1798 850.5 1759 c 128,-1,55
 839 1720 839 1720 816.5 1691 c 128,-1,56
 794 1662 794 1662 759.5 1645 c 128,-1,57
 725 1628 725 1628 680 1628 c 0,58,59
 632 1628 632 1628 595 1646 c 128,-1,60
 558 1664 558 1664 526.5 1685.5 c 128,-1,61
 495 1707 495 1707 466.5 1725 c 128,-1,62
 438 1743 438 1743 408 1743 c 0,63,64
 366 1743 366 1743 345 1711.5 c 128,-1,65
 324 1680 324 1680 324 1630 c 1,66,-1
 229 1630 l 1,67,68
 229 1675 229 1675 240.5 1713.5 c 128,-1,69
 252 1752 252 1752 274.5 1781 c 128,-1,70
 297 1810 297 1810 331.5 1826.5 c 128,-1,71
 366 1843 366 1843 412 1843 c 0,72,73
 456 1843 456 1843 490.5 1825 c 128,-1,74
 525 1807 525 1807 556 1786 c 128,-1,75
 587 1765 587 1765 617 1747 c 128,-1,76
 647 1729 647 1729 682 1729 c 0,49,50
EndSplineSet
EndChar

StartChar: Odieresis
Encoding: 214 214 151
Width: 1094
Flags: W
LayerCount: 2
Fore
SplineSet
950 332 m 1,0,1
 950 259 950 259 922.5 195 c 128,-1,2
 895 131 895 131 847 83 c 128,-1,3
 799 35 799 35 735 7.5 c 128,-1,4
 671 -20 671 -20 598 -20 c 2,5,-1
 496 -20 l 2,6,7
 423 -20 423 -20 358.5 7.5 c 128,-1,8
 294 35 294 35 246 83 c 128,-1,9
 198 131 198 131 170.5 195 c 128,-1,10
 143 259 143 259 143 332 c 2,11,-1
 143 1102 l 2,12,13
 143 1175 143 1175 170.5 1239 c 128,-1,14
 198 1303 198 1303 246 1351 c 128,-1,15
 294 1399 294 1399 358.5 1426.5 c 128,-1,16
 423 1454 423 1454 496 1454 c 2,17,-1
 598 1454 l 2,18,19
 671 1454 671 1454 735 1426.5 c 128,-1,20
 799 1399 799 1399 847 1351 c 128,-1,21
 895 1303 895 1303 922.5 1239 c 128,-1,22
 950 1175 950 1175 950 1102 c 2,23,-1
 950 332 l 1,24,-1
 950 332 l 1,0,1
821 1102 m 2,25,26
 821 1150 821 1150 803 1191.5 c 128,-1,27
 785 1233 785 1233 754 1264 c 128,-1,28
 723 1295 723 1295 681.5 1313 c 128,-1,29
 640 1331 640 1331 592 1331 c 2,30,-1
 502 1331 l 2,31,32
 454 1331 454 1331 412.5 1313 c 128,-1,33
 371 1295 371 1295 339.5 1264 c 128,-1,34
 308 1233 308 1233 290 1191.5 c 128,-1,35
 272 1150 272 1150 272 1102 c 2,36,-1
 272 332 l 2,37,38
 272 284 272 284 290 242.5 c 128,-1,39
 308 201 308 201 339.5 169.5 c 128,-1,40
 371 138 371 138 412.5 120 c 128,-1,41
 454 102 454 102 502 102 c 2,42,-1
 592 102 l 2,43,44
 640 102 640 102 681.5 120 c 128,-1,45
 723 138 723 138 754 169.5 c 128,-1,46
 785 201 785 201 803 242.5 c 128,-1,47
 821 284 821 284 821 332 c 2,48,-1
 821 1102 l 2,25,26
276 1640 m 1,49,-1
 276 1794 l 1,50,-1
 430 1794 l 1,51,-1
 430 1640 l 1,52,-1
 276 1640 l 1,49,-1
664 1640 m 1,53,-1
 664 1794 l 1,54,-1
 817 1794 l 1,55,-1
 817 1640 l 1,56,-1
 664 1640 l 1,53,-1
EndSplineSet
EndChar

StartChar: multiply
Encoding: 215 215 152
Width: 1196
Flags: W
LayerCount: 2
Fore
SplineSet
195 1212 m 1,0,-1
 598 809 l 1,1,-1
 1001 1212 l 1,2,-1
 1092 1120 l 1,3,-1
 690 719 l 1,4,-1
 1094 313 l 1,5,-1
 1001 223 l 1,6,-1
 598 627 l 1,7,-1
 195 223 l 1,8,-1
 102 313 l 1,9,-1
 506 719 l 1,10,-1
 104 1120 l 1,11,-1
 195 1212 l 1,0,-1
EndSplineSet
EndChar

StartChar: Oslash
Encoding: 216 216 153
Width: 1094
Flags: W
LayerCount: 2
Fore
SplineSet
102 -61 m 1,0,-1
 201 137 l 1,1,2
 173 179 173 179 158 228.5 c 128,-1,3
 143 278 143 278 143 332 c 2,4,-1
 143 1102 l 2,5,6
 143 1175 143 1175 170.5 1239 c 128,-1,7
 198 1303 198 1303 246 1351 c 128,-1,8
 294 1399 294 1399 358.5 1426.5 c 128,-1,9
 423 1454 423 1454 496 1454 c 2,10,-1
 598 1454 l 2,11,12
 661 1454 661 1454 718.5 1432.5 c 128,-1,13
 776 1411 776 1411 821 1374 c 1,14,-1
 883 1495 l 1,15,-1
 991 1495 l 1,16,-1
 891 1294 l 1,17,18
 919 1252 919 1252 934.5 1204 c 128,-1,19
 950 1156 950 1156 950 1102 c 2,20,-1
 950 332 l 2,21,22
 950 259 950 259 922.5 195 c 128,-1,23
 895 131 895 131 847 83 c 128,-1,24
 799 35 799 35 735 7.5 c 128,-1,25
 671 -20 671 -20 598 -20 c 2,26,-1
 496 -20 l 2,27,28
 431 -20 431 -20 374 0.5 c 128,-1,29
 317 21 317 21 270 59 c 1,30,-1
 211 -61 l 1,31,-1
 102 -61 l 1,0,-1
821 1102 m 2,32,33
 821 1113 821 1113 820 1124.5 c 128,-1,34
 819 1136 819 1136 817 1147 c 1,35,-1
 330 178 l 1,36,37
 362 143 362 143 405.5 122.5 c 128,-1,38
 449 102 449 102 502 102 c 2,39,-1
 592 102 l 2,40,41
 640 102 640 102 681.5 120 c 128,-1,42
 723 138 723 138 754 169.5 c 128,-1,43
 785 201 785 201 803 242.5 c 128,-1,44
 821 284 821 284 821 332 c 2,45,-1
 821 1102 l 2,32,33
272 332 m 1,46,47
 272 319 272 319 272.5 308.5 c 128,-1,48
 273 298 273 298 276 287 c 1,49,-1
 762 1255 l 1,50,51
 731 1291 731 1291 687 1311 c 128,-1,52
 643 1331 643 1331 592 1331 c 2,53,-1
 502 1331 l 2,54,55
 454 1331 454 1331 412.5 1313 c 128,-1,56
 371 1295 371 1295 339.5 1264 c 128,-1,57
 308 1233 308 1233 290 1191.5 c 128,-1,58
 272 1150 272 1150 272 1102 c 2,59,-1
 272 332 l 1,60,-1
 272 332 l 1,46,47
EndSplineSet
EndChar

StartChar: Ugrave
Encoding: 217 217 154
Width: 1094
Flags: W
LayerCount: 2
Fore
SplineSet
950 332 m 1,0,1
 950 259 950 259 922.5 195 c 128,-1,2
 895 131 895 131 847 83 c 128,-1,3
 799 35 799 35 735 7.5 c 128,-1,4
 671 -20 671 -20 598 -20 c 2,5,-1
 496 -20 l 2,6,7
 423 -20 423 -20 358.5 7.5 c 128,-1,8
 294 35 294 35 246 83 c 128,-1,9
 198 131 198 131 170.5 195 c 128,-1,10
 143 259 143 259 143 332 c 2,11,-1
 143 1434 l 1,12,-1
 272 1434 l 1,13,-1
 272 332 l 2,14,15
 272 284 272 284 290 242.5 c 128,-1,16
 308 201 308 201 339.5 169.5 c 128,-1,17
 371 138 371 138 412.5 120 c 128,-1,18
 454 102 454 102 502 102 c 2,19,-1
 592 102 l 2,20,21
 640 102 640 102 681.5 120 c 128,-1,22
 723 138 723 138 754 169.5 c 128,-1,23
 785 201 785 201 803 242.5 c 128,-1,24
 821 284 821 284 821 332 c 2,25,-1
 821 1434 l 1,26,-1
 950 1434 l 1,27,-1
 950 332 l 1,28,-1
 950 332 l 1,0,1
301 1843 m 1,29,-1
 506 1843 l 1,30,-1
 670 1597 l 1,31,-1
 578 1597 l 1,32,-1
 301 1843 l 1,29,-1
EndSplineSet
EndChar

StartChar: Uacute
Encoding: 218 218 155
Width: 1094
Flags: W
LayerCount: 2
Fore
SplineSet
950 332 m 1,0,1
 950 259 950 259 922.5 195 c 128,-1,2
 895 131 895 131 847 83 c 128,-1,3
 799 35 799 35 735 7.5 c 128,-1,4
 671 -20 671 -20 598 -20 c 2,5,-1
 496 -20 l 2,6,7
 423 -20 423 -20 358.5 7.5 c 128,-1,8
 294 35 294 35 246 83 c 128,-1,9
 198 131 198 131 170.5 195 c 128,-1,10
 143 259 143 259 143 332 c 2,11,-1
 143 1434 l 1,12,-1
 272 1434 l 1,13,-1
 272 332 l 2,14,15
 272 284 272 284 290 242.5 c 128,-1,16
 308 201 308 201 339.5 169.5 c 128,-1,17
 371 138 371 138 412.5 120 c 128,-1,18
 454 102 454 102 502 102 c 2,19,-1
 592 102 l 2,20,21
 640 102 640 102 681.5 120 c 128,-1,22
 723 138 723 138 754 169.5 c 128,-1,23
 785 201 785 201 803 242.5 c 128,-1,24
 821 284 821 284 821 332 c 2,25,-1
 821 1434 l 1,26,-1
 950 1434 l 1,27,-1
 950 332 l 1,28,-1
 950 332 l 1,0,1
516 1597 m 1,29,-1
 424 1597 l 1,30,-1
 588 1843 l 1,31,-1
 793 1843 l 1,32,-1
 516 1597 l 1,29,-1
EndSplineSet
EndChar

StartChar: Ucircumflex
Encoding: 219 219 156
Width: 1094
Flags: W
LayerCount: 2
Fore
SplineSet
950 332 m 1,0,1
 950 259 950 259 922.5 195 c 128,-1,2
 895 131 895 131 847 83 c 128,-1,3
 799 35 799 35 735 7.5 c 128,-1,4
 671 -20 671 -20 598 -20 c 2,5,-1
 496 -20 l 2,6,7
 423 -20 423 -20 358.5 7.5 c 128,-1,8
 294 35 294 35 246 83 c 128,-1,9
 198 131 198 131 170.5 195 c 128,-1,10
 143 259 143 259 143 332 c 2,11,-1
 143 1434 l 1,12,-1
 272 1434 l 1,13,-1
 272 332 l 2,14,15
 272 284 272 284 290 242.5 c 128,-1,16
 308 201 308 201 339.5 169.5 c 128,-1,17
 371 138 371 138 412.5 120 c 128,-1,18
 454 102 454 102 502 102 c 2,19,-1
 592 102 l 2,20,21
 640 102 640 102 681.5 120 c 128,-1,22
 723 138 723 138 754 169.5 c 128,-1,23
 785 201 785 201 803 242.5 c 128,-1,24
 821 284 821 284 821 332 c 2,25,-1
 821 1434 l 1,26,-1
 950 1434 l 1,27,-1
 950 332 l 1,28,-1
 950 332 l 1,0,1
813 1597 m 1,29,-1
 690 1597 l 1,30,-1
 547 1761 l 1,31,-1
 403 1597 l 1,32,-1
 281 1597 l 1,33,-1
 485 1843 l 1,34,-1
 608 1843 l 1,35,-1
 813 1597 l 1,29,-1
EndSplineSet
EndChar

StartChar: Udieresis
Encoding: 220 220 157
Width: 1094
Flags: W
LayerCount: 2
Fore
SplineSet
950 332 m 1,0,1
 950 259 950 259 922.5 195 c 128,-1,2
 895 131 895 131 847 83 c 128,-1,3
 799 35 799 35 735 7.5 c 128,-1,4
 671 -20 671 -20 598 -20 c 2,5,-1
 496 -20 l 2,6,7
 423 -20 423 -20 358.5 7.5 c 128,-1,8
 294 35 294 35 246 83 c 128,-1,9
 198 131 198 131 170.5 195 c 128,-1,10
 143 259 143 259 143 332 c 2,11,-1
 143 1434 l 1,12,-1
 272 1434 l 1,13,-1
 272 332 l 2,14,15
 272 284 272 284 290 242.5 c 128,-1,16
 308 201 308 201 339.5 169.5 c 128,-1,17
 371 138 371 138 412.5 120 c 128,-1,18
 454 102 454 102 502 102 c 2,19,-1
 592 102 l 2,20,21
 640 102 640 102 681.5 120 c 128,-1,22
 723 138 723 138 754 169.5 c 128,-1,23
 785 201 785 201 803 242.5 c 128,-1,24
 821 284 821 284 821 332 c 2,25,-1
 821 1434 l 1,26,-1
 950 1434 l 1,27,-1
 950 332 l 1,28,-1
 950 332 l 1,0,1
276 1640 m 1,29,-1
 276 1794 l 1,30,-1
 430 1794 l 1,31,-1
 430 1640 l 1,32,-1
 276 1640 l 1,29,-1
664 1640 m 1,33,-1
 664 1794 l 1,34,-1
 817 1794 l 1,35,-1
 817 1640 l 1,36,-1
 664 1640 l 1,33,-1
EndSplineSet
EndChar

StartChar: Yacute
Encoding: 221 221 158
Width: 950
Flags: W
LayerCount: 2
Fore
SplineSet
541 686 m 1,0,-1
 541 0 l 1,1,-1
 412 0 l 1,2,-1
 412 684 l 1,3,-1
 41 1434 l 1,4,-1
 180 1434 l 1,5,-1
 475 838 l 1,6,-1
 770 1434 l 1,7,-1
 909 1434 l 1,8,-1
 541 686 l 1,0,-1
465 1597 m 1,9,-1
 373 1597 l 1,10,-1
 537 1843 l 1,11,-1
 741 1843 l 1,12,-1
 465 1597 l 1,9,-1
EndSplineSet
EndChar

StartChar: Thorn
Encoding: 222 222 159
Width: 1053
Flags: W
LayerCount: 2
Fore
SplineSet
971 682 m 1,0,1
 971 609 971 609 943.5 545 c 128,-1,2
 916 481 916 481 868 433 c 128,-1,3
 820 385 820 385 755.5 357.5 c 128,-1,4
 691 330 691 330 618 330 c 2,5,-1
 293 330 l 1,6,-1
 293 0 l 1,7,-1
 164 0 l 1,8,-1
 164 1434 l 1,9,-1
 293 1434 l 1,10,-1
 293 1151 l 1,11,-1
 618 1151 l 2,12,13
 691 1151 691 1151 755.5 1123.5 c 128,-1,14
 820 1096 820 1096 868 1048 c 128,-1,15
 916 1000 916 1000 943.5 936 c 128,-1,16
 971 872 971 872 971 799 c 2,17,-1
 971 682 l 1,18,-1
 971 682 l 1,0,1
842 799 m 2,19,20
 842 847 842 847 824 888.5 c 128,-1,21
 806 930 806 930 774.5 961 c 128,-1,22
 743 992 743 992 701.5 1010 c 128,-1,23
 660 1028 660 1028 612 1028 c 2,24,-1
 293 1028 l 1,25,-1
 293 453 l 1,26,-1
 612 453 l 2,27,28
 660 453 660 453 701.5 471 c 128,-1,29
 743 489 743 489 774.5 520 c 128,-1,30
 806 551 806 551 824 592.5 c 128,-1,31
 842 634 842 634 842 682 c 2,32,-1
 842 799 l 2,19,20
EndSplineSet
EndChar

StartChar: germandbls
Encoding: 223 223 160
Width: 1053
Flags: W
LayerCount: 2
Fore
SplineSet
471 117 m 1,0,-1
 582 117 l 2,1,2
 630 117 630 117 671.5 135 c 128,-1,3
 713 153 713 153 744 184 c 128,-1,4
 775 215 775 215 793 256.5 c 128,-1,5
 811 298 811 298 811 346 c 2,6,-1
 811 477 l 2,7,8
 811 525 811 525 793 566.5 c 128,-1,9
 775 608 775 608 744 639.5 c 128,-1,10
 713 671 713 671 671.5 689 c 128,-1,11
 630 707 630 707 582 707 c 2,12,-1
 471 707 l 1,13,-1
 471 823 l 1,14,-1
 582 823 l 2,15,16
 630 823 630 823 671.5 841 c 128,-1,17
 713 859 713 859 744 890.5 c 128,-1,18
 775 922 775 922 793 963.5 c 128,-1,19
 811 1005 811 1005 811 1053 c 2,20,-1
 811 1108 l 2,21,22
 811 1156 811 1156 793 1197.5 c 128,-1,23
 775 1239 775 1239 744 1270 c 128,-1,24
 713 1301 713 1301 671.5 1319 c 128,-1,25
 630 1337 630 1337 582 1337 c 2,26,-1
 522 1337 l 2,27,28
 474 1337 474 1337 432.5 1319 c 128,-1,29
 391 1301 391 1301 360 1270 c 128,-1,30
 329 1239 329 1239 311 1197.5 c 128,-1,31
 293 1156 293 1156 293 1108 c 2,32,-1
 293 0 l 1,33,-1
 170 0 l 1,34,-1
 170 1102 l 2,35,36
 170 1175 170 1175 197 1239 c 128,-1,37
 224 1303 224 1303 270.5 1351 c 128,-1,38
 317 1399 317 1399 380 1426.5 c 128,-1,39
 443 1454 443 1454 516 1454 c 2,40,-1
 582 1454 l 2,41,42
 655 1454 655 1454 719 1426.5 c 128,-1,43
 783 1399 783 1399 831 1351 c 128,-1,44
 879 1303 879 1303 906.5 1239 c 128,-1,45
 934 1175 934 1175 934 1102 c 2,46,-1
 934 1077 l 2,47,48
 934 1026 934 1026 920.5 979.5 c 128,-1,49
 907 933 907 933 882.5 893 c 128,-1,50
 858 853 858 853 823.5 820.5 c 128,-1,51
 789 788 789 788 748 766 c 1,52,53
 789 744 789 744 823.5 711.5 c 128,-1,54
 858 679 858 679 882.5 639 c 128,-1,55
 907 599 907 599 920.5 552.5 c 128,-1,56
 934 506 934 506 934 455 c 2,57,-1
 934 352 l 2,58,59
 934 279 934 279 906.5 215 c 128,-1,60
 879 151 879 151 831 103 c 128,-1,61
 783 55 783 55 719 27.5 c 128,-1,62
 655 0 655 0 582 0 c 2,63,-1
 471 0 l 1,64,-1
 471 117 l 1,0,-1
EndSplineSet
EndChar

StartChar: agrave
Encoding: 224 224 161
Width: 930
Flags: W
LayerCount: 2
Fore
SplineSet
766 0 m 1,0,-1
 698 102 l 1,1,2
 656 47 656 47 593 13.5 c 128,-1,3
 530 -20 530 -20 455 -20 c 2,4,-1
 424 -20 l 2,5,6
 362 -20 362 -20 307 3.5 c 128,-1,7
 252 27 252 27 211 68 c 128,-1,8
 170 109 170 109 146.5 164 c 128,-1,9
 123 219 123 219 123 281 c 2,10,-1
 123 291 l 2,11,12
 123 353 123 353 146.5 408 c 128,-1,13
 170 463 170 463 211 504 c 128,-1,14
 252 545 252 545 307 568.5 c 128,-1,15
 362 592 362 592 424 592 c 2,16,-1
 684 592 l 1,17,-1
 684 750 l 2,18,19
 684 787 684 787 670 819.5 c 128,-1,20
 656 852 656 852 632 876 c 128,-1,21
 608 900 608 900 575.5 914 c 128,-1,22
 543 928 543 928 506 928 c 2,23,-1
 434 928 l 2,24,25
 397 928 397 928 364.5 914 c 128,-1,26
 332 900 332 900 308 876 c 128,-1,27
 284 852 284 852 270 819.5 c 128,-1,28
 256 787 256 787 256 750 c 2,29,-1
 256 713 l 1,30,-1
 133 733 l 1,31,-1
 133 743 l 2,32,33
 133 805 133 805 156.5 860 c 128,-1,34
 180 915 180 915 221 956 c 128,-1,35
 262 997 262 997 317 1020.5 c 128,-1,36
 372 1044 372 1044 434 1044 c 2,37,-1
 506 1044 l 2,38,39
 568 1044 568 1044 623 1020.5 c 128,-1,40
 678 997 678 997 719 956 c 128,-1,41
 760 915 760 915 783.5 860 c 128,-1,42
 807 805 807 805 807 743 c 2,43,-1
 807 0 l 1,44,-1
 766 0 l 1,0,-1
684 496 m 1,45,-1
 424 496 l 2,46,47
 387 496 387 496 354.5 482 c 128,-1,48
 322 468 322 468 298 443.5 c 128,-1,49
 274 419 274 419 260 386.5 c 128,-1,50
 246 354 246 354 246 317 c 2,51,-1
 246 274 l 2,52,53
 246 237 246 237 260 204.5 c 128,-1,54
 274 172 274 172 298 148 c 128,-1,55
 322 124 322 124 354.5 110 c 128,-1,56
 387 96 387 96 424 96 c 2,57,-1
 506 96 l 2,58,59
 543 96 543 96 575.5 110 c 128,-1,60
 608 124 608 124 632 148 c 128,-1,61
 656 172 656 172 670 204.5 c 128,-1,62
 684 237 684 237 684 274 c 2,63,-1
 684 496 l 1,45,-1
240 1434 m 1,64,-1
 444 1434 l 1,65,-1
 608 1188 l 1,66,-1
 516 1188 l 1,67,-1
 240 1434 l 1,64,-1
EndSplineSet
EndChar

StartChar: aacute
Encoding: 225 225 162
Width: 930
Flags: W
LayerCount: 2
Fore
SplineSet
766 0 m 1,0,-1
 698 102 l 1,1,2
 656 47 656 47 593 13.5 c 128,-1,3
 530 -20 530 -20 455 -20 c 2,4,-1
 424 -20 l 2,5,6
 362 -20 362 -20 307 3.5 c 128,-1,7
 252 27 252 27 211 68 c 128,-1,8
 170 109 170 109 146.5 164 c 128,-1,9
 123 219 123 219 123 281 c 2,10,-1
 123 291 l 2,11,12
 123 353 123 353 146.5 408 c 128,-1,13
 170 463 170 463 211 504 c 128,-1,14
 252 545 252 545 307 568.5 c 128,-1,15
 362 592 362 592 424 592 c 2,16,-1
 684 592 l 1,17,-1
 684 750 l 2,18,19
 684 787 684 787 670 819.5 c 128,-1,20
 656 852 656 852 632 876 c 128,-1,21
 608 900 608 900 575.5 914 c 128,-1,22
 543 928 543 928 506 928 c 2,23,-1
 434 928 l 2,24,25
 397 928 397 928 364.5 914 c 128,-1,26
 332 900 332 900 308 876 c 128,-1,27
 284 852 284 852 270 819.5 c 128,-1,28
 256 787 256 787 256 750 c 2,29,-1
 256 713 l 1,30,-1
 133 733 l 1,31,-1
 133 743 l 2,32,33
 133 805 133 805 156.5 860 c 128,-1,34
 180 915 180 915 221 956 c 128,-1,35
 262 997 262 997 317 1020.5 c 128,-1,36
 372 1044 372 1044 434 1044 c 2,37,-1
 506 1044 l 2,38,39
 568 1044 568 1044 623 1020.5 c 128,-1,40
 678 997 678 997 719 956 c 128,-1,41
 760 915 760 915 783.5 860 c 128,-1,42
 807 805 807 805 807 743 c 2,43,-1
 807 0 l 1,44,-1
 766 0 l 1,0,-1
684 496 m 1,45,-1
 424 496 l 2,46,47
 387 496 387 496 354.5 482 c 128,-1,48
 322 468 322 468 298 443.5 c 128,-1,49
 274 419 274 419 260 386.5 c 128,-1,50
 246 354 246 354 246 317 c 2,51,-1
 246 274 l 2,52,53
 246 237 246 237 260 204.5 c 128,-1,54
 274 172 274 172 298 148 c 128,-1,55
 322 124 322 124 354.5 110 c 128,-1,56
 387 96 387 96 424 96 c 2,57,-1
 506 96 l 2,58,59
 543 96 543 96 575.5 110 c 128,-1,60
 608 124 608 124 632 148 c 128,-1,61
 656 172 656 172 670 204.5 c 128,-1,62
 684 237 684 237 684 274 c 2,63,-1
 684 496 l 1,45,-1
414 1188 m 1,64,-1
 322 1188 l 1,65,-1
 485 1434 l 1,66,-1
 690 1434 l 1,67,-1
 414 1188 l 1,64,-1
EndSplineSet
EndChar

StartChar: acircumflex
Encoding: 226 226 163
Width: 930
Flags: W
LayerCount: 2
Fore
SplineSet
766 0 m 1,0,-1
 698 102 l 1,1,2
 656 47 656 47 593 13.5 c 128,-1,3
 530 -20 530 -20 455 -20 c 2,4,-1
 424 -20 l 2,5,6
 362 -20 362 -20 307 3.5 c 128,-1,7
 252 27 252 27 211 68 c 128,-1,8
 170 109 170 109 146.5 164 c 128,-1,9
 123 219 123 219 123 281 c 2,10,-1
 123 291 l 2,11,12
 123 353 123 353 146.5 408 c 128,-1,13
 170 463 170 463 211 504 c 128,-1,14
 252 545 252 545 307 568.5 c 128,-1,15
 362 592 362 592 424 592 c 2,16,-1
 684 592 l 1,17,-1
 684 750 l 2,18,19
 684 787 684 787 670 819.5 c 128,-1,20
 656 852 656 852 632 876 c 128,-1,21
 608 900 608 900 575.5 914 c 128,-1,22
 543 928 543 928 506 928 c 2,23,-1
 434 928 l 2,24,25
 397 928 397 928 364.5 914 c 128,-1,26
 332 900 332 900 308 876 c 128,-1,27
 284 852 284 852 270 819.5 c 128,-1,28
 256 787 256 787 256 750 c 2,29,-1
 256 713 l 1,30,-1
 133 733 l 1,31,-1
 133 743 l 2,32,33
 133 805 133 805 156.5 860 c 128,-1,34
 180 915 180 915 221 956 c 128,-1,35
 262 997 262 997 317 1020.5 c 128,-1,36
 372 1044 372 1044 434 1044 c 2,37,-1
 506 1044 l 2,38,39
 568 1044 568 1044 623 1020.5 c 128,-1,40
 678 997 678 997 719 956 c 128,-1,41
 760 915 760 915 783.5 860 c 128,-1,42
 807 805 807 805 807 743 c 2,43,-1
 807 0 l 1,44,-1
 766 0 l 1,0,-1
684 496 m 1,45,-1
 424 496 l 2,46,47
 387 496 387 496 354.5 482 c 128,-1,48
 322 468 322 468 298 443.5 c 128,-1,49
 274 419 274 419 260 386.5 c 128,-1,50
 246 354 246 354 246 317 c 2,51,-1
 246 274 l 2,52,53
 246 237 246 237 260 204.5 c 128,-1,54
 274 172 274 172 298 148 c 128,-1,55
 322 124 322 124 354.5 110 c 128,-1,56
 387 96 387 96 424 96 c 2,57,-1
 506 96 l 2,58,59
 543 96 543 96 575.5 110 c 128,-1,60
 608 124 608 124 632 148 c 128,-1,61
 656 172 656 172 670 204.5 c 128,-1,62
 684 237 684 237 684 274 c 2,63,-1
 684 496 l 1,45,-1
752 1188 m 1,64,-1
 629 1188 l 1,65,-1
 485 1352 l 1,66,-1
 342 1188 l 1,67,-1
 219 1188 l 1,68,-1
 424 1434 l 1,69,-1
 547 1434 l 1,70,-1
 752 1188 l 1,64,-1
EndSplineSet
EndChar

StartChar: atilde
Encoding: 227 227 164
Width: 930
Flags: W
LayerCount: 2
Fore
SplineSet
766 0 m 1,0,-1
 698 102 l 1,1,2
 656 47 656 47 593 13.5 c 128,-1,3
 530 -20 530 -20 455 -20 c 2,4,-1
 424 -20 l 2,5,6
 362 -20 362 -20 307 3.5 c 128,-1,7
 252 27 252 27 211 68 c 128,-1,8
 170 109 170 109 146.5 164 c 128,-1,9
 123 219 123 219 123 281 c 2,10,-1
 123 291 l 2,11,12
 123 353 123 353 146.5 408 c 128,-1,13
 170 463 170 463 211 504 c 128,-1,14
 252 545 252 545 307 568.5 c 128,-1,15
 362 592 362 592 424 592 c 2,16,-1
 684 592 l 1,17,-1
 684 750 l 2,18,19
 684 787 684 787 670 819.5 c 128,-1,20
 656 852 656 852 632 876 c 128,-1,21
 608 900 608 900 575.5 914 c 128,-1,22
 543 928 543 928 506 928 c 2,23,-1
 434 928 l 2,24,25
 397 928 397 928 364.5 914 c 128,-1,26
 332 900 332 900 308 876 c 128,-1,27
 284 852 284 852 270 819.5 c 128,-1,28
 256 787 256 787 256 750 c 2,29,-1
 256 713 l 1,30,-1
 133 733 l 1,31,-1
 133 743 l 2,32,33
 133 805 133 805 156.5 860 c 128,-1,34
 180 915 180 915 221 956 c 128,-1,35
 262 997 262 997 317 1020.5 c 128,-1,36
 372 1044 372 1044 434 1044 c 2,37,-1
 506 1044 l 2,38,39
 568 1044 568 1044 623 1020.5 c 128,-1,40
 678 997 678 997 719 956 c 128,-1,41
 760 915 760 915 783.5 860 c 128,-1,42
 807 805 807 805 807 743 c 2,43,-1
 807 0 l 1,44,-1
 766 0 l 1,0,-1
684 496 m 1,45,-1
 424 496 l 2,46,47
 387 496 387 496 354.5 482 c 128,-1,48
 322 468 322 468 298 443.5 c 128,-1,49
 274 419 274 419 260 386.5 c 128,-1,50
 246 354 246 354 246 317 c 2,51,-1
 246 274 l 2,52,53
 246 237 246 237 260 204.5 c 128,-1,54
 274 172 274 172 298 148 c 128,-1,55
 322 124 322 124 354.5 110 c 128,-1,56
 387 96 387 96 424 96 c 2,57,-1
 506 96 l 2,58,59
 543 96 543 96 575.5 110 c 128,-1,60
 608 124 608 124 632 148 c 128,-1,61
 656 172 656 172 670 204.5 c 128,-1,62
 684 237 684 237 684 274 c 2,63,-1
 684 496 l 1,45,-1
602 1319 m 0,64,65
 644 1319 644 1319 666 1351 c 128,-1,66
 688 1383 688 1383 688 1434 c 1,67,-1
 782 1434 l 1,68,69
 782 1389 782 1389 770.5 1350 c 128,-1,70
 759 1311 759 1311 736.5 1282 c 128,-1,71
 714 1253 714 1253 679.5 1236 c 128,-1,72
 645 1219 645 1219 600 1219 c 0,73,74
 552 1219 552 1219 515.5 1237 c 128,-1,75
 479 1255 479 1255 447.5 1276 c 128,-1,76
 416 1297 416 1297 387.5 1315 c 128,-1,77
 359 1333 359 1333 328 1333 c 0,78,79
 286 1333 286 1333 265 1301.5 c 128,-1,80
 244 1270 244 1270 244 1221 c 1,81,-1
 150 1221 l 1,82,83
 150 1265 150 1265 161 1304 c 128,-1,84
 172 1343 172 1343 194.5 1372 c 128,-1,85
 217 1401 217 1401 251.5 1417.5 c 128,-1,86
 286 1434 286 1434 332 1434 c 0,87,88
 377 1434 377 1434 411.5 1416 c 128,-1,89
 446 1398 446 1398 476.5 1376.5 c 128,-1,90
 507 1355 507 1355 537 1337 c 128,-1,91
 567 1319 567 1319 602 1319 c 0,64,65
EndSplineSet
EndChar

StartChar: adieresis
Encoding: 228 228 165
Width: 930
Flags: W
LayerCount: 2
Fore
SplineSet
766 0 m 1,0,-1
 698 102 l 1,1,2
 656 47 656 47 593 13.5 c 128,-1,3
 530 -20 530 -20 455 -20 c 2,4,-1
 424 -20 l 2,5,6
 362 -20 362 -20 307 3.5 c 128,-1,7
 252 27 252 27 211 68 c 128,-1,8
 170 109 170 109 146.5 164 c 128,-1,9
 123 219 123 219 123 281 c 2,10,-1
 123 291 l 2,11,12
 123 353 123 353 146.5 408 c 128,-1,13
 170 463 170 463 211 504 c 128,-1,14
 252 545 252 545 307 568.5 c 128,-1,15
 362 592 362 592 424 592 c 2,16,-1
 684 592 l 1,17,-1
 684 750 l 2,18,19
 684 787 684 787 670 819.5 c 128,-1,20
 656 852 656 852 632 876 c 128,-1,21
 608 900 608 900 575.5 914 c 128,-1,22
 543 928 543 928 506 928 c 2,23,-1
 434 928 l 2,24,25
 397 928 397 928 364.5 914 c 128,-1,26
 332 900 332 900 308 876 c 128,-1,27
 284 852 284 852 270 819.5 c 128,-1,28
 256 787 256 787 256 750 c 2,29,-1
 256 713 l 1,30,-1
 133 733 l 1,31,-1
 133 743 l 2,32,33
 133 805 133 805 156.5 860 c 128,-1,34
 180 915 180 915 221 956 c 128,-1,35
 262 997 262 997 317 1020.5 c 128,-1,36
 372 1044 372 1044 434 1044 c 2,37,-1
 506 1044 l 2,38,39
 568 1044 568 1044 623 1020.5 c 128,-1,40
 678 997 678 997 719 956 c 128,-1,41
 760 915 760 915 783.5 860 c 128,-1,42
 807 805 807 805 807 743 c 2,43,-1
 807 0 l 1,44,-1
 766 0 l 1,0,-1
684 496 m 1,45,-1
 424 496 l 2,46,47
 387 496 387 496 354.5 482 c 128,-1,48
 322 468 322 468 298 443.5 c 128,-1,49
 274 419 274 419 260 386.5 c 128,-1,50
 246 354 246 354 246 317 c 2,51,-1
 246 274 l 2,52,53
 246 237 246 237 260 204.5 c 128,-1,54
 274 172 274 172 298 148 c 128,-1,55
 322 124 322 124 354.5 110 c 128,-1,56
 387 96 387 96 424 96 c 2,57,-1
 506 96 l 2,58,59
 543 96 543 96 575.5 110 c 128,-1,60
 608 124 608 124 632 148 c 128,-1,61
 656 172 656 172 670 204.5 c 128,-1,62
 684 237 684 237 684 274 c 2,63,-1
 684 496 l 1,45,-1
215 1231 m 1,64,-1
 215 1384 l 1,65,-1
 369 1384 l 1,66,-1
 369 1231 l 1,67,-1
 215 1231 l 1,64,-1
602 1231 m 1,68,-1
 602 1384 l 1,69,-1
 756 1384 l 1,70,-1
 756 1231 l 1,71,-1
 602 1231 l 1,68,-1
EndSplineSet
EndChar

StartChar: aring
Encoding: 229 229 166
Width: 930
Flags: W
LayerCount: 2
Fore
SplineSet
766 0 m 1,0,-1
 698 102 l 1,1,2
 656 47 656 47 593 13.5 c 128,-1,3
 530 -20 530 -20 455 -20 c 2,4,-1
 424 -20 l 2,5,6
 362 -20 362 -20 307 3.5 c 128,-1,7
 252 27 252 27 211 68 c 128,-1,8
 170 109 170 109 146.5 164 c 128,-1,9
 123 219 123 219 123 281 c 2,10,-1
 123 291 l 2,11,12
 123 353 123 353 146.5 408 c 128,-1,13
 170 463 170 463 211 504 c 128,-1,14
 252 545 252 545 307 568.5 c 128,-1,15
 362 592 362 592 424 592 c 2,16,-1
 684 592 l 1,17,-1
 684 750 l 2,18,19
 684 787 684 787 670 819.5 c 128,-1,20
 656 852 656 852 632 876 c 128,-1,21
 608 900 608 900 575.5 914 c 128,-1,22
 543 928 543 928 506 928 c 2,23,-1
 434 928 l 2,24,25
 397 928 397 928 364.5 914 c 128,-1,26
 332 900 332 900 308 876 c 128,-1,27
 284 852 284 852 270 819.5 c 128,-1,28
 256 787 256 787 256 750 c 2,29,-1
 256 713 l 1,30,-1
 133 733 l 1,31,-1
 133 743 l 2,32,33
 133 805 133 805 156.5 860 c 128,-1,34
 180 915 180 915 221 956 c 128,-1,35
 262 997 262 997 317 1020.5 c 128,-1,36
 372 1044 372 1044 434 1044 c 2,37,-1
 506 1044 l 2,38,39
 568 1044 568 1044 623 1020.5 c 128,-1,40
 678 997 678 997 719 956 c 128,-1,41
 760 915 760 915 783.5 860 c 128,-1,42
 807 805 807 805 807 743 c 2,43,-1
 807 0 l 1,44,-1
 766 0 l 1,0,-1
684 496 m 1,45,-1
 424 496 l 2,46,47
 387 496 387 496 354.5 482 c 128,-1,48
 322 468 322 468 298 443.5 c 128,-1,49
 274 419 274 419 260 386.5 c 128,-1,50
 246 354 246 354 246 317 c 2,51,-1
 246 274 l 2,52,53
 246 237 246 237 260 204.5 c 128,-1,54
 274 172 274 172 298 148 c 128,-1,55
 322 124 322 124 354.5 110 c 128,-1,56
 387 96 387 96 424 96 c 2,57,-1
 506 96 l 2,58,59
 543 96 543 96 575.5 110 c 128,-1,60
 608 124 608 124 632 148 c 128,-1,61
 656 172 656 172 670 204.5 c 128,-1,62
 684 237 684 237 684 274 c 2,63,-1
 684 496 l 1,45,-1
258 1358 m 256,64,65
 258 1402 258 1402 274.5 1440.5 c 128,-1,66
 291 1479 291 1479 319.5 1508 c 128,-1,67
 348 1537 348 1537 386.5 1554 c 128,-1,68
 425 1571 425 1571 469 1571 c 256,69,70
 513 1571 513 1571 551.5 1554 c 128,-1,71
 590 1537 590 1537 619 1508 c 128,-1,72
 648 1479 648 1479 665 1440.5 c 128,-1,73
 682 1402 682 1402 682 1358 c 256,74,75
 682 1314 682 1314 665 1275.5 c 128,-1,76
 648 1237 648 1237 619 1208.5 c 128,-1,77
 590 1180 590 1180 551.5 1163.5 c 128,-1,78
 513 1147 513 1147 469 1147 c 256,79,80
 425 1147 425 1147 386.5 1163.5 c 128,-1,81
 348 1180 348 1180 319.5 1208.5 c 128,-1,82
 291 1237 291 1237 274.5 1275.5 c 128,-1,83
 258 1314 258 1314 258 1358 c 256,64,65
360 1358 m 0,84,85
 360 1336 360 1336 368.5 1315.5 c 128,-1,86
 377 1295 377 1295 392 1280 c 128,-1,87
 407 1265 407 1265 427 1256 c 128,-1,88
 447 1247 447 1247 469 1247 c 0,89,90
 492 1247 492 1247 512 1256 c 128,-1,91
 532 1265 532 1265 547 1280 c 128,-1,92
 562 1295 562 1295 571 1315.5 c 128,-1,93
 580 1336 580 1336 580 1358 c 0,94,95
 580 1381 580 1381 571 1401.5 c 128,-1,96
 562 1422 562 1422 547 1437 c 128,-1,97
 532 1452 532 1452 512 1461 c 128,-1,98
 492 1470 492 1470 469 1470 c 0,99,100
 447 1470 447 1470 427 1461 c 128,-1,101
 407 1452 407 1452 392 1437 c 128,-1,102
 377 1422 377 1422 368.5 1401.5 c 128,-1,103
 360 1381 360 1381 360 1358 c 0,84,85
EndSplineSet
EndChar

StartChar: ae
Encoding: 230 230 167
Width: 1491
Flags: W
LayerCount: 2
Fore
SplineSet
1368 281 m 1,0,1
 1368 219 1368 219 1344.5 164 c 128,-1,2
 1321 109 1321 109 1280 68 c 128,-1,3
 1239 27 1239 27 1184 3.5 c 128,-1,4
 1129 -20 1129 -20 1067 -20 c 2,5,-1
 985 -20 l 2,6,7
 943 -20 943 -20 903.5 -9 c 128,-1,8
 864 2 864 2 830 22 c 128,-1,9
 796 42 796 42 768 70.5 c 128,-1,10
 740 99 740 99 721 133 c 1,11,12
 693 88 693 88 661.5 58.5 c 128,-1,13
 630 29 630 29 595.5 11.5 c 128,-1,14
 561 -6 561 -6 525.5 -13 c 128,-1,15
 490 -20 490 -20 455 -20 c 2,16,-1
 424 -20 l 2,17,18
 362 -20 362 -20 307 3.5 c 128,-1,19
 252 27 252 27 211 68 c 128,-1,20
 170 109 170 109 146.5 164 c 128,-1,21
 123 219 123 219 123 281 c 2,22,-1
 123 291 l 2,23,24
 123 353 123 353 146.5 408 c 128,-1,25
 170 463 170 463 211 504 c 128,-1,26
 252 545 252 545 307 568.5 c 128,-1,27
 362 592 362 592 424 592 c 2,28,-1
 684 592 l 1,29,-1
 684 756 l 1,30,31
 683 791 683 791 668.5 822.5 c 128,-1,32
 654 854 654 854 630 877.5 c 128,-1,33
 606 901 606 901 574 914.5 c 128,-1,34
 542 928 542 928 506 928 c 2,35,-1
 434 928 l 2,36,37
 397 928 397 928 364.5 914 c 128,-1,38
 332 900 332 900 308 876 c 128,-1,39
 284 852 284 852 270 819.5 c 128,-1,40
 256 787 256 787 256 750 c 2,41,-1
 256 713 l 1,42,-1
 133 733 l 1,43,-1
 133 743 l 2,44,45
 133 805 133 805 156.5 860 c 128,-1,46
 180 915 180 915 221 956 c 128,-1,47
 262 997 262 997 317 1020.5 c 128,-1,48
 372 1044 372 1044 434 1044 c 2,49,-1
 506 1044 l 2,50,51
 578 1044 578 1044 640.5 1011.5 c 128,-1,52
 703 979 703 979 745 924 c 1,53,54
 787 979 787 979 849 1011.5 c 128,-1,55
 911 1044 911 1044 985 1044 c 2,56,-1
 1067 1044 l 2,57,58
 1129 1044 1129 1044 1184 1020.5 c 128,-1,59
 1239 997 1239 997 1280 956 c 128,-1,60
 1321 915 1321 915 1344.5 860 c 128,-1,61
 1368 805 1368 805 1368 743 c 2,62,-1
 1368 502 l 1,63,-1
 807 502 l 1,64,-1
 807 274 l 2,65,66
 807 237 807 237 821 204.5 c 128,-1,67
 835 172 835 172 859 148 c 128,-1,68
 883 124 883 124 915.5 110 c 128,-1,69
 948 96 948 96 985 96 c 2,70,-1
 1067 96 l 2,71,72
 1104 96 1104 96 1136.5 110 c 128,-1,73
 1169 124 1169 124 1193 148 c 128,-1,74
 1217 172 1217 172 1231 204.5 c 128,-1,75
 1245 237 1245 237 1245 274 c 2,76,-1
 1245 342 l 1,77,-1
 1368 322 l 1,78,-1
 1368 281 l 1,79,-1
 1368 281 l 1,0,1
684 496 m 1,80,-1
 424 496 l 2,81,82
 387 496 387 496 354.5 482 c 128,-1,83
 322 468 322 468 298 443.5 c 128,-1,84
 274 419 274 419 260 386.5 c 128,-1,85
 246 354 246 354 246 317 c 2,86,-1
 246 274 l 2,87,88
 246 237 246 237 260 204.5 c 128,-1,89
 274 172 274 172 298 148 c 128,-1,90
 322 124 322 124 354.5 110 c 128,-1,91
 387 96 387 96 424 96 c 2,92,-1
 506 96 l 2,93,94
 543 96 543 96 575.5 110 c 128,-1,95
 608 124 608 124 632 148 c 128,-1,96
 656 172 656 172 670 204.5 c 128,-1,97
 684 237 684 237 684 274 c 2,98,-1
 684 496 l 1,80,-1
1245 750 m 2,99,100
 1245 787 1245 787 1231 819.5 c 128,-1,101
 1217 852 1217 852 1193 876 c 128,-1,102
 1169 900 1169 900 1136.5 914 c 128,-1,103
 1104 928 1104 928 1067 928 c 2,104,-1
 985 928 l 2,105,106
 949 928 949 928 917 914.5 c 128,-1,107
 885 901 885 901 861 877.5 c 128,-1,108
 837 854 837 854 822.5 822.5 c 128,-1,109
 808 791 808 791 807 756 c 1,110,-1
 807 598 l 1,111,-1
 1245 598 l 1,112,-1
 1245 750 l 2,99,100
EndSplineSet
EndChar

StartChar: ccedilla
Encoding: 231 231 168
Width: 930
Flags: W
LayerCount: 2
Fore
SplineSet
436 -20 m 1,0,-1
 424 -20 l 2,1,2
 362 -20 362 -20 307 3.5 c 128,-1,3
 252 27 252 27 211 68 c 128,-1,4
 170 109 170 109 146.5 164 c 128,-1,5
 123 219 123 219 123 281 c 2,6,-1
 123 743 l 2,7,8
 123 805 123 805 146.5 860 c 128,-1,9
 170 915 170 915 211 956 c 128,-1,10
 252 997 252 997 307 1020.5 c 128,-1,11
 362 1044 362 1044 424 1044 c 2,12,-1
 506 1044 l 2,13,14
 568 1044 568 1044 623 1020.5 c 128,-1,15
 678 997 678 997 719 956 c 128,-1,16
 760 915 760 915 783.5 860 c 128,-1,17
 807 805 807 805 807 743 c 2,18,-1
 807 702 l 1,19,-1
 684 682 l 1,20,-1
 684 750 l 2,21,22
 684 787 684 787 670 819.5 c 128,-1,23
 656 852 656 852 632 876 c 128,-1,24
 608 900 608 900 575.5 914 c 128,-1,25
 543 928 543 928 506 928 c 2,26,-1
 424 928 l 2,27,28
 387 928 387 928 354.5 914 c 128,-1,29
 322 900 322 900 298 876 c 128,-1,30
 274 852 274 852 260 819.5 c 128,-1,31
 246 787 246 787 246 750 c 2,32,-1
 246 274 l 2,33,34
 246 237 246 237 260 204.5 c 128,-1,35
 274 172 274 172 298 148 c 128,-1,36
 322 124 322 124 354.5 110 c 128,-1,37
 387 96 387 96 424 96 c 2,38,-1
 506 96 l 2,39,40
 543 96 543 96 575.5 110 c 128,-1,41
 608 124 608 124 632 148 c 128,-1,42
 656 172 656 172 670 204.5 c 128,-1,43
 684 237 684 237 684 274 c 2,44,-1
 684 342 l 1,45,-1
 807 322 l 1,46,-1
 807 281 l 2,47,48
 807 221 807 221 784.5 168 c 128,-1,49
 762 115 762 115 723.5 74.5 c 128,-1,50
 685 34 685 34 633 9 c 128,-1,51
 581 -16 581 -16 522 -20 c 1,52,-1
 475 -102 l 1,53,54
 484 -106 484 -106 500 -116.5 c 128,-1,55
 516 -127 516 -127 531.5 -145 c 128,-1,56
 547 -163 547 -163 558 -188 c 128,-1,57
 569 -213 569 -213 569 -246 c 0,58,59
 569 -284 569 -284 555.5 -315 c 128,-1,60
 542 -346 542 -346 517.5 -367.5 c 128,-1,61
 493 -389 493 -389 459 -400.5 c 128,-1,62
 425 -412 425 -412 385 -412 c 0,63,64
 340 -412 340 -412 303.5 -394.5 c 128,-1,65
 267 -377 267 -377 238 -348 c 1,66,-1
 285 -276 l 1,67,68
 290 -282 290 -282 299 -290 c 128,-1,69
 308 -298 308 -298 321.5 -305 c 128,-1,70
 335 -312 335 -312 351.5 -317 c 128,-1,71
 368 -322 368 -322 387 -322 c 0,72,73
 424 -322 424 -322 449.5 -301 c 128,-1,74
 475 -280 475 -280 475 -242 c 0,75,76
 475 -218 475 -218 465.5 -200 c 128,-1,77
 456 -182 456 -182 439.5 -170 c 128,-1,78
 423 -158 423 -158 401.5 -153 c 128,-1,79
 380 -148 380 -148 356 -150 c 1,80,-1
 436 -20 l 1,0,-1
EndSplineSet
EndChar

StartChar: egrave
Encoding: 232 232 169
Width: 930
Flags: W
LayerCount: 2
Fore
SplineSet
807 281 m 1,0,1
 807 219 807 219 783.5 164 c 128,-1,2
 760 109 760 109 719 68 c 128,-1,3
 678 27 678 27 623 3.5 c 128,-1,4
 568 -20 568 -20 506 -20 c 2,5,-1
 424 -20 l 2,6,7
 362 -20 362 -20 307 3.5 c 128,-1,8
 252 27 252 27 211 68 c 128,-1,9
 170 109 170 109 146.5 164 c 128,-1,10
 123 219 123 219 123 281 c 2,11,-1
 123 743 l 2,12,13
 123 805 123 805 146.5 860 c 128,-1,14
 170 915 170 915 211 956 c 128,-1,15
 252 997 252 997 307 1020.5 c 128,-1,16
 362 1044 362 1044 424 1044 c 2,17,-1
 506 1044 l 2,18,19
 568 1044 568 1044 623 1020.5 c 128,-1,20
 678 997 678 997 719 956 c 128,-1,21
 760 915 760 915 783.5 860 c 128,-1,22
 807 805 807 805 807 743 c 2,23,-1
 807 502 l 1,24,-1
 246 502 l 1,25,-1
 246 274 l 2,26,27
 246 237 246 237 260 204.5 c 128,-1,28
 274 172 274 172 298 148 c 128,-1,29
 322 124 322 124 354.5 110 c 128,-1,30
 387 96 387 96 424 96 c 2,31,-1
 506 96 l 2,32,33
 543 96 543 96 575.5 110 c 128,-1,34
 608 124 608 124 632 148 c 128,-1,35
 656 172 656 172 670 204.5 c 128,-1,36
 684 237 684 237 684 274 c 2,37,-1
 684 342 l 1,38,-1
 807 322 l 1,39,-1
 807 281 l 1,40,-1
 807 281 l 1,0,1
684 750 m 2,41,42
 684 787 684 787 670 819.5 c 128,-1,43
 656 852 656 852 632 876 c 128,-1,44
 608 900 608 900 575.5 914 c 128,-1,45
 543 928 543 928 506 928 c 2,46,-1
 424 928 l 2,47,48
 387 928 387 928 354.5 914 c 128,-1,49
 322 900 322 900 298 876 c 128,-1,50
 274 852 274 852 260 819.5 c 128,-1,51
 246 787 246 787 246 750 c 2,52,-1
 246 598 l 1,53,-1
 684 598 l 1,54,-1
 684 750 l 2,41,42
240 1434 m 1,55,-1
 444 1434 l 1,56,-1
 608 1188 l 1,57,-1
 516 1188 l 1,58,-1
 240 1434 l 1,55,-1
EndSplineSet
EndChar

StartChar: eacute
Encoding: 233 233 170
Width: 930
Flags: W
LayerCount: 2
Fore
SplineSet
807 281 m 1,0,1
 807 219 807 219 783.5 164 c 128,-1,2
 760 109 760 109 719 68 c 128,-1,3
 678 27 678 27 623 3.5 c 128,-1,4
 568 -20 568 -20 506 -20 c 2,5,-1
 424 -20 l 2,6,7
 362 -20 362 -20 307 3.5 c 128,-1,8
 252 27 252 27 211 68 c 128,-1,9
 170 109 170 109 146.5 164 c 128,-1,10
 123 219 123 219 123 281 c 2,11,-1
 123 743 l 2,12,13
 123 805 123 805 146.5 860 c 128,-1,14
 170 915 170 915 211 956 c 128,-1,15
 252 997 252 997 307 1020.5 c 128,-1,16
 362 1044 362 1044 424 1044 c 2,17,-1
 506 1044 l 2,18,19
 568 1044 568 1044 623 1020.5 c 128,-1,20
 678 997 678 997 719 956 c 128,-1,21
 760 915 760 915 783.5 860 c 128,-1,22
 807 805 807 805 807 743 c 2,23,-1
 807 502 l 1,24,-1
 246 502 l 1,25,-1
 246 274 l 2,26,27
 246 237 246 237 260 204.5 c 128,-1,28
 274 172 274 172 298 148 c 128,-1,29
 322 124 322 124 354.5 110 c 128,-1,30
 387 96 387 96 424 96 c 2,31,-1
 506 96 l 2,32,33
 543 96 543 96 575.5 110 c 128,-1,34
 608 124 608 124 632 148 c 128,-1,35
 656 172 656 172 670 204.5 c 128,-1,36
 684 237 684 237 684 274 c 2,37,-1
 684 342 l 1,38,-1
 807 322 l 1,39,-1
 807 281 l 1,40,-1
 807 281 l 1,0,1
684 750 m 2,41,42
 684 787 684 787 670 819.5 c 128,-1,43
 656 852 656 852 632 876 c 128,-1,44
 608 900 608 900 575.5 914 c 128,-1,45
 543 928 543 928 506 928 c 2,46,-1
 424 928 l 2,47,48
 387 928 387 928 354.5 914 c 128,-1,49
 322 900 322 900 298 876 c 128,-1,50
 274 852 274 852 260 819.5 c 128,-1,51
 246 787 246 787 246 750 c 2,52,-1
 246 598 l 1,53,-1
 684 598 l 1,54,-1
 684 750 l 2,41,42
414 1188 m 1,55,-1
 322 1188 l 1,56,-1
 485 1434 l 1,57,-1
 690 1434 l 1,58,-1
 414 1188 l 1,55,-1
EndSplineSet
EndChar

StartChar: ecircumflex
Encoding: 234 234 171
Width: 930
Flags: W
LayerCount: 2
Fore
SplineSet
807 281 m 1,0,1
 807 219 807 219 783.5 164 c 128,-1,2
 760 109 760 109 719 68 c 128,-1,3
 678 27 678 27 623 3.5 c 128,-1,4
 568 -20 568 -20 506 -20 c 2,5,-1
 424 -20 l 2,6,7
 362 -20 362 -20 307 3.5 c 128,-1,8
 252 27 252 27 211 68 c 128,-1,9
 170 109 170 109 146.5 164 c 128,-1,10
 123 219 123 219 123 281 c 2,11,-1
 123 743 l 2,12,13
 123 805 123 805 146.5 860 c 128,-1,14
 170 915 170 915 211 956 c 128,-1,15
 252 997 252 997 307 1020.5 c 128,-1,16
 362 1044 362 1044 424 1044 c 2,17,-1
 506 1044 l 2,18,19
 568 1044 568 1044 623 1020.5 c 128,-1,20
 678 997 678 997 719 956 c 128,-1,21
 760 915 760 915 783.5 860 c 128,-1,22
 807 805 807 805 807 743 c 2,23,-1
 807 502 l 1,24,-1
 246 502 l 1,25,-1
 246 274 l 2,26,27
 246 237 246 237 260 204.5 c 128,-1,28
 274 172 274 172 298 148 c 128,-1,29
 322 124 322 124 354.5 110 c 128,-1,30
 387 96 387 96 424 96 c 2,31,-1
 506 96 l 2,32,33
 543 96 543 96 575.5 110 c 128,-1,34
 608 124 608 124 632 148 c 128,-1,35
 656 172 656 172 670 204.5 c 128,-1,36
 684 237 684 237 684 274 c 2,37,-1
 684 342 l 1,38,-1
 807 322 l 1,39,-1
 807 281 l 1,40,-1
 807 281 l 1,0,1
684 750 m 2,41,42
 684 787 684 787 670 819.5 c 128,-1,43
 656 852 656 852 632 876 c 128,-1,44
 608 900 608 900 575.5 914 c 128,-1,45
 543 928 543 928 506 928 c 2,46,-1
 424 928 l 2,47,48
 387 928 387 928 354.5 914 c 128,-1,49
 322 900 322 900 298 876 c 128,-1,50
 274 852 274 852 260 819.5 c 128,-1,51
 246 787 246 787 246 750 c 2,52,-1
 246 598 l 1,53,-1
 684 598 l 1,54,-1
 684 750 l 2,41,42
752 1188 m 1,55,-1
 629 1188 l 1,56,-1
 485 1352 l 1,57,-1
 342 1188 l 1,58,-1
 219 1188 l 1,59,-1
 424 1434 l 1,60,-1
 547 1434 l 1,61,-1
 752 1188 l 1,55,-1
EndSplineSet
EndChar

StartChar: edieresis
Encoding: 235 235 172
Width: 930
Flags: W
LayerCount: 2
Fore
SplineSet
807 281 m 1,0,1
 807 219 807 219 783.5 164 c 128,-1,2
 760 109 760 109 719 68 c 128,-1,3
 678 27 678 27 623 3.5 c 128,-1,4
 568 -20 568 -20 506 -20 c 2,5,-1
 424 -20 l 2,6,7
 362 -20 362 -20 307 3.5 c 128,-1,8
 252 27 252 27 211 68 c 128,-1,9
 170 109 170 109 146.5 164 c 128,-1,10
 123 219 123 219 123 281 c 2,11,-1
 123 743 l 2,12,13
 123 805 123 805 146.5 860 c 128,-1,14
 170 915 170 915 211 956 c 128,-1,15
 252 997 252 997 307 1020.5 c 128,-1,16
 362 1044 362 1044 424 1044 c 2,17,-1
 506 1044 l 2,18,19
 568 1044 568 1044 623 1020.5 c 128,-1,20
 678 997 678 997 719 956 c 128,-1,21
 760 915 760 915 783.5 860 c 128,-1,22
 807 805 807 805 807 743 c 2,23,-1
 807 502 l 1,24,-1
 246 502 l 1,25,-1
 246 274 l 2,26,27
 246 237 246 237 260 204.5 c 128,-1,28
 274 172 274 172 298 148 c 128,-1,29
 322 124 322 124 354.5 110 c 128,-1,30
 387 96 387 96 424 96 c 2,31,-1
 506 96 l 2,32,33
 543 96 543 96 575.5 110 c 128,-1,34
 608 124 608 124 632 148 c 128,-1,35
 656 172 656 172 670 204.5 c 128,-1,36
 684 237 684 237 684 274 c 2,37,-1
 684 342 l 1,38,-1
 807 322 l 1,39,-1
 807 281 l 1,40,-1
 807 281 l 1,0,1
684 750 m 2,41,42
 684 787 684 787 670 819.5 c 128,-1,43
 656 852 656 852 632 876 c 128,-1,44
 608 900 608 900 575.5 914 c 128,-1,45
 543 928 543 928 506 928 c 2,46,-1
 424 928 l 2,47,48
 387 928 387 928 354.5 914 c 128,-1,49
 322 900 322 900 298 876 c 128,-1,50
 274 852 274 852 260 819.5 c 128,-1,51
 246 787 246 787 246 750 c 2,52,-1
 246 598 l 1,53,-1
 684 598 l 1,54,-1
 684 750 l 2,41,42
215 1231 m 1,55,-1
 215 1384 l 1,56,-1
 369 1384 l 1,57,-1
 369 1231 l 1,58,-1
 215 1231 l 1,55,-1
602 1231 m 1,59,-1
 602 1384 l 1,60,-1
 756 1384 l 1,61,-1
 756 1231 l 1,62,-1
 602 1231 l 1,59,-1
EndSplineSet
EndChar

StartChar: igrave
Encoding: 236 236 173
Width: 451
Flags: W
LayerCount: 2
Fore
SplineSet
164 0 m 1,0,-1
 164 1024 l 1,1,-1
 287 1024 l 1,2,-1
 287 0 l 1,3,-1
 164 0 l 1,0,-1
0 1434 m 1,4,-1
 205 1434 l 1,5,-1
 369 1188 l 1,6,-1
 276 1188 l 1,7,-1
 0 1434 l 1,4,-1
EndSplineSet
EndChar

StartChar: iacute
Encoding: 237 237 174
Width: 451
Flags: W
LayerCount: 2
Fore
SplineSet
164 0 m 1,0,-1
 164 1024 l 1,1,-1
 287 1024 l 1,2,-1
 287 0 l 1,3,-1
 164 0 l 1,0,-1
174 1188 m 1,4,-1
 82 1188 l 1,5,-1
 246 1434 l 1,6,-1
 451 1434 l 1,7,-1
 174 1188 l 1,4,-1
EndSplineSet
EndChar

StartChar: icircumflex
Encoding: 238 238 175
Width: 451
Flags: W
LayerCount: 2
Fore
SplineSet
164 0 m 1,0,-1
 164 1024 l 1,1,-1
 287 1024 l 1,2,-1
 287 0 l 1,3,-1
 164 0 l 1,0,-1
492 1188 m 1,4,-1
 369 1188 l 1,5,-1
 225 1352 l 1,6,-1
 82 1188 l 1,7,-1
 -41 1188 l 1,8,-1
 164 1434 l 1,9,-1
 287 1434 l 1,10,-1
 492 1188 l 1,4,-1
EndSplineSet
EndChar

StartChar: idieresis
Encoding: 239 239 176
Width: 451
Flags: W
LayerCount: 2
Fore
SplineSet
164 0 m 1,0,-1
 164 1024 l 1,1,-1
 287 1024 l 1,2,-1
 287 0 l 1,3,-1
 164 0 l 1,0,-1
-45 1231 m 1,4,-1
 -45 1384 l 1,5,-1
 109 1384 l 1,6,-1
 109 1231 l 1,7,-1
 -45 1231 l 1,4,-1
342 1231 m 1,8,-1
 342 1384 l 1,9,-1
 496 1384 l 1,10,-1
 496 1231 l 1,11,-1
 342 1231 l 1,8,-1
EndSplineSet
EndChar

StartChar: eth
Encoding: 240 240 177
Width: 930
Flags: W
LayerCount: 2
Fore
SplineSet
498 1264 m 1,0,1
 456 1313 456 1313 407.5 1355.5 c 128,-1,2
 359 1398 359 1398 309 1434 c 1,3,-1
 457 1434 l 1,4,5
 536 1382 536 1382 608 1296 c 1,6,-1
 827 1360 l 1,7,-1
 848 1294 l 1,8,-1
 651 1237 l 1,9,10
 720 1137 720 1137 763.5 1011.5 c 128,-1,11
 807 886 807 886 807 743 c 2,12,-1
 807 281 l 2,13,14
 807 219 807 219 783.5 164 c 128,-1,15
 760 109 760 109 719 68 c 128,-1,16
 678 27 678 27 623 3.5 c 128,-1,17
 568 -20 568 -20 506 -20 c 2,18,-1
 424 -20 l 2,19,20
 362 -20 362 -20 307 3.5 c 128,-1,21
 252 27 252 27 211 68 c 128,-1,22
 170 109 170 109 146.5 164 c 128,-1,23
 123 219 123 219 123 281 c 2,24,-1
 123 743 l 2,25,26
 123 805 123 805 146.5 860 c 128,-1,27
 170 915 170 915 211 956 c 128,-1,28
 252 997 252 997 307 1020.5 c 128,-1,29
 362 1044 362 1044 424 1044 c 2,30,-1
 506 1044 l 2,31,32
 572 1044 572 1044 633 1016 c 1,33,34
 604 1118 604 1118 543 1206 c 1,35,-1
 315 1141 l 1,36,-1
 297 1206 l 1,37,-1
 498 1264 l 1,0,1
684 750 m 2,38,39
 684 787 684 787 670 819.5 c 128,-1,40
 656 852 656 852 632 876 c 128,-1,41
 608 900 608 900 575.5 914 c 128,-1,42
 543 928 543 928 506 928 c 2,43,-1
 424 928 l 2,44,45
 387 928 387 928 354.5 914 c 128,-1,46
 322 900 322 900 298 876 c 128,-1,47
 274 852 274 852 260 819.5 c 128,-1,48
 246 787 246 787 246 750 c 2,49,-1
 246 274 l 2,50,51
 246 237 246 237 260 204.5 c 128,-1,52
 274 172 274 172 298 148 c 128,-1,53
 322 124 322 124 354.5 110 c 128,-1,54
 387 96 387 96 424 96 c 2,55,-1
 506 96 l 2,56,57
 543 96 543 96 575.5 110 c 128,-1,58
 608 124 608 124 632 148 c 128,-1,59
 656 172 656 172 670 204.5 c 128,-1,60
 684 237 684 237 684 274 c 2,61,-1
 684 750 l 2,38,39
EndSplineSet
EndChar

StartChar: ntilde
Encoding: 241 241 178
Width: 930
Flags: W
LayerCount: 2
Fore
SplineSet
684 0 m 1,0,-1
 684 750 l 2,1,2
 684 787 684 787 670 819.5 c 128,-1,3
 656 852 656 852 632 876 c 128,-1,4
 608 900 608 900 575.5 914 c 128,-1,5
 543 928 543 928 506 928 c 2,6,-1
 424 928 l 2,7,8
 387 928 387 928 354.5 914 c 128,-1,9
 322 900 322 900 298 876 c 128,-1,10
 274 852 274 852 260 819.5 c 128,-1,11
 246 787 246 787 246 750 c 2,12,-1
 246 0 l 1,13,-1
 123 0 l 1,14,-1
 123 1024 l 1,15,-1
 164 1024 l 1,16,-1
 231 920 l 1,17,18
 273 977 273 977 336.5 1010.5 c 128,-1,19
 400 1044 400 1044 475 1044 c 2,20,-1
 506 1044 l 2,21,22
 568 1044 568 1044 623 1020.5 c 128,-1,23
 678 997 678 997 719 956 c 128,-1,24
 760 915 760 915 783.5 860 c 128,-1,25
 807 805 807 805 807 743 c 2,26,-1
 807 0 l 1,27,-1
 684 0 l 1,0,-1
602 1319 m 0,28,29
 644 1319 644 1319 666 1351 c 128,-1,30
 688 1383 688 1383 688 1434 c 1,31,-1
 782 1434 l 1,32,33
 782 1389 782 1389 770.5 1350 c 128,-1,34
 759 1311 759 1311 736.5 1282 c 128,-1,35
 714 1253 714 1253 679.5 1236 c 128,-1,36
 645 1219 645 1219 600 1219 c 0,37,38
 552 1219 552 1219 515.5 1237 c 128,-1,39
 479 1255 479 1255 447.5 1276 c 128,-1,40
 416 1297 416 1297 387.5 1315 c 128,-1,41
 359 1333 359 1333 328 1333 c 0,42,43
 286 1333 286 1333 265 1301.5 c 128,-1,44
 244 1270 244 1270 244 1221 c 1,45,-1
 150 1221 l 1,46,47
 150 1265 150 1265 161 1304 c 128,-1,48
 172 1343 172 1343 194.5 1372 c 128,-1,49
 217 1401 217 1401 251.5 1417.5 c 128,-1,50
 286 1434 286 1434 332 1434 c 0,51,52
 377 1434 377 1434 411.5 1416 c 128,-1,53
 446 1398 446 1398 476.5 1376.5 c 128,-1,54
 507 1355 507 1355 537 1337 c 128,-1,55
 567 1319 567 1319 602 1319 c 0,28,29
EndSplineSet
EndChar

StartChar: ograve
Encoding: 242 242 179
Width: 930
Flags: W
LayerCount: 2
Fore
SplineSet
807 281 m 1,0,1
 807 219 807 219 783.5 164 c 128,-1,2
 760 109 760 109 719 68 c 128,-1,3
 678 27 678 27 623 3.5 c 128,-1,4
 568 -20 568 -20 506 -20 c 2,5,-1
 424 -20 l 2,6,7
 362 -20 362 -20 307 3.5 c 128,-1,8
 252 27 252 27 211 68 c 128,-1,9
 170 109 170 109 146.5 164 c 128,-1,10
 123 219 123 219 123 281 c 2,11,-1
 123 743 l 2,12,13
 123 805 123 805 146.5 860 c 128,-1,14
 170 915 170 915 211 956 c 128,-1,15
 252 997 252 997 307 1020.5 c 128,-1,16
 362 1044 362 1044 424 1044 c 2,17,-1
 506 1044 l 2,18,19
 568 1044 568 1044 623 1020.5 c 128,-1,20
 678 997 678 997 719 956 c 128,-1,21
 760 915 760 915 783.5 860 c 128,-1,22
 807 805 807 805 807 743 c 2,23,-1
 807 281 l 1,24,-1
 807 281 l 1,0,1
684 750 m 2,25,26
 684 787 684 787 670 819.5 c 128,-1,27
 656 852 656 852 632 876 c 128,-1,28
 608 900 608 900 575.5 914 c 128,-1,29
 543 928 543 928 506 928 c 2,30,-1
 424 928 l 2,31,32
 387 928 387 928 354.5 914 c 128,-1,33
 322 900 322 900 298 876 c 128,-1,34
 274 852 274 852 260 819.5 c 128,-1,35
 246 787 246 787 246 750 c 2,36,-1
 246 274 l 2,37,38
 246 237 246 237 260 204.5 c 128,-1,39
 274 172 274 172 298 148 c 128,-1,40
 322 124 322 124 354.5 110 c 128,-1,41
 387 96 387 96 424 96 c 2,42,-1
 506 96 l 2,43,44
 543 96 543 96 575.5 110 c 128,-1,45
 608 124 608 124 632 148 c 128,-1,46
 656 172 656 172 670 204.5 c 128,-1,47
 684 237 684 237 684 274 c 2,48,-1
 684 750 l 2,25,26
240 1434 m 1,49,-1
 444 1434 l 1,50,-1
 608 1188 l 1,51,-1
 516 1188 l 1,52,-1
 240 1434 l 1,49,-1
EndSplineSet
EndChar

StartChar: oacute
Encoding: 243 243 180
Width: 930
Flags: W
LayerCount: 2
Fore
SplineSet
807 281 m 1,0,1
 807 219 807 219 783.5 164 c 128,-1,2
 760 109 760 109 719 68 c 128,-1,3
 678 27 678 27 623 3.5 c 128,-1,4
 568 -20 568 -20 506 -20 c 2,5,-1
 424 -20 l 2,6,7
 362 -20 362 -20 307 3.5 c 128,-1,8
 252 27 252 27 211 68 c 128,-1,9
 170 109 170 109 146.5 164 c 128,-1,10
 123 219 123 219 123 281 c 2,11,-1
 123 743 l 2,12,13
 123 805 123 805 146.5 860 c 128,-1,14
 170 915 170 915 211 956 c 128,-1,15
 252 997 252 997 307 1020.5 c 128,-1,16
 362 1044 362 1044 424 1044 c 2,17,-1
 506 1044 l 2,18,19
 568 1044 568 1044 623 1020.5 c 128,-1,20
 678 997 678 997 719 956 c 128,-1,21
 760 915 760 915 783.5 860 c 128,-1,22
 807 805 807 805 807 743 c 2,23,-1
 807 281 l 1,24,-1
 807 281 l 1,0,1
684 750 m 2,25,26
 684 787 684 787 670 819.5 c 128,-1,27
 656 852 656 852 632 876 c 128,-1,28
 608 900 608 900 575.5 914 c 128,-1,29
 543 928 543 928 506 928 c 2,30,-1
 424 928 l 2,31,32
 387 928 387 928 354.5 914 c 128,-1,33
 322 900 322 900 298 876 c 128,-1,34
 274 852 274 852 260 819.5 c 128,-1,35
 246 787 246 787 246 750 c 2,36,-1
 246 274 l 2,37,38
 246 237 246 237 260 204.5 c 128,-1,39
 274 172 274 172 298 148 c 128,-1,40
 322 124 322 124 354.5 110 c 128,-1,41
 387 96 387 96 424 96 c 2,42,-1
 506 96 l 2,43,44
 543 96 543 96 575.5 110 c 128,-1,45
 608 124 608 124 632 148 c 128,-1,46
 656 172 656 172 670 204.5 c 128,-1,47
 684 237 684 237 684 274 c 2,48,-1
 684 750 l 2,25,26
414 1188 m 1,49,-1
 322 1188 l 1,50,-1
 485 1434 l 1,51,-1
 690 1434 l 1,52,-1
 414 1188 l 1,49,-1
EndSplineSet
EndChar

StartChar: ocircumflex
Encoding: 244 244 181
Width: 930
Flags: W
LayerCount: 2
Fore
SplineSet
807 281 m 1,0,1
 807 219 807 219 783.5 164 c 128,-1,2
 760 109 760 109 719 68 c 128,-1,3
 678 27 678 27 623 3.5 c 128,-1,4
 568 -20 568 -20 506 -20 c 2,5,-1
 424 -20 l 2,6,7
 362 -20 362 -20 307 3.5 c 128,-1,8
 252 27 252 27 211 68 c 128,-1,9
 170 109 170 109 146.5 164 c 128,-1,10
 123 219 123 219 123 281 c 2,11,-1
 123 743 l 2,12,13
 123 805 123 805 146.5 860 c 128,-1,14
 170 915 170 915 211 956 c 128,-1,15
 252 997 252 997 307 1020.5 c 128,-1,16
 362 1044 362 1044 424 1044 c 2,17,-1
 506 1044 l 2,18,19
 568 1044 568 1044 623 1020.5 c 128,-1,20
 678 997 678 997 719 956 c 128,-1,21
 760 915 760 915 783.5 860 c 128,-1,22
 807 805 807 805 807 743 c 2,23,-1
 807 281 l 1,24,-1
 807 281 l 1,0,1
684 750 m 2,25,26
 684 787 684 787 670 819.5 c 128,-1,27
 656 852 656 852 632 876 c 128,-1,28
 608 900 608 900 575.5 914 c 128,-1,29
 543 928 543 928 506 928 c 2,30,-1
 424 928 l 2,31,32
 387 928 387 928 354.5 914 c 128,-1,33
 322 900 322 900 298 876 c 128,-1,34
 274 852 274 852 260 819.5 c 128,-1,35
 246 787 246 787 246 750 c 2,36,-1
 246 274 l 2,37,38
 246 237 246 237 260 204.5 c 128,-1,39
 274 172 274 172 298 148 c 128,-1,40
 322 124 322 124 354.5 110 c 128,-1,41
 387 96 387 96 424 96 c 2,42,-1
 506 96 l 2,43,44
 543 96 543 96 575.5 110 c 128,-1,45
 608 124 608 124 632 148 c 128,-1,46
 656 172 656 172 670 204.5 c 128,-1,47
 684 237 684 237 684 274 c 2,48,-1
 684 750 l 2,25,26
731 1188 m 1,49,-1
 608 1188 l 1,50,-1
 465 1352 l 1,51,-1
 322 1188 l 1,52,-1
 199 1188 l 1,53,-1
 403 1434 l 1,54,-1
 526 1434 l 1,55,-1
 731 1188 l 1,49,-1
EndSplineSet
EndChar

StartChar: otilde
Encoding: 245 245 182
Width: 930
Flags: W
LayerCount: 2
Fore
SplineSet
807 281 m 1,0,1
 807 219 807 219 783.5 164 c 128,-1,2
 760 109 760 109 719 68 c 128,-1,3
 678 27 678 27 623 3.5 c 128,-1,4
 568 -20 568 -20 506 -20 c 2,5,-1
 424 -20 l 2,6,7
 362 -20 362 -20 307 3.5 c 128,-1,8
 252 27 252 27 211 68 c 128,-1,9
 170 109 170 109 146.5 164 c 128,-1,10
 123 219 123 219 123 281 c 2,11,-1
 123 743 l 2,12,13
 123 805 123 805 146.5 860 c 128,-1,14
 170 915 170 915 211 956 c 128,-1,15
 252 997 252 997 307 1020.5 c 128,-1,16
 362 1044 362 1044 424 1044 c 2,17,-1
 506 1044 l 2,18,19
 568 1044 568 1044 623 1020.5 c 128,-1,20
 678 997 678 997 719 956 c 128,-1,21
 760 915 760 915 783.5 860 c 128,-1,22
 807 805 807 805 807 743 c 2,23,-1
 807 281 l 1,24,-1
 807 281 l 1,0,1
684 750 m 2,25,26
 684 787 684 787 670 819.5 c 128,-1,27
 656 852 656 852 632 876 c 128,-1,28
 608 900 608 900 575.5 914 c 128,-1,29
 543 928 543 928 506 928 c 2,30,-1
 424 928 l 2,31,32
 387 928 387 928 354.5 914 c 128,-1,33
 322 900 322 900 298 876 c 128,-1,34
 274 852 274 852 260 819.5 c 128,-1,35
 246 787 246 787 246 750 c 2,36,-1
 246 274 l 2,37,38
 246 237 246 237 260 204.5 c 128,-1,39
 274 172 274 172 298 148 c 128,-1,40
 322 124 322 124 354.5 110 c 128,-1,41
 387 96 387 96 424 96 c 2,42,-1
 506 96 l 2,43,44
 543 96 543 96 575.5 110 c 128,-1,45
 608 124 608 124 632 148 c 128,-1,46
 656 172 656 172 670 204.5 c 128,-1,47
 684 237 684 237 684 274 c 2,48,-1
 684 750 l 2,25,26
602 1319 m 0,49,50
 644 1319 644 1319 666 1351 c 128,-1,51
 688 1383 688 1383 688 1434 c 1,52,-1
 782 1434 l 1,53,54
 782 1389 782 1389 770.5 1350 c 128,-1,55
 759 1311 759 1311 736.5 1282 c 128,-1,56
 714 1253 714 1253 679.5 1236 c 128,-1,57
 645 1219 645 1219 600 1219 c 0,58,59
 552 1219 552 1219 515.5 1237 c 128,-1,60
 479 1255 479 1255 447.5 1276 c 128,-1,61
 416 1297 416 1297 387.5 1315 c 128,-1,62
 359 1333 359 1333 328 1333 c 0,63,64
 286 1333 286 1333 265 1301.5 c 128,-1,65
 244 1270 244 1270 244 1221 c 1,66,-1
 150 1221 l 1,67,68
 150 1265 150 1265 161 1304 c 128,-1,69
 172 1343 172 1343 194.5 1372 c 128,-1,70
 217 1401 217 1401 251.5 1417.5 c 128,-1,71
 286 1434 286 1434 332 1434 c 0,72,73
 377 1434 377 1434 411.5 1416 c 128,-1,74
 446 1398 446 1398 476.5 1376.5 c 128,-1,75
 507 1355 507 1355 537 1337 c 128,-1,76
 567 1319 567 1319 602 1319 c 0,49,50
EndSplineSet
EndChar

StartChar: odieresis
Encoding: 246 246 183
Width: 930
Flags: W
LayerCount: 2
Fore
SplineSet
807 281 m 1,0,1
 807 219 807 219 783.5 164 c 128,-1,2
 760 109 760 109 719 68 c 128,-1,3
 678 27 678 27 623 3.5 c 128,-1,4
 568 -20 568 -20 506 -20 c 2,5,-1
 424 -20 l 2,6,7
 362 -20 362 -20 307 3.5 c 128,-1,8
 252 27 252 27 211 68 c 128,-1,9
 170 109 170 109 146.5 164 c 128,-1,10
 123 219 123 219 123 281 c 2,11,-1
 123 743 l 2,12,13
 123 805 123 805 146.5 860 c 128,-1,14
 170 915 170 915 211 956 c 128,-1,15
 252 997 252 997 307 1020.5 c 128,-1,16
 362 1044 362 1044 424 1044 c 2,17,-1
 506 1044 l 2,18,19
 568 1044 568 1044 623 1020.5 c 128,-1,20
 678 997 678 997 719 956 c 128,-1,21
 760 915 760 915 783.5 860 c 128,-1,22
 807 805 807 805 807 743 c 2,23,-1
 807 281 l 1,24,-1
 807 281 l 1,0,1
684 750 m 2,25,26
 684 787 684 787 670 819.5 c 128,-1,27
 656 852 656 852 632 876 c 128,-1,28
 608 900 608 900 575.5 914 c 128,-1,29
 543 928 543 928 506 928 c 2,30,-1
 424 928 l 2,31,32
 387 928 387 928 354.5 914 c 128,-1,33
 322 900 322 900 298 876 c 128,-1,34
 274 852 274 852 260 819.5 c 128,-1,35
 246 787 246 787 246 750 c 2,36,-1
 246 274 l 2,37,38
 246 237 246 237 260 204.5 c 128,-1,39
 274 172 274 172 298 148 c 128,-1,40
 322 124 322 124 354.5 110 c 128,-1,41
 387 96 387 96 424 96 c 2,42,-1
 506 96 l 2,43,44
 543 96 543 96 575.5 110 c 128,-1,45
 608 124 608 124 632 148 c 128,-1,46
 656 172 656 172 670 204.5 c 128,-1,47
 684 237 684 237 684 274 c 2,48,-1
 684 750 l 2,25,26
195 1231 m 1,49,-1
 195 1384 l 1,50,-1
 348 1384 l 1,51,-1
 348 1231 l 1,52,-1
 195 1231 l 1,49,-1
582 1231 m 1,53,-1
 582 1384 l 1,54,-1
 735 1384 l 1,55,-1
 735 1231 l 1,56,-1
 582 1231 l 1,53,-1
EndSplineSet
EndChar

StartChar: divide
Encoding: 247 247 184
Width: 1188
Flags: W
LayerCount: 2
Fore
SplineSet
1106 782 m 1,0,-1
 1106 653 l 1,1,-1
 82 653 l 1,2,-1
 82 782 l 1,3,-1
 1106 782 l 1,0,-1
455 1100 m 0,4,5
 455 1129 455 1129 466 1154 c 128,-1,6
 477 1179 477 1179 496 1198 c 128,-1,7
 515 1217 515 1217 540.5 1228 c 128,-1,8
 566 1239 566 1239 594 1239 c 0,9,10
 623 1239 623 1239 648 1228 c 128,-1,11
 673 1217 673 1217 692 1198 c 128,-1,12
 711 1179 711 1179 722 1154 c 128,-1,13
 733 1129 733 1129 733 1100 c 0,14,15
 733 1072 733 1072 722 1046.5 c 128,-1,16
 711 1021 711 1021 692 1002 c 128,-1,17
 673 983 673 983 648 972 c 128,-1,18
 623 961 623 961 594 961 c 0,19,20
 566 961 566 961 540.5 972 c 128,-1,21
 515 983 515 983 496 1002 c 128,-1,22
 477 1021 477 1021 466 1046.5 c 128,-1,23
 455 1072 455 1072 455 1100 c 0,4,5
455 336 m 0,24,25
 455 365 455 365 466 390 c 128,-1,26
 477 415 477 415 496 434 c 128,-1,27
 515 453 515 453 540.5 464 c 128,-1,28
 566 475 566 475 594 475 c 0,29,30
 623 475 623 475 648 464 c 128,-1,31
 673 453 673 453 692 434 c 128,-1,32
 711 415 711 415 722 390 c 128,-1,33
 733 365 733 365 733 336 c 0,34,35
 733 308 733 308 722 282.5 c 128,-1,36
 711 257 711 257 692 238 c 128,-1,37
 673 219 673 219 648 208 c 128,-1,38
 623 197 623 197 594 197 c 0,39,40
 566 197 566 197 540.5 208 c 128,-1,41
 515 219 515 219 496 238 c 128,-1,42
 477 257 477 257 466 282.5 c 128,-1,43
 455 308 455 308 455 336 c 0,24,25
EndSplineSet
EndChar

StartChar: oslash
Encoding: 248 248 185
Width: 932
Flags: W
LayerCount: 2
Fore
SplineSet
61 -61 m 1,0,-1
 170 117 l 1,1,2
 123 188 123 188 123 281 c 2,3,-1
 123 743 l 2,4,5
 123 805 123 805 146.5 860 c 128,-1,6
 170 915 170 915 211 956 c 128,-1,7
 252 997 252 997 307 1020.5 c 128,-1,8
 362 1044 362 1044 424 1044 c 2,9,-1
 506 1044 l 2,10,11
 560 1044 560 1044 608 1026 c 128,-1,12
 656 1008 656 1008 694 977 c 1,13,-1
 762 1085 l 1,14,-1
 870 1085 l 1,15,-1
 760 905 l 1,16,17
 781 870 781 870 794 829 c 128,-1,18
 807 788 807 788 807 743 c 2,19,-1
 807 281 l 2,20,21
 807 219 807 219 783.5 164 c 128,-1,22
 760 109 760 109 719 68 c 128,-1,23
 678 27 678 27 623 3.5 c 128,-1,24
 568 -20 568 -20 506 -20 c 2,25,-1
 424 -20 l 2,26,27
 370 -20 370 -20 322 -3 c 128,-1,28
 274 14 274 14 236 45 c 1,29,-1
 170 -61 l 1,30,-1
 61 -61 l 1,0,-1
246 274 m 1,31,32
 246 266 246 266 246 259 c 128,-1,33
 246 252 246 252 248 244 c 1,34,-1
 633 874 l 1,35,36
 608 899 608 899 575.5 913.5 c 128,-1,37
 543 928 543 928 506 928 c 2,38,-1
 424 928 l 2,39,40
 387 928 387 928 354.5 914 c 128,-1,41
 322 900 322 900 298 876 c 128,-1,42
 274 852 274 852 260 819.5 c 128,-1,43
 246 787 246 787 246 750 c 2,44,-1
 246 274 l 1,45,-1
 246 274 l 1,31,32
684 750 m 2,46,47
 684 756 684 756 683 763 c 128,-1,48
 682 770 682 770 682 776 c 1,49,-1
 297 147 l 1,50,51
 322 123 322 123 354.5 109.5 c 128,-1,52
 387 96 387 96 424 96 c 2,53,-1
 506 96 l 2,54,55
 543 96 543 96 575.5 110 c 128,-1,56
 608 124 608 124 632 148 c 128,-1,57
 656 172 656 172 670 204.5 c 128,-1,58
 684 237 684 237 684 274 c 2,59,-1
 684 750 l 2,46,47
EndSplineSet
EndChar

StartChar: ugrave
Encoding: 249 249 186
Width: 930
Flags: W
LayerCount: 2
Fore
SplineSet
766 0 m 1,0,-1
 698 104 l 1,1,2
 656 47 656 47 593 13.5 c 128,-1,3
 530 -20 530 -20 455 -20 c 2,4,-1
 424 -20 l 2,5,6
 362 -20 362 -20 307 3.5 c 128,-1,7
 252 27 252 27 211 68 c 128,-1,8
 170 109 170 109 146.5 164 c 128,-1,9
 123 219 123 219 123 281 c 2,10,-1
 123 1024 l 1,11,-1
 246 1024 l 1,12,-1
 246 274 l 2,13,14
 246 237 246 237 260 204.5 c 128,-1,15
 274 172 274 172 298 148 c 128,-1,16
 322 124 322 124 354.5 110 c 128,-1,17
 387 96 387 96 424 96 c 2,18,-1
 506 96 l 2,19,20
 543 96 543 96 575.5 110 c 128,-1,21
 608 124 608 124 632 148 c 128,-1,22
 656 172 656 172 670 204.5 c 128,-1,23
 684 237 684 237 684 274 c 2,24,-1
 684 1024 l 1,25,-1
 807 1024 l 1,26,-1
 807 0 l 1,27,-1
 766 0 l 1,0,-1
199 1434 m 1,28,-1
 403 1434 l 1,29,-1
 567 1188 l 1,30,-1
 475 1188 l 1,31,-1
 199 1434 l 1,28,-1
EndSplineSet
EndChar

